M48
; DRILL file {KiCad 8.0.0} date 2024-02-25T21:16:31-0800
; FORMAT={-:-/ absolute / inch / decimal}
; #@! TF.CreationDate,2024-02-25T21:16:31-08:00
; #@! TF.GenerationSoftware,Kicad,Pcbnew,8.0.0
; #@! TF.FileFunction,Plated,1,2,PTH
FMAT,2
INCH
; #@! TA.AperFunction,Plated,PTH,ViaDrill
T1C0.0118
; #@! TA.AperFunction,Plated,PTH,ComponentDrill
T2C0.0276
; #@! TA.AperFunction,Plated,PTH,ComponentDrill
T3C0.0315
%
G90
G05
T1
X0.8465Y-2.5787
X0.8661Y-2.0669
X1.063Y-1.7559
X1.063Y-2.2638
X1.7717Y-1.6339
X1.7717Y-2.2638
X1.9291Y-2.5
X1.9444Y-1.3136
X1.9488Y-1.8898
X2.9094Y-2.1969
X3.0591Y-1.8307
X3.0591Y-2.6811
T3
X1.0327Y-2.9571
X1.0827Y-3.0571
X1.1327Y-2.9571
X1.1827Y-3.0571
X1.2327Y-2.9571
X1.2827Y-3.0571
X1.3327Y-2.9571
X1.3827Y-3.0571
X1.4327Y-2.9571
X1.4827Y-3.0571
X1.5327Y-2.9571
X1.5669Y-1.176
X1.5669Y-1.276
X1.5669Y-1.376
X1.5669Y-1.476
X1.5669Y-1.576
X1.5669Y-1.676
X1.5669Y-1.776
X1.5669Y-1.876
X1.5669Y-1.976
X1.5669Y-2.076
X1.5669Y-2.176
X1.5669Y-2.276
X1.5669Y-2.376
X1.5669Y-2.476
X1.5669Y-2.576
X1.5669Y-2.676
X1.5827Y-3.0571
X1.6327Y-2.9571
X1.6827Y-3.0571
X1.7327Y-2.9571
X1.7827Y-3.0571
X1.8327Y-2.9571
X1.8827Y-3.0571
X1.9327Y-2.9571
X1.9827Y-3.0571
X2.0327Y-2.9571
X2.0827Y-3.0571
X2.1327Y-2.9571
X2.1575Y-1.176
X2.1575Y-1.276
X2.1575Y-1.376
X2.1575Y-1.476
X2.1575Y-1.576
X2.1575Y-1.676
X2.1575Y-1.776
X2.1575Y-1.876
X2.1575Y-1.976
X2.1575Y-2.076
X2.1575Y-2.176
X2.1575Y-2.276
X2.1575Y-2.376
X2.1575Y-2.476
X2.1575Y-2.576
X2.1575Y-2.676
X2.1827Y-3.0571
X2.2327Y-2.9571
X2.2827Y-3.0571
X2.3327Y-2.9571
X2.3827Y-3.0571
X2.4327Y-2.9571
X2.4827Y-3.0571
X2.5327Y-2.9571
X2.5827Y-3.0571
X2.6327Y-2.9571
X2.6827Y-3.0571
X2.7327Y-2.9571
X2.7827Y-3.0571
X2.8327Y-2.9571
X2.8827Y-3.0571
T2
G00X0.815Y-3.1703
M15
G01X0.815Y-3.1093
M16
G05
G00X0.815Y-4.7057
M15
G01X0.815Y-4.6447
M16
G05
G00X3.1339Y-3.1703
M15
G01X3.1339Y-3.1093
M16
G05
G00X3.1339Y-4.7057
M15
G01X3.1339Y-4.6447
M16
G05
M30
