%TF.GenerationSoftware,KiCad,Pcbnew,8.0.0*%
%TF.CreationDate,2024-02-25T21:16:28-08:00*%
%TF.ProjectId,HuCard-TL866,48754361-7264-42d5-944c-3836362e6b69,rev?*%
%TF.SameCoordinates,Original*%
%TF.FileFunction,Soldermask,Top*%
%TF.FilePolarity,Negative*%
%FSLAX46Y46*%
G04 Gerber Fmt 4.6, Leading zero omitted, Abs format (unit mm)*
G04 Created by KiCad (PCBNEW 8.0.0) date 2024-02-25 21:16:28*
%MOMM*%
%LPD*%
G01*
G04 APERTURE LIST*
%ADD10O,2.700000X4.250000*%
%ADD11O,1.200000X2.000000*%
%ADD12O,2.000000X1.200000*%
G04 APERTURE END LIST*
D10*
%TO.C,J2*%
X79600000Y-118750000D03*
X79600000Y-79750000D03*
X20700000Y-118750000D03*
X20700000Y-79750000D03*
D11*
X73220000Y-77650000D03*
X71950000Y-75110000D03*
X70680000Y-77650000D03*
X69410000Y-75110000D03*
X68140000Y-77650000D03*
X66870000Y-75110000D03*
X65600000Y-77650000D03*
X64330000Y-75110000D03*
X63060000Y-77650000D03*
X61790000Y-75110000D03*
X60520000Y-77650000D03*
X59250000Y-75110000D03*
X57980000Y-77650000D03*
X56710000Y-75110000D03*
X55440000Y-77650000D03*
X54170000Y-75110000D03*
X52900000Y-77650000D03*
X51630000Y-75110000D03*
X50360000Y-77650000D03*
X49090000Y-75110000D03*
X47820000Y-77650000D03*
X46550000Y-75110000D03*
X45280000Y-77650000D03*
X44010000Y-75110000D03*
X42740000Y-77650000D03*
X41470000Y-75110000D03*
X40200000Y-77650000D03*
X38930000Y-75110000D03*
X37660000Y-77650000D03*
X36390000Y-75110000D03*
X35120000Y-77650000D03*
X33850000Y-75110000D03*
X32580000Y-77650000D03*
X31310000Y-75110000D03*
X30040000Y-77650000D03*
X28770000Y-75110000D03*
X27500000Y-77650000D03*
X26230000Y-75110000D03*
%TD*%
D12*
%TO.C,J1*%
X39800000Y-29870000D03*
X39800000Y-32410000D03*
X39800000Y-34950000D03*
X39800000Y-37490000D03*
X39800000Y-40030000D03*
X39800000Y-42570000D03*
X39800000Y-45110000D03*
X39800000Y-47650000D03*
X39800000Y-50190000D03*
X39800000Y-52730000D03*
X39800000Y-55270000D03*
X39800000Y-57810000D03*
X39800000Y-60350000D03*
X39800000Y-62890000D03*
X39800000Y-65430000D03*
X39800000Y-67970000D03*
X54800000Y-67970000D03*
X54800000Y-65430000D03*
X54800000Y-62890000D03*
X54800000Y-60350000D03*
X54800000Y-57810000D03*
X54800000Y-55270000D03*
X54800000Y-52730000D03*
X54800000Y-50190000D03*
X54800000Y-47650000D03*
X54800000Y-45110000D03*
X54800000Y-42570000D03*
X54800000Y-40030000D03*
X54800000Y-37490000D03*
X54800000Y-34950000D03*
X54800000Y-32410000D03*
X54800000Y-29870000D03*
%TD*%
M02*
