%TF.GenerationSoftware,KiCad,Pcbnew,8.0.0*%
%TF.CreationDate,2024-02-25T21:16:28-08:00*%
%TF.ProjectId,HuCard-TL866,48754361-7264-42d5-944c-3836362e6b69,rev?*%
%TF.SameCoordinates,Original*%
%TF.FileFunction,Copper,L2,Bot*%
%TF.FilePolarity,Positive*%
%FSLAX46Y46*%
G04 Gerber Fmt 4.6, Leading zero omitted, Abs format (unit mm)*
G04 Created by KiCad (PCBNEW 8.0.0) date 2024-02-25 21:16:28*
%MOMM*%
%LPD*%
G01*
G04 APERTURE LIST*
%TA.AperFunction,ComponentPad*%
%ADD10O,2.700000X4.250000*%
%TD*%
%TA.AperFunction,ComponentPad*%
%ADD11O,1.200000X2.000000*%
%TD*%
%TA.AperFunction,ComponentPad*%
%ADD12O,2.000000X1.200000*%
%TD*%
%TA.AperFunction,ViaPad*%
%ADD13C,0.600000*%
%TD*%
%TA.AperFunction,Conductor*%
%ADD14C,0.200000*%
%TD*%
G04 APERTURE END LIST*
D10*
%TO.P,J2,0*%
%TO.N,N/C*%
X79600000Y-118750000D03*
X79600000Y-79750000D03*
X20700000Y-118750000D03*
X20700000Y-79750000D03*
D11*
%TO.P,J2,1,Pin_1*%
%TO.N,/VCC*%
X73220000Y-77650000D03*
%TO.P,J2,2,Pin_2*%
%TO.N,unconnected-(J2-Pin_2-Pad2)*%
X71950000Y-75110000D03*
%TO.P,J2,3,Pin_3*%
%TO.N,unconnected-(J2-Pin_3-Pad3)*%
X70680000Y-77650000D03*
%TO.P,J2,4,Pin_4*%
%TO.N,unconnected-(J2-Pin_4-Pad4)*%
X69410000Y-75110000D03*
%TO.P,J2,5,Pin_5*%
%TO.N,/WE*%
X68140000Y-77650000D03*
%TO.P,J2,6,Pin_6*%
%TO.N,/A18*%
X66870000Y-75110000D03*
%TO.P,J2,7,Pin_7*%
%TO.N,/A17*%
X65600000Y-77650000D03*
%TO.P,J2,8,Pin_8*%
%TO.N,/A14*%
X64330000Y-75110000D03*
%TO.P,J2,9,Pin_9*%
%TO.N,/A13*%
X63060000Y-77650000D03*
%TO.P,J2,10,Pin_10*%
%TO.N,/A8*%
X61790000Y-75110000D03*
%TO.P,J2,11,Pin_11*%
%TO.N,/A9*%
X60520000Y-77650000D03*
%TO.P,J2,12,Pin_12*%
%TO.N,/A11*%
X59250000Y-75110000D03*
%TO.P,J2,13,Pin_13*%
%TO.N,/OE*%
X57980000Y-77650000D03*
%TO.P,J2,14,Pin_14*%
%TO.N,/A10*%
X56710000Y-75110000D03*
%TO.P,J2,15,Pin_15*%
%TO.N,/CE*%
X55440000Y-77650000D03*
%TO.P,J2,16,Pin_16*%
%TO.N,/DQ7*%
X54170000Y-75110000D03*
%TO.P,J2,17,Pin_17*%
%TO.N,/DQ6*%
X52900000Y-77650000D03*
%TO.P,J2,18,Pin_18*%
%TO.N,/DQ5*%
X51630000Y-75110000D03*
%TO.P,J2,19,Pin_19*%
%TO.N,/DQ4*%
X50360000Y-77650000D03*
%TO.P,J2,20,Pin_20*%
%TO.N,/DQ3*%
X49090000Y-75110000D03*
%TO.P,J2,21,Pin_21*%
%TO.N,/GND*%
X47820000Y-77650000D03*
%TO.P,J2,22,Pin_22*%
%TO.N,/DQ2*%
X46550000Y-75110000D03*
%TO.P,J2,23,Pin_23*%
%TO.N,/DQ1*%
X45280000Y-77650000D03*
%TO.P,J2,24,Pin_24*%
%TO.N,/DQ0*%
X44010000Y-75110000D03*
%TO.P,J2,25,Pin_25*%
%TO.N,/A0*%
X42740000Y-77650000D03*
%TO.P,J2,26,Pin_26*%
%TO.N,/A1*%
X41470000Y-75110000D03*
%TO.P,J2,27,Pin_27*%
%TO.N,/A2*%
X40200000Y-77650000D03*
%TO.P,J2,28,Pin_28*%
%TO.N,/A3*%
X38930000Y-75110000D03*
%TO.P,J2,29,Pin_29*%
%TO.N,/A4*%
X37660000Y-77650000D03*
%TO.P,J2,30,Pin_30*%
%TO.N,/A5*%
X36390000Y-75110000D03*
%TO.P,J2,31,Pin_31*%
%TO.N,/A6*%
X35120000Y-77650000D03*
%TO.P,J2,32,Pin_32*%
%TO.N,/A7*%
X33850000Y-75110000D03*
%TO.P,J2,33,Pin_33*%
%TO.N,/A12*%
X32580000Y-77650000D03*
%TO.P,J2,34,Pin_34*%
%TO.N,/A15*%
X31310000Y-75110000D03*
%TO.P,J2,35,Pin_35*%
%TO.N,/A16*%
X30040000Y-77650000D03*
%TO.P,J2,36,Pin_36*%
%TO.N,unconnected-(J2-Pin_36-Pad36)*%
X28770000Y-75110000D03*
%TO.P,J2,37,Pin_37*%
%TO.N,unconnected-(J2-Pin_37-Pad37)*%
X27500000Y-77650000D03*
%TO.P,J2,38,Pin_38*%
%TO.N,/GND*%
X26230000Y-75110000D03*
%TD*%
D12*
%TO.P,J1,1,Pin_1*%
%TO.N,/A18*%
X39800000Y-29870000D03*
%TO.P,J1,2,Pin_2*%
%TO.N,/A16*%
X39800000Y-32410000D03*
%TO.P,J1,3,Pin_3*%
%TO.N,/A15*%
X39800000Y-34950000D03*
%TO.P,J1,4,Pin_4*%
%TO.N,/A12*%
X39800000Y-37490000D03*
%TO.P,J1,5,Pin_5*%
%TO.N,/A7*%
X39800000Y-40030000D03*
%TO.P,J1,6,Pin_6*%
%TO.N,/A6*%
X39800000Y-42570000D03*
%TO.P,J1,7,Pin_7*%
%TO.N,/A5*%
X39800000Y-45110000D03*
%TO.P,J1,8,Pin_8*%
%TO.N,/A4*%
X39800000Y-47650000D03*
%TO.P,J1,9,Pin_9*%
%TO.N,/A3*%
X39800000Y-50190000D03*
%TO.P,J1,10,Pin_10*%
%TO.N,/A2*%
X39800000Y-52730000D03*
%TO.P,J1,11,Pin_11*%
%TO.N,/A1*%
X39800000Y-55270000D03*
%TO.P,J1,12,Pin_12*%
%TO.N,/A0*%
X39800000Y-57810000D03*
%TO.P,J1,13,Pin_13*%
%TO.N,/DQ0*%
X39800000Y-60350000D03*
%TO.P,J1,14,Pin_14*%
%TO.N,/DQ1*%
X39800000Y-62890000D03*
%TO.P,J1,15,Pin_15*%
%TO.N,/DQ2*%
X39800000Y-65430000D03*
%TO.P,J1,16,Pin_16*%
%TO.N,/GND*%
X39800000Y-67970000D03*
%TO.P,J1,17,Pin_17*%
%TO.N,/DQ3*%
X54800000Y-67970000D03*
%TO.P,J1,18,Pin_18*%
%TO.N,/DQ4*%
X54800000Y-65430000D03*
%TO.P,J1,19,Pin_19*%
%TO.N,/DQ5*%
X54800000Y-62890000D03*
%TO.P,J1,20,Pin_20*%
%TO.N,/DQ6*%
X54800000Y-60350000D03*
%TO.P,J1,21,Pin_21*%
%TO.N,/DQ7*%
X54800000Y-57810000D03*
%TO.P,J1,22,Pin_22*%
%TO.N,/CE*%
X54800000Y-55270000D03*
%TO.P,J1,23,Pin_23*%
%TO.N,/A10*%
X54800000Y-52730000D03*
%TO.P,J1,24,Pin_24*%
%TO.N,/OE*%
X54800000Y-50190000D03*
%TO.P,J1,25,Pin_25*%
%TO.N,/A11*%
X54800000Y-47650000D03*
%TO.P,J1,26,Pin_26*%
%TO.N,/A9*%
X54800000Y-45110000D03*
%TO.P,J1,27,Pin_27*%
%TO.N,/A8*%
X54800000Y-42570000D03*
%TO.P,J1,28,Pin_28*%
%TO.N,/A13*%
X54800000Y-40030000D03*
%TO.P,J1,29,Pin_29*%
%TO.N,/A14*%
X54800000Y-37490000D03*
%TO.P,J1,30,Pin_30*%
%TO.N,/A17*%
X54800000Y-34950000D03*
%TO.P,J1,31,Pin_31*%
%TO.N,/WE*%
X54800000Y-32410000D03*
%TO.P,J1,32,Pin_32*%
%TO.N,/VCC*%
X54800000Y-29870000D03*
%TD*%
D13*
%TO.N,/GND*%
X77700000Y-68100000D03*
X45000000Y-57500000D03*
X49387807Y-33366241D03*
X22000000Y-52500000D03*
X27000000Y-44600000D03*
X73900000Y-55800000D03*
X45000000Y-41500000D03*
X49500000Y-48000000D03*
X49000000Y-63500000D03*
X27000000Y-57500000D03*
X21500000Y-65500000D03*
X77700000Y-46500000D03*
%TD*%
D14*
%TO.N,/A18*%
X66870000Y-72570000D02*
X66870000Y-75110000D01*
X61000000Y-49200000D02*
X55600000Y-43800000D01*
X61000000Y-66700000D02*
X61000000Y-49200000D01*
X66610000Y-72310000D02*
X61000000Y-66700000D01*
X55600000Y-43800000D02*
X53730000Y-43800000D01*
X66610000Y-72310000D02*
X66870000Y-72570000D01*
X53730000Y-43800000D02*
X39800000Y-29870000D01*
%TO.N,/DQ1*%
X39800000Y-62890000D02*
X39800000Y-62900000D01*
X45020000Y-68120000D02*
X45020000Y-77420000D01*
X39800000Y-62900000D02*
X45020000Y-68120000D01*
%TO.N,/DQ0*%
X38000000Y-69129999D02*
X38000000Y-62200000D01*
X39800000Y-60400000D02*
X39800000Y-60350000D01*
X38000000Y-62200000D02*
X39800000Y-60400000D01*
X43750000Y-74879999D02*
X38000000Y-69129999D01*
%TO.N,/A0*%
X42480000Y-74345686D02*
X37600000Y-69465686D01*
X37600000Y-69465686D02*
X37600000Y-60010000D01*
X42480000Y-77420000D02*
X42480000Y-74345686D01*
X37600000Y-60010000D02*
X39800000Y-57810000D01*
%TO.N,/GND*%
X47820000Y-77650000D02*
X47820000Y-64680000D01*
X47820000Y-64680000D02*
X49000000Y-63500000D01*
%TO.N,/VCC*%
X56300000Y-31370000D02*
X54800000Y-29870000D01*
X61800000Y-62400000D02*
X61800000Y-48800000D01*
X56300000Y-43300000D02*
X56300000Y-31370000D01*
X73220000Y-73820000D02*
X61800000Y-62400000D01*
X61800000Y-48800000D02*
X56300000Y-43300000D01*
X73220000Y-77650000D02*
X73220000Y-73820000D01*
%TD*%
%TA.AperFunction,Conductor*%
%TO.N,/GND*%
G36*
X38495111Y-29020185D02*
G01*
X38540866Y-29072989D01*
X38550810Y-29142147D01*
X38528390Y-29197386D01*
X38458768Y-29293211D01*
X38380128Y-29447552D01*
X38326597Y-29612302D01*
X38299500Y-29783389D01*
X38299500Y-29956610D01*
X38320078Y-30086540D01*
X38326598Y-30127701D01*
X38380127Y-30292445D01*
X38458768Y-30446788D01*
X38560586Y-30586928D01*
X38683072Y-30709414D01*
X38823212Y-30811232D01*
X38977555Y-30889873D01*
X39142299Y-30943402D01*
X39313389Y-30970500D01*
X39999903Y-30970500D01*
X40066942Y-30990185D01*
X40087584Y-31006819D01*
X40178584Y-31097819D01*
X40212069Y-31159142D01*
X40207085Y-31228834D01*
X40165213Y-31284767D01*
X40099749Y-31309184D01*
X40090903Y-31309500D01*
X39313389Y-31309500D01*
X39273728Y-31315781D01*
X39142302Y-31336597D01*
X38977552Y-31390128D01*
X38823211Y-31468768D01*
X38743256Y-31526859D01*
X38683072Y-31570586D01*
X38683070Y-31570588D01*
X38683069Y-31570588D01*
X38560588Y-31693069D01*
X38560588Y-31693070D01*
X38560586Y-31693072D01*
X38516859Y-31753256D01*
X38458768Y-31833211D01*
X38380128Y-31987552D01*
X38326597Y-32152302D01*
X38299500Y-32323389D01*
X38299500Y-32496611D01*
X38326598Y-32667701D01*
X38380127Y-32832445D01*
X38458768Y-32986788D01*
X38560586Y-33126928D01*
X38683072Y-33249414D01*
X38823212Y-33351232D01*
X38977555Y-33429873D01*
X39142299Y-33483402D01*
X39313389Y-33510500D01*
X39313390Y-33510500D01*
X40286610Y-33510500D01*
X40286611Y-33510500D01*
X40457701Y-33483402D01*
X40622445Y-33429873D01*
X40776788Y-33351232D01*
X40916928Y-33249414D01*
X41039414Y-33126928D01*
X41141232Y-32986788D01*
X41219873Y-32832445D01*
X41273402Y-32667701D01*
X41300286Y-32497957D01*
X41330215Y-32434824D01*
X41389526Y-32397892D01*
X41459389Y-32398890D01*
X41510440Y-32429675D01*
X53245139Y-44164374D01*
X53245149Y-44164385D01*
X53361285Y-44280521D01*
X53440032Y-44325984D01*
X53488248Y-44376551D01*
X53501472Y-44445158D01*
X53478352Y-44506257D01*
X53458767Y-44533212D01*
X53380128Y-44687552D01*
X53326597Y-44852302D01*
X53299500Y-45023389D01*
X53299500Y-45196611D01*
X53326598Y-45367701D01*
X53380127Y-45532445D01*
X53458768Y-45686788D01*
X53560586Y-45826928D01*
X53683072Y-45949414D01*
X53823212Y-46051232D01*
X53977555Y-46129873D01*
X54142299Y-46183402D01*
X54313389Y-46210500D01*
X54313390Y-46210500D01*
X55286610Y-46210500D01*
X55286611Y-46210500D01*
X55457701Y-46183402D01*
X55622445Y-46129873D01*
X55776788Y-46051232D01*
X55916928Y-45949414D01*
X56039414Y-45826928D01*
X56141232Y-45686788D01*
X56219873Y-45532445D01*
X56221923Y-45526134D01*
X56261356Y-45468461D01*
X56325713Y-45441260D01*
X56394560Y-45453171D01*
X56427535Y-45476770D01*
X60363181Y-49412416D01*
X60396666Y-49473739D01*
X60399500Y-49500097D01*
X60399500Y-66613330D01*
X60399499Y-66613348D01*
X60399499Y-66779054D01*
X60399498Y-66779054D01*
X60399499Y-66779057D01*
X60423867Y-66870000D01*
X60440423Y-66931784D01*
X60440424Y-66931787D01*
X60451012Y-66950127D01*
X60451013Y-66950128D01*
X60519475Y-67068709D01*
X60519481Y-67068717D01*
X60638349Y-67187585D01*
X60638355Y-67187590D01*
X66233181Y-72782416D01*
X66266666Y-72843739D01*
X66269500Y-72870097D01*
X66269500Y-73722814D01*
X66249815Y-73789853D01*
X66218387Y-73823131D01*
X66153072Y-73870585D01*
X66030588Y-73993069D01*
X66030588Y-73993070D01*
X66030586Y-73993072D01*
X65986859Y-74053256D01*
X65928768Y-74133211D01*
X65850128Y-74287552D01*
X65796597Y-74452302D01*
X65769500Y-74623389D01*
X65769500Y-75596610D01*
X65796597Y-75767697D01*
X65850129Y-75932450D01*
X65874299Y-75979888D01*
X65887195Y-76048558D01*
X65860918Y-76113298D01*
X65803811Y-76153554D01*
X65744418Y-76158655D01*
X65686611Y-76149500D01*
X65513389Y-76149500D01*
X65455581Y-76158655D01*
X65386288Y-76149700D01*
X65332837Y-76104703D01*
X65312198Y-76037951D01*
X65325700Y-75979887D01*
X65349873Y-75932445D01*
X65403402Y-75767701D01*
X65430500Y-75596611D01*
X65430500Y-74623389D01*
X65403402Y-74452299D01*
X65349873Y-74287555D01*
X65271232Y-74133212D01*
X65169414Y-73993072D01*
X65046928Y-73870586D01*
X64906788Y-73768768D01*
X64752445Y-73690127D01*
X64587701Y-73636598D01*
X64587699Y-73636597D01*
X64587698Y-73636597D01*
X64456271Y-73615781D01*
X64416611Y-73609500D01*
X64243389Y-73609500D01*
X64203728Y-73615781D01*
X64072302Y-73636597D01*
X63907552Y-73690128D01*
X63753211Y-73768768D01*
X63720352Y-73792642D01*
X63613072Y-73870586D01*
X63613070Y-73870588D01*
X63613069Y-73870588D01*
X63490588Y-73993069D01*
X63490588Y-73993070D01*
X63490586Y-73993072D01*
X63446859Y-74053256D01*
X63388768Y-74133211D01*
X63310128Y-74287552D01*
X63256597Y-74452302D01*
X63229500Y-74623389D01*
X63229500Y-75596610D01*
X63256597Y-75767697D01*
X63310129Y-75932450D01*
X63334299Y-75979888D01*
X63347195Y-76048558D01*
X63320918Y-76113298D01*
X63263811Y-76153554D01*
X63204418Y-76158655D01*
X63146611Y-76149500D01*
X62973389Y-76149500D01*
X62915581Y-76158655D01*
X62846288Y-76149700D01*
X62792837Y-76104703D01*
X62772198Y-76037951D01*
X62785700Y-75979887D01*
X62809873Y-75932445D01*
X62863402Y-75767701D01*
X62890500Y-75596611D01*
X62890500Y-74623389D01*
X62863402Y-74452299D01*
X62809873Y-74287555D01*
X62731232Y-74133212D01*
X62629414Y-73993072D01*
X62506928Y-73870586D01*
X62366788Y-73768768D01*
X62212445Y-73690127D01*
X62047701Y-73636598D01*
X62047699Y-73636597D01*
X62047698Y-73636597D01*
X61916271Y-73615781D01*
X61876611Y-73609500D01*
X61703389Y-73609500D01*
X61663728Y-73615781D01*
X61532302Y-73636597D01*
X61367552Y-73690128D01*
X61213211Y-73768768D01*
X61180352Y-73792642D01*
X61073072Y-73870586D01*
X61073070Y-73870588D01*
X61073069Y-73870588D01*
X60950588Y-73993069D01*
X60950588Y-73993070D01*
X60950586Y-73993072D01*
X60906859Y-74053256D01*
X60848768Y-74133211D01*
X60770128Y-74287552D01*
X60716597Y-74452302D01*
X60689500Y-74623389D01*
X60689500Y-75596610D01*
X60716597Y-75767697D01*
X60770129Y-75932450D01*
X60794299Y-75979888D01*
X60807195Y-76048558D01*
X60780918Y-76113298D01*
X60723811Y-76153554D01*
X60664418Y-76158655D01*
X60606611Y-76149500D01*
X60433389Y-76149500D01*
X60375581Y-76158655D01*
X60306288Y-76149700D01*
X60252837Y-76104703D01*
X60232198Y-76037951D01*
X60245700Y-75979887D01*
X60269873Y-75932445D01*
X60323402Y-75767701D01*
X60350500Y-75596611D01*
X60350500Y-74623389D01*
X60323402Y-74452299D01*
X60269873Y-74287555D01*
X60191232Y-74133212D01*
X60089414Y-73993072D01*
X59966928Y-73870586D01*
X59826788Y-73768768D01*
X59672445Y-73690127D01*
X59507701Y-73636598D01*
X59507699Y-73636597D01*
X59507698Y-73636597D01*
X59376271Y-73615781D01*
X59336611Y-73609500D01*
X59163389Y-73609500D01*
X59123728Y-73615781D01*
X58992302Y-73636597D01*
X58827552Y-73690128D01*
X58673211Y-73768768D01*
X58640352Y-73792642D01*
X58533072Y-73870586D01*
X58533070Y-73870588D01*
X58533069Y-73870588D01*
X58410588Y-73993069D01*
X58410588Y-73993070D01*
X58410586Y-73993072D01*
X58366859Y-74053256D01*
X58308768Y-74133211D01*
X58230128Y-74287552D01*
X58176597Y-74452302D01*
X58149500Y-74623389D01*
X58149500Y-75596610D01*
X58176597Y-75767697D01*
X58230129Y-75932450D01*
X58254299Y-75979888D01*
X58267195Y-76048558D01*
X58240918Y-76113298D01*
X58183811Y-76153554D01*
X58124418Y-76158655D01*
X58066611Y-76149500D01*
X57893389Y-76149500D01*
X57835581Y-76158655D01*
X57766288Y-76149700D01*
X57712837Y-76104703D01*
X57692198Y-76037951D01*
X57705700Y-75979887D01*
X57729873Y-75932445D01*
X57783402Y-75767701D01*
X57810500Y-75596611D01*
X57810500Y-74623389D01*
X57783402Y-74452299D01*
X57729873Y-74287555D01*
X57651232Y-74133212D01*
X57549414Y-73993072D01*
X57426928Y-73870586D01*
X57286788Y-73768768D01*
X57132445Y-73690127D01*
X56967701Y-73636598D01*
X56967699Y-73636597D01*
X56967698Y-73636597D01*
X56836271Y-73615781D01*
X56796611Y-73609500D01*
X56623389Y-73609500D01*
X56583728Y-73615781D01*
X56452302Y-73636597D01*
X56287552Y-73690128D01*
X56133211Y-73768768D01*
X56100352Y-73792642D01*
X55993072Y-73870586D01*
X55993070Y-73870588D01*
X55993069Y-73870588D01*
X55870588Y-73993069D01*
X55870588Y-73993070D01*
X55870586Y-73993072D01*
X55826859Y-74053256D01*
X55768768Y-74133211D01*
X55690128Y-74287552D01*
X55636597Y-74452302D01*
X55609500Y-74623389D01*
X55609500Y-75596610D01*
X55636597Y-75767697D01*
X55690129Y-75932450D01*
X55714299Y-75979888D01*
X55727195Y-76048558D01*
X55700918Y-76113298D01*
X55643811Y-76153554D01*
X55584418Y-76158655D01*
X55526611Y-76149500D01*
X55353389Y-76149500D01*
X55295581Y-76158655D01*
X55226288Y-76149700D01*
X55172837Y-76104703D01*
X55152198Y-76037951D01*
X55165700Y-75979887D01*
X55189873Y-75932445D01*
X55243402Y-75767701D01*
X55270500Y-75596611D01*
X55270500Y-74623389D01*
X55243402Y-74452299D01*
X55189873Y-74287555D01*
X55111232Y-74133212D01*
X55009414Y-73993072D01*
X54886928Y-73870586D01*
X54746788Y-73768768D01*
X54592445Y-73690127D01*
X54427701Y-73636598D01*
X54427699Y-73636597D01*
X54427698Y-73636597D01*
X54296271Y-73615781D01*
X54256611Y-73609500D01*
X54083389Y-73609500D01*
X54043728Y-73615781D01*
X53912302Y-73636597D01*
X53747552Y-73690128D01*
X53593211Y-73768768D01*
X53560352Y-73792642D01*
X53453072Y-73870586D01*
X53453070Y-73870588D01*
X53453069Y-73870588D01*
X53330588Y-73993069D01*
X53330588Y-73993070D01*
X53330586Y-73993072D01*
X53286859Y-74053256D01*
X53228768Y-74133211D01*
X53150128Y-74287552D01*
X53096597Y-74452302D01*
X53069500Y-74623389D01*
X53069500Y-75596610D01*
X53096597Y-75767697D01*
X53150129Y-75932450D01*
X53174299Y-75979888D01*
X53187195Y-76048558D01*
X53160918Y-76113298D01*
X53103811Y-76153554D01*
X53044418Y-76158655D01*
X52986611Y-76149500D01*
X52813389Y-76149500D01*
X52755581Y-76158655D01*
X52686288Y-76149700D01*
X52632837Y-76104703D01*
X52612198Y-76037951D01*
X52625700Y-75979887D01*
X52649873Y-75932445D01*
X52703402Y-75767701D01*
X52730500Y-75596611D01*
X52730500Y-74623389D01*
X52703402Y-74452299D01*
X52649873Y-74287555D01*
X52571232Y-74133212D01*
X52469414Y-73993072D01*
X52346928Y-73870586D01*
X52206788Y-73768768D01*
X52052445Y-73690127D01*
X51887701Y-73636598D01*
X51887699Y-73636597D01*
X51887698Y-73636597D01*
X51756271Y-73615781D01*
X51716611Y-73609500D01*
X51543389Y-73609500D01*
X51503728Y-73615781D01*
X51372302Y-73636597D01*
X51207552Y-73690128D01*
X51053211Y-73768768D01*
X51020352Y-73792642D01*
X50913072Y-73870586D01*
X50913070Y-73870588D01*
X50913069Y-73870588D01*
X50790588Y-73993069D01*
X50790588Y-73993070D01*
X50790586Y-73993072D01*
X50746859Y-74053256D01*
X50688768Y-74133211D01*
X50610128Y-74287552D01*
X50556597Y-74452302D01*
X50529500Y-74623389D01*
X50529500Y-75596610D01*
X50556597Y-75767697D01*
X50610129Y-75932450D01*
X50634299Y-75979888D01*
X50647195Y-76048558D01*
X50620918Y-76113298D01*
X50563811Y-76153554D01*
X50504418Y-76158655D01*
X50446611Y-76149500D01*
X50273389Y-76149500D01*
X50215581Y-76158655D01*
X50146288Y-76149700D01*
X50092837Y-76104703D01*
X50072198Y-76037951D01*
X50085700Y-75979887D01*
X50109873Y-75932445D01*
X50163402Y-75767701D01*
X50190500Y-75596611D01*
X50190500Y-74623389D01*
X50163402Y-74452299D01*
X50109873Y-74287555D01*
X50031232Y-74133212D01*
X49929414Y-73993072D01*
X49806928Y-73870586D01*
X49666788Y-73768768D01*
X49512445Y-73690127D01*
X49347701Y-73636598D01*
X49347699Y-73636597D01*
X49347698Y-73636597D01*
X49216271Y-73615781D01*
X49176611Y-73609500D01*
X49003389Y-73609500D01*
X48963728Y-73615781D01*
X48832302Y-73636597D01*
X48667552Y-73690128D01*
X48513211Y-73768768D01*
X48480352Y-73792642D01*
X48373072Y-73870586D01*
X48373070Y-73870588D01*
X48373069Y-73870588D01*
X48250588Y-73993069D01*
X48250588Y-73993070D01*
X48250586Y-73993072D01*
X48206859Y-74053256D01*
X48148768Y-74133211D01*
X48070128Y-74287552D01*
X48016597Y-74452302D01*
X47989500Y-74623389D01*
X47989500Y-75596610D01*
X48016597Y-75767697D01*
X48070129Y-75932450D01*
X48094580Y-75980439D01*
X48107476Y-76049108D01*
X48081199Y-76113849D01*
X48024092Y-76154105D01*
X47964698Y-76159206D01*
X47906572Y-76150000D01*
X47733428Y-76150000D01*
X47675301Y-76159206D01*
X47606008Y-76150251D01*
X47552556Y-76105255D01*
X47531917Y-76038503D01*
X47545420Y-75980437D01*
X47569871Y-75932449D01*
X47569872Y-75932447D01*
X47569873Y-75932445D01*
X47623402Y-75767701D01*
X47650500Y-75596611D01*
X47650500Y-74623389D01*
X47623402Y-74452299D01*
X47569873Y-74287555D01*
X47491232Y-74133212D01*
X47389414Y-73993072D01*
X47266928Y-73870586D01*
X47126788Y-73768768D01*
X46972445Y-73690127D01*
X46807701Y-73636598D01*
X46807699Y-73636597D01*
X46807698Y-73636597D01*
X46676271Y-73615781D01*
X46636611Y-73609500D01*
X46463389Y-73609500D01*
X46423728Y-73615781D01*
X46292302Y-73636597D01*
X46127552Y-73690128D01*
X45973211Y-73768768D01*
X45940352Y-73792642D01*
X45833072Y-73870586D01*
X45833070Y-73870588D01*
X45833069Y-73870588D01*
X45832181Y-73871477D01*
X45831760Y-73871706D01*
X45829368Y-73873750D01*
X45828938Y-73873247D01*
X45770858Y-73904962D01*
X45701166Y-73899978D01*
X45645233Y-73858106D01*
X45620816Y-73792642D01*
X45620500Y-73783796D01*
X45620500Y-68209060D01*
X45620501Y-68209047D01*
X45620501Y-68056610D01*
X53299500Y-68056610D01*
X53323645Y-68209060D01*
X53326598Y-68227701D01*
X53380127Y-68392445D01*
X53458768Y-68546788D01*
X53560586Y-68686928D01*
X53683072Y-68809414D01*
X53823212Y-68911232D01*
X53977555Y-68989873D01*
X54142299Y-69043402D01*
X54313389Y-69070500D01*
X54313390Y-69070500D01*
X55286610Y-69070500D01*
X55286611Y-69070500D01*
X55457701Y-69043402D01*
X55622445Y-68989873D01*
X55776788Y-68911232D01*
X55916928Y-68809414D01*
X56039414Y-68686928D01*
X56141232Y-68546788D01*
X56219873Y-68392445D01*
X56273402Y-68227701D01*
X56300500Y-68056611D01*
X56300500Y-67883389D01*
X56273402Y-67712299D01*
X56219873Y-67547555D01*
X56141232Y-67393212D01*
X56039414Y-67253072D01*
X55916928Y-67130586D01*
X55776788Y-67028768D01*
X55622445Y-66950127D01*
X55457701Y-66896598D01*
X55457699Y-66896597D01*
X55457698Y-66896597D01*
X55326271Y-66875781D01*
X55286611Y-66869500D01*
X54313389Y-66869500D01*
X54273728Y-66875781D01*
X54142302Y-66896597D01*
X54142299Y-66896598D01*
X54034009Y-66931784D01*
X53977552Y-66950128D01*
X53823211Y-67028768D01*
X53768238Y-67068709D01*
X53683072Y-67130586D01*
X53683070Y-67130588D01*
X53683069Y-67130588D01*
X53560588Y-67253069D01*
X53560588Y-67253070D01*
X53560586Y-67253072D01*
X53560350Y-67253397D01*
X53458768Y-67393211D01*
X53380128Y-67547552D01*
X53326597Y-67712302D01*
X53299500Y-67883389D01*
X53299500Y-68056610D01*
X45620501Y-68056610D01*
X45620501Y-68040945D01*
X45620501Y-68040943D01*
X45579577Y-67888215D01*
X45500520Y-67751284D01*
X43265845Y-65516610D01*
X53299500Y-65516610D01*
X53326597Y-65687697D01*
X53326597Y-65687699D01*
X53326598Y-65687701D01*
X53380127Y-65852445D01*
X53458768Y-66006788D01*
X53560586Y-66146928D01*
X53683072Y-66269414D01*
X53823212Y-66371232D01*
X53977555Y-66449873D01*
X54142299Y-66503402D01*
X54313389Y-66530500D01*
X54313390Y-66530500D01*
X55286610Y-66530500D01*
X55286611Y-66530500D01*
X55457701Y-66503402D01*
X55622445Y-66449873D01*
X55776788Y-66371232D01*
X55916928Y-66269414D01*
X56039414Y-66146928D01*
X56141232Y-66006788D01*
X56219873Y-65852445D01*
X56273402Y-65687701D01*
X56300500Y-65516611D01*
X56300500Y-65343389D01*
X56273402Y-65172299D01*
X56219873Y-65007555D01*
X56141232Y-64853212D01*
X56039414Y-64713072D01*
X55916928Y-64590586D01*
X55776788Y-64488768D01*
X55622445Y-64410127D01*
X55457701Y-64356598D01*
X55457699Y-64356597D01*
X55457698Y-64356597D01*
X55326271Y-64335781D01*
X55286611Y-64329500D01*
X54313389Y-64329500D01*
X54273728Y-64335781D01*
X54142302Y-64356597D01*
X53977552Y-64410128D01*
X53823211Y-64488768D01*
X53743256Y-64546859D01*
X53683072Y-64590586D01*
X53683070Y-64590588D01*
X53683069Y-64590588D01*
X53560588Y-64713069D01*
X53560588Y-64713070D01*
X53560586Y-64713072D01*
X53516859Y-64773256D01*
X53458768Y-64853211D01*
X53380128Y-65007552D01*
X53326597Y-65172302D01*
X53299500Y-65343389D01*
X53299500Y-65516610D01*
X43265845Y-65516610D01*
X41230179Y-63480944D01*
X41196695Y-63419622D01*
X41201679Y-63349930D01*
X41207372Y-63336978D01*
X41219873Y-63312445D01*
X41273402Y-63147701D01*
X41300500Y-62976611D01*
X53299500Y-62976611D01*
X53326598Y-63147701D01*
X53380127Y-63312445D01*
X53458768Y-63466788D01*
X53560586Y-63606928D01*
X53683072Y-63729414D01*
X53823212Y-63831232D01*
X53977555Y-63909873D01*
X54142299Y-63963402D01*
X54313389Y-63990500D01*
X54313390Y-63990500D01*
X55286610Y-63990500D01*
X55286611Y-63990500D01*
X55457701Y-63963402D01*
X55622445Y-63909873D01*
X55776788Y-63831232D01*
X55916928Y-63729414D01*
X56039414Y-63606928D01*
X56141232Y-63466788D01*
X56219873Y-63312445D01*
X56273402Y-63147701D01*
X56300500Y-62976611D01*
X56300500Y-62803389D01*
X56273402Y-62632299D01*
X56219873Y-62467555D01*
X56141232Y-62313212D01*
X56039414Y-62173072D01*
X55916928Y-62050586D01*
X55776788Y-61948768D01*
X55622445Y-61870127D01*
X55457701Y-61816598D01*
X55457699Y-61816597D01*
X55457698Y-61816597D01*
X55326271Y-61795781D01*
X55286611Y-61789500D01*
X54313389Y-61789500D01*
X54273728Y-61795781D01*
X54142302Y-61816597D01*
X53977552Y-61870128D01*
X53823211Y-61948768D01*
X53743256Y-62006859D01*
X53683072Y-62050586D01*
X53683070Y-62050588D01*
X53683069Y-62050588D01*
X53560588Y-62173069D01*
X53560588Y-62173070D01*
X53560586Y-62173072D01*
X53516859Y-62233256D01*
X53458768Y-62313211D01*
X53380128Y-62467552D01*
X53326597Y-62632302D01*
X53299500Y-62803389D01*
X53299500Y-62976611D01*
X41300500Y-62976611D01*
X41300500Y-62803389D01*
X41273402Y-62632299D01*
X41219873Y-62467555D01*
X41141232Y-62313212D01*
X41039414Y-62173072D01*
X40916928Y-62050586D01*
X40776788Y-61948768D01*
X40622445Y-61870127D01*
X40457701Y-61816598D01*
X40457699Y-61816597D01*
X40457698Y-61816597D01*
X40326271Y-61795781D01*
X40286611Y-61789500D01*
X39559097Y-61789500D01*
X39492058Y-61769815D01*
X39446303Y-61717011D01*
X39436359Y-61647853D01*
X39465384Y-61584297D01*
X39471416Y-61577819D01*
X39562416Y-61486819D01*
X39623739Y-61453334D01*
X39650097Y-61450500D01*
X40286610Y-61450500D01*
X40286611Y-61450500D01*
X40457701Y-61423402D01*
X40622445Y-61369873D01*
X40776788Y-61291232D01*
X40916928Y-61189414D01*
X41039414Y-61066928D01*
X41141232Y-60926788D01*
X41219873Y-60772445D01*
X41273402Y-60607701D01*
X41300500Y-60436611D01*
X53299500Y-60436611D01*
X53326598Y-60607701D01*
X53380127Y-60772445D01*
X53458768Y-60926788D01*
X53560586Y-61066928D01*
X53683072Y-61189414D01*
X53823212Y-61291232D01*
X53977555Y-61369873D01*
X54142299Y-61423402D01*
X54313389Y-61450500D01*
X54313390Y-61450500D01*
X55286610Y-61450500D01*
X55286611Y-61450500D01*
X55457701Y-61423402D01*
X55622445Y-61369873D01*
X55776788Y-61291232D01*
X55916928Y-61189414D01*
X56039414Y-61066928D01*
X56141232Y-60926788D01*
X56219873Y-60772445D01*
X56273402Y-60607701D01*
X56300500Y-60436611D01*
X56300500Y-60263389D01*
X56273402Y-60092299D01*
X56219873Y-59927555D01*
X56141232Y-59773212D01*
X56039414Y-59633072D01*
X55916928Y-59510586D01*
X55776788Y-59408768D01*
X55622445Y-59330127D01*
X55457701Y-59276598D01*
X55457699Y-59276597D01*
X55457698Y-59276597D01*
X55326271Y-59255781D01*
X55286611Y-59249500D01*
X54313389Y-59249500D01*
X54273728Y-59255781D01*
X54142302Y-59276597D01*
X53977552Y-59330128D01*
X53823211Y-59408768D01*
X53743256Y-59466859D01*
X53683072Y-59510586D01*
X53683070Y-59510588D01*
X53683069Y-59510588D01*
X53560588Y-59633069D01*
X53560588Y-59633070D01*
X53560586Y-59633072D01*
X53554620Y-59641284D01*
X53458768Y-59773211D01*
X53380128Y-59927552D01*
X53326597Y-60092302D01*
X53300237Y-60258735D01*
X53299500Y-60263389D01*
X53299500Y-60436611D01*
X41300500Y-60436611D01*
X41300500Y-60263389D01*
X41273402Y-60092299D01*
X41219873Y-59927555D01*
X41141232Y-59773212D01*
X41039414Y-59633072D01*
X40916928Y-59510586D01*
X40776788Y-59408768D01*
X40622445Y-59330127D01*
X40457701Y-59276598D01*
X40457699Y-59276597D01*
X40457698Y-59276597D01*
X40326271Y-59255781D01*
X40286611Y-59249500D01*
X39509097Y-59249500D01*
X39442058Y-59229815D01*
X39396303Y-59177011D01*
X39386359Y-59107853D01*
X39415384Y-59044297D01*
X39421416Y-59037819D01*
X39512416Y-58946819D01*
X39573739Y-58913334D01*
X39600097Y-58910500D01*
X40286610Y-58910500D01*
X40286611Y-58910500D01*
X40457701Y-58883402D01*
X40622445Y-58829873D01*
X40776788Y-58751232D01*
X40916928Y-58649414D01*
X41039414Y-58526928D01*
X41141232Y-58386788D01*
X41219873Y-58232445D01*
X41273402Y-58067701D01*
X41300500Y-57896611D01*
X53299500Y-57896611D01*
X53326598Y-58067701D01*
X53380127Y-58232445D01*
X53458768Y-58386788D01*
X53560586Y-58526928D01*
X53683072Y-58649414D01*
X53823212Y-58751232D01*
X53977555Y-58829873D01*
X54142299Y-58883402D01*
X54313389Y-58910500D01*
X54313390Y-58910500D01*
X55286610Y-58910500D01*
X55286611Y-58910500D01*
X55457701Y-58883402D01*
X55622445Y-58829873D01*
X55776788Y-58751232D01*
X55916928Y-58649414D01*
X56039414Y-58526928D01*
X56141232Y-58386788D01*
X56219873Y-58232445D01*
X56273402Y-58067701D01*
X56300500Y-57896611D01*
X56300500Y-57723389D01*
X56273402Y-57552299D01*
X56219873Y-57387555D01*
X56141232Y-57233212D01*
X56039414Y-57093072D01*
X55916928Y-56970586D01*
X55776788Y-56868768D01*
X55622445Y-56790127D01*
X55457701Y-56736598D01*
X55457699Y-56736597D01*
X55457698Y-56736597D01*
X55326271Y-56715781D01*
X55286611Y-56709500D01*
X54313389Y-56709500D01*
X54273728Y-56715781D01*
X54142302Y-56736597D01*
X53977552Y-56790128D01*
X53823211Y-56868768D01*
X53743256Y-56926859D01*
X53683072Y-56970586D01*
X53683070Y-56970588D01*
X53683069Y-56970588D01*
X53560588Y-57093069D01*
X53560588Y-57093070D01*
X53560586Y-57093072D01*
X53516859Y-57153256D01*
X53458768Y-57233211D01*
X53380128Y-57387552D01*
X53326597Y-57552302D01*
X53299500Y-57723389D01*
X53299500Y-57896611D01*
X41300500Y-57896611D01*
X41300500Y-57723389D01*
X41273402Y-57552299D01*
X41219873Y-57387555D01*
X41141232Y-57233212D01*
X41039414Y-57093072D01*
X40916928Y-56970586D01*
X40776788Y-56868768D01*
X40622445Y-56790127D01*
X40457701Y-56736598D01*
X40457699Y-56736597D01*
X40457698Y-56736597D01*
X40326271Y-56715781D01*
X40286611Y-56709500D01*
X39313389Y-56709500D01*
X39273728Y-56715781D01*
X39142302Y-56736597D01*
X38977552Y-56790128D01*
X38823211Y-56868768D01*
X38743256Y-56926859D01*
X38683072Y-56970586D01*
X38683070Y-56970588D01*
X38683069Y-56970588D01*
X38560588Y-57093069D01*
X38560588Y-57093070D01*
X38560586Y-57093072D01*
X38516859Y-57153256D01*
X38458768Y-57233211D01*
X38380128Y-57387552D01*
X38326597Y-57552302D01*
X38299500Y-57723389D01*
X38299500Y-57896610D01*
X38326597Y-58067697D01*
X38380126Y-58232442D01*
X38380128Y-58232447D01*
X38389248Y-58250346D01*
X38402143Y-58319015D01*
X38375866Y-58383755D01*
X38366443Y-58394320D01*
X37231286Y-59529478D01*
X37119481Y-59641282D01*
X37119479Y-59641285D01*
X37069361Y-59728094D01*
X37069359Y-59728096D01*
X37040425Y-59778209D01*
X37040424Y-59778210D01*
X37040423Y-59778215D01*
X36999499Y-59930943D01*
X36999499Y-59930945D01*
X36999499Y-60099046D01*
X36999500Y-60099059D01*
X36999500Y-69379016D01*
X36999499Y-69379034D01*
X36999499Y-69544740D01*
X36999498Y-69544740D01*
X37040423Y-69697471D01*
X37059492Y-69730499D01*
X37059491Y-69730499D01*
X37059492Y-69730500D01*
X37119475Y-69834395D01*
X37119481Y-69834403D01*
X37238349Y-69953271D01*
X37238355Y-69953276D01*
X40883588Y-73598509D01*
X40917073Y-73659832D01*
X40912089Y-73729524D01*
X40870217Y-73785457D01*
X40868794Y-73786507D01*
X40753072Y-73870585D01*
X40630588Y-73993069D01*
X40630588Y-73993070D01*
X40630586Y-73993072D01*
X40586859Y-74053256D01*
X40528768Y-74133211D01*
X40450128Y-74287552D01*
X40396597Y-74452302D01*
X40369500Y-74623389D01*
X40369500Y-75596610D01*
X40396597Y-75767697D01*
X40450129Y-75932450D01*
X40474299Y-75979888D01*
X40487195Y-76048558D01*
X40460918Y-76113298D01*
X40403811Y-76153554D01*
X40344418Y-76158655D01*
X40286611Y-76149500D01*
X40113389Y-76149500D01*
X40055581Y-76158655D01*
X39986288Y-76149700D01*
X39932837Y-76104703D01*
X39912198Y-76037951D01*
X39925700Y-75979887D01*
X39949873Y-75932445D01*
X40003402Y-75767701D01*
X40030500Y-75596611D01*
X40030500Y-74623389D01*
X40003402Y-74452299D01*
X39949873Y-74287555D01*
X39871232Y-74133212D01*
X39769414Y-73993072D01*
X39646928Y-73870586D01*
X39506788Y-73768768D01*
X39352445Y-73690127D01*
X39187701Y-73636598D01*
X39187699Y-73636597D01*
X39187698Y-73636597D01*
X39056271Y-73615781D01*
X39016611Y-73609500D01*
X38843389Y-73609500D01*
X38803728Y-73615781D01*
X38672302Y-73636597D01*
X38507552Y-73690128D01*
X38353211Y-73768768D01*
X38320352Y-73792642D01*
X38213072Y-73870586D01*
X38213070Y-73870588D01*
X38213069Y-73870588D01*
X38090588Y-73993069D01*
X38090588Y-73993070D01*
X38090586Y-73993072D01*
X38046859Y-74053256D01*
X37988768Y-74133211D01*
X37910128Y-74287552D01*
X37856597Y-74452302D01*
X37829500Y-74623389D01*
X37829500Y-75596610D01*
X37856597Y-75767697D01*
X37910129Y-75932450D01*
X37934299Y-75979888D01*
X37947195Y-76048558D01*
X37920918Y-76113298D01*
X37863811Y-76153554D01*
X37804418Y-76158655D01*
X37746611Y-76149500D01*
X37573389Y-76149500D01*
X37515581Y-76158655D01*
X37446288Y-76149700D01*
X37392837Y-76104703D01*
X37372198Y-76037951D01*
X37385700Y-75979887D01*
X37409873Y-75932445D01*
X37463402Y-75767701D01*
X37490500Y-75596611D01*
X37490500Y-74623389D01*
X37463402Y-74452299D01*
X37409873Y-74287555D01*
X37331232Y-74133212D01*
X37229414Y-73993072D01*
X37106928Y-73870586D01*
X36966788Y-73768768D01*
X36812445Y-73690127D01*
X36647701Y-73636598D01*
X36647699Y-73636597D01*
X36647698Y-73636597D01*
X36516271Y-73615781D01*
X36476611Y-73609500D01*
X36303389Y-73609500D01*
X36263728Y-73615781D01*
X36132302Y-73636597D01*
X35967552Y-73690128D01*
X35813211Y-73768768D01*
X35780352Y-73792642D01*
X35673072Y-73870586D01*
X35673070Y-73870588D01*
X35673069Y-73870588D01*
X35550588Y-73993069D01*
X35550588Y-73993070D01*
X35550586Y-73993072D01*
X35506859Y-74053256D01*
X35448768Y-74133211D01*
X35370128Y-74287552D01*
X35316597Y-74452302D01*
X35289500Y-74623389D01*
X35289500Y-75596610D01*
X35316597Y-75767697D01*
X35370129Y-75932450D01*
X35394299Y-75979888D01*
X35407195Y-76048558D01*
X35380918Y-76113298D01*
X35323811Y-76153554D01*
X35264418Y-76158655D01*
X35206611Y-76149500D01*
X35033389Y-76149500D01*
X34975581Y-76158655D01*
X34906288Y-76149700D01*
X34852837Y-76104703D01*
X34832198Y-76037951D01*
X34845700Y-75979887D01*
X34869873Y-75932445D01*
X34923402Y-75767701D01*
X34950500Y-75596611D01*
X34950500Y-74623389D01*
X34923402Y-74452299D01*
X34869873Y-74287555D01*
X34791232Y-74133212D01*
X34689414Y-73993072D01*
X34566928Y-73870586D01*
X34426788Y-73768768D01*
X34272445Y-73690127D01*
X34107701Y-73636598D01*
X34107699Y-73636597D01*
X34107698Y-73636597D01*
X33976271Y-73615781D01*
X33936611Y-73609500D01*
X33763389Y-73609500D01*
X33723728Y-73615781D01*
X33592302Y-73636597D01*
X33427552Y-73690128D01*
X33273211Y-73768768D01*
X33240352Y-73792642D01*
X33133072Y-73870586D01*
X33133070Y-73870588D01*
X33133069Y-73870588D01*
X33010588Y-73993069D01*
X33010588Y-73993070D01*
X33010586Y-73993072D01*
X32966859Y-74053256D01*
X32908768Y-74133211D01*
X32830128Y-74287552D01*
X32776597Y-74452302D01*
X32749500Y-74623389D01*
X32749500Y-75596610D01*
X32776597Y-75767697D01*
X32830129Y-75932450D01*
X32854299Y-75979888D01*
X32867195Y-76048558D01*
X32840918Y-76113298D01*
X32783811Y-76153554D01*
X32724418Y-76158655D01*
X32666611Y-76149500D01*
X32493389Y-76149500D01*
X32435581Y-76158655D01*
X32366288Y-76149700D01*
X32312837Y-76104703D01*
X32292198Y-76037951D01*
X32305700Y-75979887D01*
X32329873Y-75932445D01*
X32383402Y-75767701D01*
X32410500Y-75596611D01*
X32410500Y-74623389D01*
X32383402Y-74452299D01*
X32329873Y-74287555D01*
X32251232Y-74133212D01*
X32149414Y-73993072D01*
X32026928Y-73870586D01*
X31886788Y-73768768D01*
X31732445Y-73690127D01*
X31567701Y-73636598D01*
X31567699Y-73636597D01*
X31567698Y-73636597D01*
X31436271Y-73615781D01*
X31396611Y-73609500D01*
X31223389Y-73609500D01*
X31183728Y-73615781D01*
X31052302Y-73636597D01*
X30887552Y-73690128D01*
X30733211Y-73768768D01*
X30700352Y-73792642D01*
X30593072Y-73870586D01*
X30593070Y-73870588D01*
X30593069Y-73870588D01*
X30470588Y-73993069D01*
X30470588Y-73993070D01*
X30470586Y-73993072D01*
X30426859Y-74053256D01*
X30368768Y-74133211D01*
X30290128Y-74287552D01*
X30236597Y-74452302D01*
X30209500Y-74623389D01*
X30209500Y-75596610D01*
X30236597Y-75767697D01*
X30290129Y-75932450D01*
X30314299Y-75979888D01*
X30327195Y-76048558D01*
X30300918Y-76113298D01*
X30243811Y-76153554D01*
X30184418Y-76158655D01*
X30126611Y-76149500D01*
X29953389Y-76149500D01*
X29895581Y-76158655D01*
X29826288Y-76149700D01*
X29772837Y-76104703D01*
X29752198Y-76037951D01*
X29765700Y-75979887D01*
X29789873Y-75932445D01*
X29843402Y-75767701D01*
X29870500Y-75596611D01*
X29870500Y-74623389D01*
X29843402Y-74452299D01*
X29789873Y-74287555D01*
X29711232Y-74133212D01*
X29609414Y-73993072D01*
X29486928Y-73870586D01*
X29346788Y-73768768D01*
X29192445Y-73690127D01*
X29027701Y-73636598D01*
X29027699Y-73636597D01*
X29027698Y-73636597D01*
X28896271Y-73615781D01*
X28856611Y-73609500D01*
X28683389Y-73609500D01*
X28643728Y-73615781D01*
X28512302Y-73636597D01*
X28347552Y-73690128D01*
X28193211Y-73768768D01*
X28160352Y-73792642D01*
X28053072Y-73870586D01*
X28053070Y-73870588D01*
X28053069Y-73870588D01*
X27930588Y-73993069D01*
X27930588Y-73993070D01*
X27930586Y-73993072D01*
X27886859Y-74053256D01*
X27828768Y-74133211D01*
X27750128Y-74287552D01*
X27696597Y-74452302D01*
X27669500Y-74623389D01*
X27669500Y-75596610D01*
X27696597Y-75767697D01*
X27750129Y-75932450D01*
X27774299Y-75979888D01*
X27787195Y-76048558D01*
X27760918Y-76113298D01*
X27703811Y-76153554D01*
X27644418Y-76158655D01*
X27586611Y-76149500D01*
X27413389Y-76149500D01*
X27354969Y-76158752D01*
X27285678Y-76149797D01*
X27232226Y-76104800D01*
X27211587Y-76038049D01*
X27225090Y-75979983D01*
X27249407Y-75932259D01*
X27302914Y-75767584D01*
X27330000Y-75596571D01*
X27330000Y-74623428D01*
X27302913Y-74452414D01*
X27287763Y-74405788D01*
X26630000Y-75063552D01*
X26630000Y-75057339D01*
X26602741Y-74955606D01*
X26550080Y-74864394D01*
X26475606Y-74789920D01*
X26384394Y-74737259D01*
X26282661Y-74710000D01*
X26276447Y-74710000D01*
X27031041Y-73955406D01*
X26946602Y-73870967D01*
X26806524Y-73769195D01*
X26652257Y-73690591D01*
X26487584Y-73637085D01*
X26316571Y-73610000D01*
X26143429Y-73610000D01*
X25972415Y-73637085D01*
X25807742Y-73690591D01*
X25653475Y-73769195D01*
X25513397Y-73870967D01*
X25428959Y-73955406D01*
X26183553Y-74710000D01*
X26177339Y-74710000D01*
X26075606Y-74737259D01*
X25984394Y-74789920D01*
X25909920Y-74864394D01*
X25857259Y-74955606D01*
X25830000Y-75057339D01*
X25830000Y-75063552D01*
X25172235Y-74405787D01*
X25157087Y-74452411D01*
X25157084Y-74452423D01*
X25130000Y-74623428D01*
X25130000Y-75596571D01*
X25157085Y-75767582D01*
X25172235Y-75814211D01*
X25830000Y-75156446D01*
X25830000Y-75162661D01*
X25857259Y-75264394D01*
X25909920Y-75355606D01*
X25984394Y-75430080D01*
X26075606Y-75482741D01*
X26177339Y-75510000D01*
X26183553Y-75510000D01*
X25428959Y-76264594D01*
X25513397Y-76349032D01*
X25653475Y-76450804D01*
X25807742Y-76529408D01*
X25972415Y-76582914D01*
X26143429Y-76610000D01*
X26316570Y-76610000D01*
X26374696Y-76600793D01*
X26443989Y-76609747D01*
X26497442Y-76654743D01*
X26518082Y-76721494D01*
X26504581Y-76779559D01*
X26480128Y-76827551D01*
X26426597Y-76992302D01*
X26405659Y-77124500D01*
X26399500Y-77163389D01*
X26399500Y-78136611D01*
X26402379Y-78154788D01*
X26426579Y-78307585D01*
X26426598Y-78307701D01*
X26480127Y-78472445D01*
X26558768Y-78626788D01*
X26660586Y-78766928D01*
X26783072Y-78889414D01*
X26923212Y-78991232D01*
X27077555Y-79069873D01*
X27242299Y-79123402D01*
X27413389Y-79150500D01*
X27413390Y-79150500D01*
X27586610Y-79150500D01*
X27586611Y-79150500D01*
X27757701Y-79123402D01*
X27922445Y-79069873D01*
X28076788Y-78991232D01*
X28216928Y-78889414D01*
X28339414Y-78766928D01*
X28441232Y-78626788D01*
X28519873Y-78472445D01*
X28573402Y-78307701D01*
X28600500Y-78136611D01*
X28600500Y-77163389D01*
X28573402Y-76992299D01*
X28519873Y-76827555D01*
X28519870Y-76827549D01*
X28495700Y-76780111D01*
X28482804Y-76711442D01*
X28509081Y-76646702D01*
X28566187Y-76606445D01*
X28625581Y-76601344D01*
X28683389Y-76610500D01*
X28683390Y-76610500D01*
X28856609Y-76610500D01*
X28856611Y-76610500D01*
X28914417Y-76601344D01*
X28983709Y-76610298D01*
X29037161Y-76655294D01*
X29057801Y-76722045D01*
X29044300Y-76780110D01*
X29020128Y-76827551D01*
X28966597Y-76992302D01*
X28945659Y-77124500D01*
X28939500Y-77163389D01*
X28939500Y-78136611D01*
X28942379Y-78154788D01*
X28966579Y-78307585D01*
X28966598Y-78307701D01*
X29020127Y-78472445D01*
X29098768Y-78626788D01*
X29200586Y-78766928D01*
X29323072Y-78889414D01*
X29463212Y-78991232D01*
X29617555Y-79069873D01*
X29782299Y-79123402D01*
X29953389Y-79150500D01*
X29953390Y-79150500D01*
X30126610Y-79150500D01*
X30126611Y-79150500D01*
X30297701Y-79123402D01*
X30462445Y-79069873D01*
X30616788Y-78991232D01*
X30756928Y-78889414D01*
X30879414Y-78766928D01*
X30981232Y-78626788D01*
X31059873Y-78472445D01*
X31113402Y-78307701D01*
X31140500Y-78136611D01*
X31140500Y-77163389D01*
X31113402Y-76992299D01*
X31059873Y-76827555D01*
X31059870Y-76827549D01*
X31035700Y-76780111D01*
X31022804Y-76711442D01*
X31049081Y-76646702D01*
X31106187Y-76606445D01*
X31165581Y-76601344D01*
X31223389Y-76610500D01*
X31223390Y-76610500D01*
X31396609Y-76610500D01*
X31396611Y-76610500D01*
X31454417Y-76601344D01*
X31523709Y-76610298D01*
X31577161Y-76655294D01*
X31597801Y-76722045D01*
X31584300Y-76780110D01*
X31560128Y-76827551D01*
X31506597Y-76992302D01*
X31485659Y-77124500D01*
X31479500Y-77163389D01*
X31479500Y-78136611D01*
X31482379Y-78154788D01*
X31506579Y-78307585D01*
X31506598Y-78307701D01*
X31560127Y-78472445D01*
X31638768Y-78626788D01*
X31740586Y-78766928D01*
X31863072Y-78889414D01*
X32003212Y-78991232D01*
X32157555Y-79069873D01*
X32322299Y-79123402D01*
X32493389Y-79150500D01*
X32493390Y-79150500D01*
X32666610Y-79150500D01*
X32666611Y-79150500D01*
X32837701Y-79123402D01*
X33002445Y-79069873D01*
X33156788Y-78991232D01*
X33296928Y-78889414D01*
X33419414Y-78766928D01*
X33521232Y-78626788D01*
X33599873Y-78472445D01*
X33653402Y-78307701D01*
X33680500Y-78136611D01*
X33680500Y-77163389D01*
X33653402Y-76992299D01*
X33599873Y-76827555D01*
X33599870Y-76827549D01*
X33575700Y-76780111D01*
X33562804Y-76711442D01*
X33589081Y-76646702D01*
X33646187Y-76606445D01*
X33705581Y-76601344D01*
X33763389Y-76610500D01*
X33763390Y-76610500D01*
X33936609Y-76610500D01*
X33936611Y-76610500D01*
X33994417Y-76601344D01*
X34063709Y-76610298D01*
X34117161Y-76655294D01*
X34137801Y-76722045D01*
X34124300Y-76780110D01*
X34100128Y-76827551D01*
X34046597Y-76992302D01*
X34025659Y-77124500D01*
X34019500Y-77163389D01*
X34019500Y-78136611D01*
X34022379Y-78154788D01*
X34046579Y-78307585D01*
X34046598Y-78307701D01*
X34100127Y-78472445D01*
X34178768Y-78626788D01*
X34280586Y-78766928D01*
X34403072Y-78889414D01*
X34543212Y-78991232D01*
X34697555Y-79069873D01*
X34862299Y-79123402D01*
X35033389Y-79150500D01*
X35033390Y-79150500D01*
X35206610Y-79150500D01*
X35206611Y-79150500D01*
X35377701Y-79123402D01*
X35542445Y-79069873D01*
X35696788Y-78991232D01*
X35836928Y-78889414D01*
X35959414Y-78766928D01*
X36061232Y-78626788D01*
X36139873Y-78472445D01*
X36193402Y-78307701D01*
X36220500Y-78136611D01*
X36220500Y-77163389D01*
X36193402Y-76992299D01*
X36139873Y-76827555D01*
X36139870Y-76827549D01*
X36115700Y-76780111D01*
X36102804Y-76711442D01*
X36129081Y-76646702D01*
X36186187Y-76606445D01*
X36245581Y-76601344D01*
X36303389Y-76610500D01*
X36303390Y-76610500D01*
X36476609Y-76610500D01*
X36476611Y-76610500D01*
X36534417Y-76601344D01*
X36603709Y-76610298D01*
X36657161Y-76655294D01*
X36677801Y-76722045D01*
X36664300Y-76780110D01*
X36640128Y-76827551D01*
X36586597Y-76992302D01*
X36565659Y-77124500D01*
X36559500Y-77163389D01*
X36559500Y-78136611D01*
X36562379Y-78154788D01*
X36586579Y-78307585D01*
X36586598Y-78307701D01*
X36640127Y-78472445D01*
X36718768Y-78626788D01*
X36820586Y-78766928D01*
X36943072Y-78889414D01*
X37083212Y-78991232D01*
X37237555Y-79069873D01*
X37402299Y-79123402D01*
X37573389Y-79150500D01*
X37573390Y-79150500D01*
X37746610Y-79150500D01*
X37746611Y-79150500D01*
X37917701Y-79123402D01*
X38082445Y-79069873D01*
X38236788Y-78991232D01*
X38376928Y-78889414D01*
X38499414Y-78766928D01*
X38601232Y-78626788D01*
X38679873Y-78472445D01*
X38733402Y-78307701D01*
X38760500Y-78136611D01*
X38760500Y-77163389D01*
X38733402Y-76992299D01*
X38679873Y-76827555D01*
X38679870Y-76827549D01*
X38655700Y-76780111D01*
X38642804Y-76711442D01*
X38669081Y-76646702D01*
X38726187Y-76606445D01*
X38785581Y-76601344D01*
X38843389Y-76610500D01*
X38843390Y-76610500D01*
X39016609Y-76610500D01*
X39016611Y-76610500D01*
X39074417Y-76601344D01*
X39143709Y-76610298D01*
X39197161Y-76655294D01*
X39217801Y-76722045D01*
X39204300Y-76780110D01*
X39180128Y-76827551D01*
X39126597Y-76992302D01*
X39105659Y-77124500D01*
X39099500Y-77163389D01*
X39099500Y-78136611D01*
X39102379Y-78154788D01*
X39126579Y-78307585D01*
X39126598Y-78307701D01*
X39180127Y-78472445D01*
X39258768Y-78626788D01*
X39360586Y-78766928D01*
X39483072Y-78889414D01*
X39623212Y-78991232D01*
X39777555Y-79069873D01*
X39942299Y-79123402D01*
X40113389Y-79150500D01*
X40113390Y-79150500D01*
X40286610Y-79150500D01*
X40286611Y-79150500D01*
X40457701Y-79123402D01*
X40622445Y-79069873D01*
X40776788Y-78991232D01*
X40916928Y-78889414D01*
X41039414Y-78766928D01*
X41141232Y-78626788D01*
X41219873Y-78472445D01*
X41273402Y-78307701D01*
X41300500Y-78136611D01*
X41300500Y-77163389D01*
X41273402Y-76992299D01*
X41219873Y-76827555D01*
X41219870Y-76827549D01*
X41195700Y-76780111D01*
X41182804Y-76711442D01*
X41209081Y-76646702D01*
X41266187Y-76606445D01*
X41325581Y-76601344D01*
X41383389Y-76610500D01*
X41383390Y-76610500D01*
X41556609Y-76610500D01*
X41556611Y-76610500D01*
X41614417Y-76601344D01*
X41683709Y-76610298D01*
X41737161Y-76655294D01*
X41757801Y-76722045D01*
X41744300Y-76780110D01*
X41720128Y-76827551D01*
X41666597Y-76992302D01*
X41645659Y-77124500D01*
X41639500Y-77163389D01*
X41639500Y-78136611D01*
X41642379Y-78154788D01*
X41666579Y-78307585D01*
X41666598Y-78307701D01*
X41720127Y-78472445D01*
X41798768Y-78626788D01*
X41900586Y-78766928D01*
X42023072Y-78889414D01*
X42163212Y-78991232D01*
X42317555Y-79069873D01*
X42482299Y-79123402D01*
X42653389Y-79150500D01*
X42653390Y-79150500D01*
X42826610Y-79150500D01*
X42826611Y-79150500D01*
X42997701Y-79123402D01*
X43162445Y-79069873D01*
X43316788Y-78991232D01*
X43456928Y-78889414D01*
X43579414Y-78766928D01*
X43681232Y-78626788D01*
X43759873Y-78472445D01*
X43813402Y-78307701D01*
X43840500Y-78136611D01*
X43840500Y-77163389D01*
X43813402Y-76992299D01*
X43759873Y-76827555D01*
X43759870Y-76827549D01*
X43735700Y-76780111D01*
X43722804Y-76711442D01*
X43749081Y-76646702D01*
X43806187Y-76606445D01*
X43865581Y-76601344D01*
X43923389Y-76610500D01*
X43923390Y-76610500D01*
X44096609Y-76610500D01*
X44096611Y-76610500D01*
X44154417Y-76601344D01*
X44223709Y-76610298D01*
X44277161Y-76655294D01*
X44297801Y-76722045D01*
X44284300Y-76780110D01*
X44260128Y-76827551D01*
X44206597Y-76992302D01*
X44185659Y-77124500D01*
X44179500Y-77163389D01*
X44179500Y-78136611D01*
X44182379Y-78154788D01*
X44206579Y-78307585D01*
X44206598Y-78307701D01*
X44260127Y-78472445D01*
X44338768Y-78626788D01*
X44440586Y-78766928D01*
X44563072Y-78889414D01*
X44703212Y-78991232D01*
X44857555Y-79069873D01*
X45022299Y-79123402D01*
X45193389Y-79150500D01*
X45193390Y-79150500D01*
X45366610Y-79150500D01*
X45366611Y-79150500D01*
X45537701Y-79123402D01*
X45702445Y-79069873D01*
X45856788Y-78991232D01*
X45996928Y-78889414D01*
X46119414Y-78766928D01*
X46221232Y-78626788D01*
X46299873Y-78472445D01*
X46353402Y-78307701D01*
X46380500Y-78136611D01*
X46380500Y-77163389D01*
X46353402Y-76992299D01*
X46299873Y-76827555D01*
X46299870Y-76827549D01*
X46275700Y-76780111D01*
X46262804Y-76711442D01*
X46289081Y-76646702D01*
X46346187Y-76606445D01*
X46405581Y-76601344D01*
X46463389Y-76610500D01*
X46463390Y-76610500D01*
X46636609Y-76610500D01*
X46636611Y-76610500D01*
X46695029Y-76601247D01*
X46764319Y-76610201D01*
X46817772Y-76655197D01*
X46838412Y-76721948D01*
X46824910Y-76780014D01*
X46800592Y-76827739D01*
X46747085Y-76992415D01*
X46720000Y-77163428D01*
X46720000Y-78136571D01*
X46747085Y-78307582D01*
X46762235Y-78354211D01*
X47420000Y-77696446D01*
X47420000Y-77702661D01*
X47447259Y-77804394D01*
X47499920Y-77895606D01*
X47574394Y-77970080D01*
X47665606Y-78022741D01*
X47767339Y-78050000D01*
X47773553Y-78050000D01*
X47018959Y-78804594D01*
X47103397Y-78889032D01*
X47243475Y-78990804D01*
X47397742Y-79069408D01*
X47562415Y-79122914D01*
X47733429Y-79150000D01*
X47906571Y-79150000D01*
X48077584Y-79122914D01*
X48242257Y-79069408D01*
X48396524Y-78990804D01*
X48536602Y-78889032D01*
X48621041Y-78804594D01*
X47866447Y-78050000D01*
X47872661Y-78050000D01*
X47974394Y-78022741D01*
X48065606Y-77970080D01*
X48140080Y-77895606D01*
X48192741Y-77804394D01*
X48220000Y-77702661D01*
X48220000Y-77696447D01*
X48877764Y-78354211D01*
X48892913Y-78307588D01*
X48892913Y-78307585D01*
X48920000Y-78136571D01*
X48920000Y-77163428D01*
X48892914Y-76992415D01*
X48839407Y-76827740D01*
X48815090Y-76780016D01*
X48802193Y-76711347D01*
X48828469Y-76646606D01*
X48885575Y-76606348D01*
X48944969Y-76601247D01*
X49003389Y-76610500D01*
X49003391Y-76610500D01*
X49176609Y-76610500D01*
X49176611Y-76610500D01*
X49234417Y-76601344D01*
X49303709Y-76610298D01*
X49357161Y-76655294D01*
X49377801Y-76722045D01*
X49364300Y-76780110D01*
X49340128Y-76827551D01*
X49286597Y-76992302D01*
X49265659Y-77124500D01*
X49259500Y-77163389D01*
X49259500Y-78136611D01*
X49262379Y-78154788D01*
X49286579Y-78307585D01*
X49286598Y-78307701D01*
X49340127Y-78472445D01*
X49418768Y-78626788D01*
X49520586Y-78766928D01*
X49643072Y-78889414D01*
X49783212Y-78991232D01*
X49937555Y-79069873D01*
X50102299Y-79123402D01*
X50273389Y-79150500D01*
X50273390Y-79150500D01*
X50446610Y-79150500D01*
X50446611Y-79150500D01*
X50617701Y-79123402D01*
X50782445Y-79069873D01*
X50936788Y-78991232D01*
X51076928Y-78889414D01*
X51199414Y-78766928D01*
X51301232Y-78626788D01*
X51379873Y-78472445D01*
X51433402Y-78307701D01*
X51460500Y-78136611D01*
X51460500Y-77163389D01*
X51433402Y-76992299D01*
X51379873Y-76827555D01*
X51379870Y-76827549D01*
X51355700Y-76780111D01*
X51342804Y-76711442D01*
X51369081Y-76646702D01*
X51426187Y-76606445D01*
X51485581Y-76601344D01*
X51543389Y-76610500D01*
X51543390Y-76610500D01*
X51716609Y-76610500D01*
X51716611Y-76610500D01*
X51774417Y-76601344D01*
X51843709Y-76610298D01*
X51897161Y-76655294D01*
X51917801Y-76722045D01*
X51904300Y-76780110D01*
X51880128Y-76827551D01*
X51826597Y-76992302D01*
X51805659Y-77124500D01*
X51799500Y-77163389D01*
X51799500Y-78136611D01*
X51802379Y-78154788D01*
X51826579Y-78307585D01*
X51826598Y-78307701D01*
X51880127Y-78472445D01*
X51958768Y-78626788D01*
X52060586Y-78766928D01*
X52183072Y-78889414D01*
X52323212Y-78991232D01*
X52477555Y-79069873D01*
X52642299Y-79123402D01*
X52813389Y-79150500D01*
X52813390Y-79150500D01*
X52986610Y-79150500D01*
X52986611Y-79150500D01*
X53157701Y-79123402D01*
X53322445Y-79069873D01*
X53476788Y-78991232D01*
X53616928Y-78889414D01*
X53739414Y-78766928D01*
X53841232Y-78626788D01*
X53919873Y-78472445D01*
X53973402Y-78307701D01*
X54000500Y-78136611D01*
X54000500Y-77163389D01*
X53973402Y-76992299D01*
X53919873Y-76827555D01*
X53919870Y-76827549D01*
X53895700Y-76780111D01*
X53882804Y-76711442D01*
X53909081Y-76646702D01*
X53966187Y-76606445D01*
X54025581Y-76601344D01*
X54083389Y-76610500D01*
X54083390Y-76610500D01*
X54256609Y-76610500D01*
X54256611Y-76610500D01*
X54314417Y-76601344D01*
X54383709Y-76610298D01*
X54437161Y-76655294D01*
X54457801Y-76722045D01*
X54444300Y-76780110D01*
X54420128Y-76827551D01*
X54366597Y-76992302D01*
X54345659Y-77124500D01*
X54339500Y-77163389D01*
X54339500Y-78136611D01*
X54342379Y-78154788D01*
X54366579Y-78307585D01*
X54366598Y-78307701D01*
X54420127Y-78472445D01*
X54498768Y-78626788D01*
X54600586Y-78766928D01*
X54723072Y-78889414D01*
X54863212Y-78991232D01*
X55017555Y-79069873D01*
X55182299Y-79123402D01*
X55353389Y-79150500D01*
X55353390Y-79150500D01*
X55526610Y-79150500D01*
X55526611Y-79150500D01*
X55697701Y-79123402D01*
X55862445Y-79069873D01*
X56016788Y-78991232D01*
X56156928Y-78889414D01*
X56279414Y-78766928D01*
X56381232Y-78626788D01*
X56459873Y-78472445D01*
X56513402Y-78307701D01*
X56540500Y-78136611D01*
X56540500Y-77163389D01*
X56513402Y-76992299D01*
X56459873Y-76827555D01*
X56459870Y-76827549D01*
X56435700Y-76780111D01*
X56422804Y-76711442D01*
X56449081Y-76646702D01*
X56506187Y-76606445D01*
X56565581Y-76601344D01*
X56623389Y-76610500D01*
X56623390Y-76610500D01*
X56796609Y-76610500D01*
X56796611Y-76610500D01*
X56854417Y-76601344D01*
X56923709Y-76610298D01*
X56977161Y-76655294D01*
X56997801Y-76722045D01*
X56984300Y-76780110D01*
X56960128Y-76827551D01*
X56906597Y-76992302D01*
X56885659Y-77124500D01*
X56879500Y-77163389D01*
X56879500Y-78136611D01*
X56882379Y-78154788D01*
X56906579Y-78307585D01*
X56906598Y-78307701D01*
X56960127Y-78472445D01*
X57038768Y-78626788D01*
X57140586Y-78766928D01*
X57263072Y-78889414D01*
X57403212Y-78991232D01*
X57557555Y-79069873D01*
X57722299Y-79123402D01*
X57893389Y-79150500D01*
X57893390Y-79150500D01*
X58066610Y-79150500D01*
X58066611Y-79150500D01*
X58237701Y-79123402D01*
X58402445Y-79069873D01*
X58556788Y-78991232D01*
X58696928Y-78889414D01*
X58819414Y-78766928D01*
X58921232Y-78626788D01*
X58999873Y-78472445D01*
X59053402Y-78307701D01*
X59080500Y-78136611D01*
X59080500Y-77163389D01*
X59053402Y-76992299D01*
X58999873Y-76827555D01*
X58999870Y-76827549D01*
X58975700Y-76780111D01*
X58962804Y-76711442D01*
X58989081Y-76646702D01*
X59046187Y-76606445D01*
X59105581Y-76601344D01*
X59163389Y-76610500D01*
X59163390Y-76610500D01*
X59336609Y-76610500D01*
X59336611Y-76610500D01*
X59394417Y-76601344D01*
X59463709Y-76610298D01*
X59517161Y-76655294D01*
X59537801Y-76722045D01*
X59524300Y-76780110D01*
X59500128Y-76827551D01*
X59446597Y-76992302D01*
X59425659Y-77124500D01*
X59419500Y-77163389D01*
X59419500Y-78136611D01*
X59422379Y-78154788D01*
X59446579Y-78307585D01*
X59446598Y-78307701D01*
X59500127Y-78472445D01*
X59578768Y-78626788D01*
X59680586Y-78766928D01*
X59803072Y-78889414D01*
X59943212Y-78991232D01*
X60097555Y-79069873D01*
X60262299Y-79123402D01*
X60433389Y-79150500D01*
X60433390Y-79150500D01*
X60606610Y-79150500D01*
X60606611Y-79150500D01*
X60777701Y-79123402D01*
X60942445Y-79069873D01*
X61096788Y-78991232D01*
X61236928Y-78889414D01*
X61359414Y-78766928D01*
X61461232Y-78626788D01*
X61539873Y-78472445D01*
X61593402Y-78307701D01*
X61620500Y-78136611D01*
X61620500Y-77163389D01*
X61593402Y-76992299D01*
X61539873Y-76827555D01*
X61539870Y-76827549D01*
X61515700Y-76780111D01*
X61502804Y-76711442D01*
X61529081Y-76646702D01*
X61586187Y-76606445D01*
X61645581Y-76601344D01*
X61703389Y-76610500D01*
X61703390Y-76610500D01*
X61876609Y-76610500D01*
X61876611Y-76610500D01*
X61934417Y-76601344D01*
X62003709Y-76610298D01*
X62057161Y-76655294D01*
X62077801Y-76722045D01*
X62064300Y-76780110D01*
X62040128Y-76827551D01*
X61986597Y-76992302D01*
X61965659Y-77124500D01*
X61959500Y-77163389D01*
X61959500Y-78136611D01*
X61962379Y-78154788D01*
X61986579Y-78307585D01*
X61986598Y-78307701D01*
X62040127Y-78472445D01*
X62118768Y-78626788D01*
X62220586Y-78766928D01*
X62343072Y-78889414D01*
X62483212Y-78991232D01*
X62637555Y-79069873D01*
X62802299Y-79123402D01*
X62973389Y-79150500D01*
X62973390Y-79150500D01*
X63146610Y-79150500D01*
X63146611Y-79150500D01*
X63317701Y-79123402D01*
X63482445Y-79069873D01*
X63636788Y-78991232D01*
X63776928Y-78889414D01*
X63899414Y-78766928D01*
X64001232Y-78626788D01*
X64079873Y-78472445D01*
X64133402Y-78307701D01*
X64160500Y-78136611D01*
X64160500Y-77163389D01*
X64133402Y-76992299D01*
X64079873Y-76827555D01*
X64079870Y-76827549D01*
X64055700Y-76780111D01*
X64042804Y-76711442D01*
X64069081Y-76646702D01*
X64126187Y-76606445D01*
X64185581Y-76601344D01*
X64243389Y-76610500D01*
X64243390Y-76610500D01*
X64416609Y-76610500D01*
X64416611Y-76610500D01*
X64474417Y-76601344D01*
X64543709Y-76610298D01*
X64597161Y-76655294D01*
X64617801Y-76722045D01*
X64604300Y-76780110D01*
X64580128Y-76827551D01*
X64526597Y-76992302D01*
X64505659Y-77124500D01*
X64499500Y-77163389D01*
X64499500Y-78136611D01*
X64502379Y-78154788D01*
X64526579Y-78307585D01*
X64526598Y-78307701D01*
X64580127Y-78472445D01*
X64658768Y-78626788D01*
X64760586Y-78766928D01*
X64883072Y-78889414D01*
X65023212Y-78991232D01*
X65177555Y-79069873D01*
X65342299Y-79123402D01*
X65513389Y-79150500D01*
X65513390Y-79150500D01*
X65686610Y-79150500D01*
X65686611Y-79150500D01*
X65857701Y-79123402D01*
X66022445Y-79069873D01*
X66176788Y-78991232D01*
X66316928Y-78889414D01*
X66439414Y-78766928D01*
X66541232Y-78626788D01*
X66619873Y-78472445D01*
X66673402Y-78307701D01*
X66700500Y-78136611D01*
X66700500Y-77163389D01*
X66673402Y-76992299D01*
X66619873Y-76827555D01*
X66619870Y-76827549D01*
X66595700Y-76780111D01*
X66582804Y-76711442D01*
X66609081Y-76646702D01*
X66666187Y-76606445D01*
X66725581Y-76601344D01*
X66783389Y-76610500D01*
X66783390Y-76610500D01*
X66956609Y-76610500D01*
X66956611Y-76610500D01*
X67014417Y-76601344D01*
X67083709Y-76610298D01*
X67137161Y-76655294D01*
X67157801Y-76722045D01*
X67144300Y-76780110D01*
X67120128Y-76827551D01*
X67066597Y-76992302D01*
X67045659Y-77124500D01*
X67039500Y-77163389D01*
X67039500Y-78136611D01*
X67042379Y-78154788D01*
X67066579Y-78307585D01*
X67066598Y-78307701D01*
X67120127Y-78472445D01*
X67198768Y-78626788D01*
X67300586Y-78766928D01*
X67423072Y-78889414D01*
X67563212Y-78991232D01*
X67717555Y-79069873D01*
X67882299Y-79123402D01*
X68053389Y-79150500D01*
X68053390Y-79150500D01*
X68226610Y-79150500D01*
X68226611Y-79150500D01*
X68397701Y-79123402D01*
X68562445Y-79069873D01*
X68716788Y-78991232D01*
X68856928Y-78889414D01*
X68979414Y-78766928D01*
X69081232Y-78626788D01*
X69159873Y-78472445D01*
X69213402Y-78307701D01*
X69240500Y-78136611D01*
X69240500Y-77163389D01*
X69213402Y-76992299D01*
X69159873Y-76827555D01*
X69159870Y-76827549D01*
X69135700Y-76780111D01*
X69122804Y-76711442D01*
X69149081Y-76646702D01*
X69206187Y-76606445D01*
X69265581Y-76601344D01*
X69323389Y-76610500D01*
X69323390Y-76610500D01*
X69496609Y-76610500D01*
X69496611Y-76610500D01*
X69554417Y-76601344D01*
X69623709Y-76610298D01*
X69677161Y-76655294D01*
X69697801Y-76722045D01*
X69684300Y-76780110D01*
X69660128Y-76827551D01*
X69606597Y-76992302D01*
X69585659Y-77124500D01*
X69579500Y-77163389D01*
X69579500Y-78136611D01*
X69582379Y-78154788D01*
X69606579Y-78307585D01*
X69606598Y-78307701D01*
X69660127Y-78472445D01*
X69738768Y-78626788D01*
X69840586Y-78766928D01*
X69963072Y-78889414D01*
X70103212Y-78991232D01*
X70257555Y-79069873D01*
X70422299Y-79123402D01*
X70593389Y-79150500D01*
X70593390Y-79150500D01*
X70766610Y-79150500D01*
X70766611Y-79150500D01*
X70937701Y-79123402D01*
X71102445Y-79069873D01*
X71256788Y-78991232D01*
X71396928Y-78889414D01*
X71519414Y-78766928D01*
X71621232Y-78626788D01*
X71699873Y-78472445D01*
X71753402Y-78307701D01*
X71780500Y-78136611D01*
X71780500Y-77163389D01*
X71753402Y-76992299D01*
X71699873Y-76827555D01*
X71699870Y-76827549D01*
X71675700Y-76780111D01*
X71662804Y-76711442D01*
X71689081Y-76646702D01*
X71746187Y-76606445D01*
X71805581Y-76601344D01*
X71863389Y-76610500D01*
X71863390Y-76610500D01*
X72036609Y-76610500D01*
X72036611Y-76610500D01*
X72094417Y-76601344D01*
X72163709Y-76610298D01*
X72217161Y-76655294D01*
X72237801Y-76722045D01*
X72224300Y-76780110D01*
X72200128Y-76827551D01*
X72146597Y-76992302D01*
X72125659Y-77124500D01*
X72119500Y-77163389D01*
X72119500Y-78136611D01*
X72122379Y-78154788D01*
X72146579Y-78307585D01*
X72146598Y-78307701D01*
X72200127Y-78472445D01*
X72278768Y-78626788D01*
X72380586Y-78766928D01*
X72503072Y-78889414D01*
X72643212Y-78991232D01*
X72797555Y-79069873D01*
X72962299Y-79123402D01*
X73133389Y-79150500D01*
X73133390Y-79150500D01*
X73306610Y-79150500D01*
X73306611Y-79150500D01*
X73477701Y-79123402D01*
X73642445Y-79069873D01*
X73796788Y-78991232D01*
X73936928Y-78889414D01*
X74059414Y-78766928D01*
X74161232Y-78626788D01*
X74239873Y-78472445D01*
X74293402Y-78307701D01*
X74320500Y-78136611D01*
X74320500Y-77163389D01*
X74293402Y-76992299D01*
X74239873Y-76827555D01*
X74161232Y-76673212D01*
X74059414Y-76533072D01*
X73936928Y-76410586D01*
X73871613Y-76363131D01*
X73828948Y-76307801D01*
X73820500Y-76262814D01*
X73820500Y-73909059D01*
X73820501Y-73909046D01*
X73820501Y-73740945D01*
X73820501Y-73740943D01*
X73779577Y-73588215D01*
X73750639Y-73538095D01*
X73700520Y-73451284D01*
X73588716Y-73339480D01*
X73588715Y-73339479D01*
X73584385Y-73335149D01*
X73584374Y-73335139D01*
X62436819Y-62187584D01*
X62403334Y-62126261D01*
X62400500Y-62099903D01*
X62400500Y-48889060D01*
X62400501Y-48889047D01*
X62400501Y-48720944D01*
X62400501Y-48720943D01*
X62359577Y-48568216D01*
X62314081Y-48489414D01*
X62280524Y-48431290D01*
X62280518Y-48431282D01*
X56936819Y-43087583D01*
X56903334Y-43026260D01*
X56900500Y-42999902D01*
X56900500Y-31290945D01*
X56900500Y-31290943D01*
X56859577Y-31138216D01*
X56783716Y-31006819D01*
X56780524Y-31001290D01*
X56780521Y-31001286D01*
X56780520Y-31001284D01*
X56668716Y-30889480D01*
X56668715Y-30889479D01*
X56664385Y-30885149D01*
X56664374Y-30885139D01*
X56233556Y-30454321D01*
X56200071Y-30392998D01*
X56205055Y-30323306D01*
X56210749Y-30310350D01*
X56219873Y-30292445D01*
X56273402Y-30127701D01*
X56300500Y-29956611D01*
X56300500Y-29783389D01*
X56273402Y-29612299D01*
X56219873Y-29447555D01*
X56141232Y-29293212D01*
X56071609Y-29197385D01*
X56048130Y-29131579D01*
X56063955Y-29063525D01*
X56114061Y-29014830D01*
X56171928Y-29000500D01*
X79934108Y-29000500D01*
X79996249Y-29000500D01*
X80003736Y-29000726D01*
X80293796Y-29018271D01*
X80308657Y-29020075D01*
X80366010Y-29030586D01*
X80590798Y-29071780D01*
X80605335Y-29075363D01*
X80879172Y-29160695D01*
X80893163Y-29166000D01*
X81154743Y-29283727D01*
X81167989Y-29290680D01*
X81413465Y-29439075D01*
X81425776Y-29447573D01*
X81636034Y-29612299D01*
X81651573Y-29624473D01*
X81662781Y-29634403D01*
X81865596Y-29837218D01*
X81875526Y-29848426D01*
X81995481Y-30001538D01*
X82052422Y-30074217D01*
X82060928Y-30086540D01*
X82209316Y-30332004D01*
X82216275Y-30345263D01*
X82333997Y-30606831D01*
X82339306Y-30620832D01*
X82424635Y-30894663D01*
X82428219Y-30909201D01*
X82479923Y-31191340D01*
X82481728Y-31206205D01*
X82499274Y-31496263D01*
X82499500Y-31503750D01*
X82499500Y-119996249D01*
X82499274Y-120003736D01*
X82481728Y-120293794D01*
X82479923Y-120308659D01*
X82428219Y-120590798D01*
X82424635Y-120605336D01*
X82339306Y-120879167D01*
X82333997Y-120893168D01*
X82216275Y-121154736D01*
X82209316Y-121167995D01*
X82060928Y-121413459D01*
X82052422Y-121425782D01*
X81875526Y-121651573D01*
X81865596Y-121662781D01*
X81662781Y-121865596D01*
X81651573Y-121875526D01*
X81425782Y-122052422D01*
X81413459Y-122060928D01*
X81167995Y-122209316D01*
X81154736Y-122216275D01*
X80893168Y-122333997D01*
X80879167Y-122339306D01*
X80605336Y-122424635D01*
X80590798Y-122428219D01*
X80308659Y-122479923D01*
X80293794Y-122481728D01*
X80003736Y-122499274D01*
X79996249Y-122499500D01*
X21003751Y-122499500D01*
X20996264Y-122499274D01*
X20706205Y-122481728D01*
X20691340Y-122479923D01*
X20409201Y-122428219D01*
X20394663Y-122424635D01*
X20120832Y-122339306D01*
X20106831Y-122333997D01*
X19845263Y-122216275D01*
X19832004Y-122209316D01*
X19586540Y-122060928D01*
X19574217Y-122052422D01*
X19348426Y-121875526D01*
X19337218Y-121865596D01*
X19134403Y-121662781D01*
X19124473Y-121651573D01*
X18947573Y-121425776D01*
X18939075Y-121413465D01*
X18790680Y-121167989D01*
X18783727Y-121154743D01*
X18666000Y-120893163D01*
X18660693Y-120879167D01*
X18575364Y-120605336D01*
X18571780Y-120590798D01*
X18520076Y-120308659D01*
X18518271Y-120293794D01*
X18500726Y-120003736D01*
X18500500Y-119996249D01*
X18500500Y-119646288D01*
X18849500Y-119646288D01*
X18881161Y-119886785D01*
X18943947Y-120121104D01*
X19015478Y-120293794D01*
X19036776Y-120345212D01*
X19158064Y-120555289D01*
X19158066Y-120555292D01*
X19158067Y-120555293D01*
X19305733Y-120747736D01*
X19305739Y-120747743D01*
X19477256Y-120919260D01*
X19477262Y-120919265D01*
X19669711Y-121066936D01*
X19879788Y-121188224D01*
X20103900Y-121281054D01*
X20338211Y-121343838D01*
X20518586Y-121367584D01*
X20578711Y-121375500D01*
X20578712Y-121375500D01*
X20821289Y-121375500D01*
X20869388Y-121369167D01*
X21061789Y-121343838D01*
X21296100Y-121281054D01*
X21520212Y-121188224D01*
X21730289Y-121066936D01*
X21922738Y-120919265D01*
X22094265Y-120747738D01*
X22241936Y-120555289D01*
X22363224Y-120345212D01*
X22456054Y-120121100D01*
X22518838Y-119886789D01*
X22550500Y-119646288D01*
X77749500Y-119646288D01*
X77781161Y-119886785D01*
X77843947Y-120121104D01*
X77915478Y-120293794D01*
X77936776Y-120345212D01*
X78058064Y-120555289D01*
X78058066Y-120555292D01*
X78058067Y-120555293D01*
X78205733Y-120747736D01*
X78205739Y-120747743D01*
X78377256Y-120919260D01*
X78377262Y-120919265D01*
X78569711Y-121066936D01*
X78779788Y-121188224D01*
X79003900Y-121281054D01*
X79238211Y-121343838D01*
X79418586Y-121367584D01*
X79478711Y-121375500D01*
X79478712Y-121375500D01*
X79721289Y-121375500D01*
X79769388Y-121369167D01*
X79961789Y-121343838D01*
X80196100Y-121281054D01*
X80420212Y-121188224D01*
X80630289Y-121066936D01*
X80822738Y-120919265D01*
X80994265Y-120747738D01*
X81141936Y-120555289D01*
X81263224Y-120345212D01*
X81356054Y-120121100D01*
X81418838Y-119886789D01*
X81450500Y-119646288D01*
X81450500Y-117853712D01*
X81418838Y-117613211D01*
X81356054Y-117378900D01*
X81263224Y-117154788D01*
X81141936Y-116944711D01*
X80994265Y-116752262D01*
X80994260Y-116752256D01*
X80822743Y-116580739D01*
X80822736Y-116580733D01*
X80630293Y-116433067D01*
X80630292Y-116433066D01*
X80630289Y-116433064D01*
X80420212Y-116311776D01*
X80420205Y-116311773D01*
X80196104Y-116218947D01*
X79961785Y-116156161D01*
X79721289Y-116124500D01*
X79721288Y-116124500D01*
X79478712Y-116124500D01*
X79478711Y-116124500D01*
X79238214Y-116156161D01*
X79003895Y-116218947D01*
X78779794Y-116311773D01*
X78779785Y-116311777D01*
X78569706Y-116433067D01*
X78377263Y-116580733D01*
X78377256Y-116580739D01*
X78205739Y-116752256D01*
X78205733Y-116752263D01*
X78058067Y-116944706D01*
X77936777Y-117154785D01*
X77936773Y-117154794D01*
X77843947Y-117378895D01*
X77781161Y-117613214D01*
X77749500Y-117853711D01*
X77749500Y-119646288D01*
X22550500Y-119646288D01*
X22550500Y-117853712D01*
X22518838Y-117613211D01*
X22456054Y-117378900D01*
X22363224Y-117154788D01*
X22241936Y-116944711D01*
X22094265Y-116752262D01*
X22094260Y-116752256D01*
X21922743Y-116580739D01*
X21922736Y-116580733D01*
X21730293Y-116433067D01*
X21730292Y-116433066D01*
X21730289Y-116433064D01*
X21520212Y-116311776D01*
X21520205Y-116311773D01*
X21296104Y-116218947D01*
X21061785Y-116156161D01*
X20821289Y-116124500D01*
X20821288Y-116124500D01*
X20578712Y-116124500D01*
X20578711Y-116124500D01*
X20338214Y-116156161D01*
X20103895Y-116218947D01*
X19879794Y-116311773D01*
X19879785Y-116311777D01*
X19669706Y-116433067D01*
X19477263Y-116580733D01*
X19477256Y-116580739D01*
X19305739Y-116752256D01*
X19305733Y-116752263D01*
X19158067Y-116944706D01*
X19036777Y-117154785D01*
X19036773Y-117154794D01*
X18943947Y-117378895D01*
X18881161Y-117613214D01*
X18849500Y-117853711D01*
X18849500Y-119646288D01*
X18500500Y-119646288D01*
X18500500Y-80646288D01*
X18849500Y-80646288D01*
X18881161Y-80886785D01*
X18943947Y-81121104D01*
X19036773Y-81345205D01*
X19036776Y-81345212D01*
X19158064Y-81555289D01*
X19158066Y-81555292D01*
X19158067Y-81555293D01*
X19305733Y-81747736D01*
X19305739Y-81747743D01*
X19477256Y-81919260D01*
X19477262Y-81919265D01*
X19669711Y-82066936D01*
X19879788Y-82188224D01*
X20103900Y-82281054D01*
X20338211Y-82343838D01*
X20518586Y-82367584D01*
X20578711Y-82375500D01*
X20578712Y-82375500D01*
X20821289Y-82375500D01*
X20869388Y-82369167D01*
X21061789Y-82343838D01*
X21296100Y-82281054D01*
X21520212Y-82188224D01*
X21730289Y-82066936D01*
X21922738Y-81919265D01*
X22094265Y-81747738D01*
X22241936Y-81555289D01*
X22363224Y-81345212D01*
X22456054Y-81121100D01*
X22518838Y-80886789D01*
X22550500Y-80646288D01*
X77749500Y-80646288D01*
X77781161Y-80886785D01*
X77843947Y-81121104D01*
X77936773Y-81345205D01*
X77936776Y-81345212D01*
X78058064Y-81555289D01*
X78058066Y-81555292D01*
X78058067Y-81555293D01*
X78205733Y-81747736D01*
X78205739Y-81747743D01*
X78377256Y-81919260D01*
X78377262Y-81919265D01*
X78569711Y-82066936D01*
X78779788Y-82188224D01*
X79003900Y-82281054D01*
X79238211Y-82343838D01*
X79418586Y-82367584D01*
X79478711Y-82375500D01*
X79478712Y-82375500D01*
X79721289Y-82375500D01*
X79769388Y-82369167D01*
X79961789Y-82343838D01*
X80196100Y-82281054D01*
X80420212Y-82188224D01*
X80630289Y-82066936D01*
X80822738Y-81919265D01*
X80994265Y-81747738D01*
X81141936Y-81555289D01*
X81263224Y-81345212D01*
X81356054Y-81121100D01*
X81418838Y-80886789D01*
X81450500Y-80646288D01*
X81450500Y-78853712D01*
X81418838Y-78613211D01*
X81356054Y-78378900D01*
X81263224Y-78154788D01*
X81141936Y-77944711D01*
X80994265Y-77752262D01*
X80994260Y-77752256D01*
X80822743Y-77580739D01*
X80822736Y-77580733D01*
X80630293Y-77433067D01*
X80630292Y-77433066D01*
X80630289Y-77433064D01*
X80420212Y-77311776D01*
X80420205Y-77311773D01*
X80196104Y-77218947D01*
X79961785Y-77156161D01*
X79721289Y-77124500D01*
X79721288Y-77124500D01*
X79478712Y-77124500D01*
X79478711Y-77124500D01*
X79238214Y-77156161D01*
X79003895Y-77218947D01*
X78779794Y-77311773D01*
X78779785Y-77311777D01*
X78569706Y-77433067D01*
X78377263Y-77580733D01*
X78377256Y-77580739D01*
X78205739Y-77752256D01*
X78205733Y-77752263D01*
X78058067Y-77944706D01*
X77936777Y-78154785D01*
X77936773Y-78154794D01*
X77843947Y-78378895D01*
X77781161Y-78613214D01*
X77749500Y-78853711D01*
X77749500Y-80646288D01*
X22550500Y-80646288D01*
X22550500Y-78853712D01*
X22518838Y-78613211D01*
X22456054Y-78378900D01*
X22363224Y-78154788D01*
X22241936Y-77944711D01*
X22094265Y-77752262D01*
X22094260Y-77752256D01*
X21922743Y-77580739D01*
X21922736Y-77580733D01*
X21730293Y-77433067D01*
X21730292Y-77433066D01*
X21730289Y-77433064D01*
X21520212Y-77311776D01*
X21520205Y-77311773D01*
X21296104Y-77218947D01*
X21061785Y-77156161D01*
X20821289Y-77124500D01*
X20821288Y-77124500D01*
X20578712Y-77124500D01*
X20578711Y-77124500D01*
X20338214Y-77156161D01*
X20103895Y-77218947D01*
X19879794Y-77311773D01*
X19879785Y-77311777D01*
X19669706Y-77433067D01*
X19477263Y-77580733D01*
X19477256Y-77580739D01*
X19305739Y-77752256D01*
X19305733Y-77752263D01*
X19158067Y-77944706D01*
X19036777Y-78154785D01*
X19036773Y-78154794D01*
X18943947Y-78378895D01*
X18881161Y-78613214D01*
X18849500Y-78853711D01*
X18849500Y-80646288D01*
X18500500Y-80646288D01*
X18500500Y-55356611D01*
X38299500Y-55356611D01*
X38326598Y-55527701D01*
X38380127Y-55692445D01*
X38458768Y-55846788D01*
X38560586Y-55986928D01*
X38683072Y-56109414D01*
X38823212Y-56211232D01*
X38977555Y-56289873D01*
X39142299Y-56343402D01*
X39313389Y-56370500D01*
X39313390Y-56370500D01*
X40286610Y-56370500D01*
X40286611Y-56370500D01*
X40457701Y-56343402D01*
X40622445Y-56289873D01*
X40776788Y-56211232D01*
X40916928Y-56109414D01*
X41039414Y-55986928D01*
X41141232Y-55846788D01*
X41219873Y-55692445D01*
X41273402Y-55527701D01*
X41300500Y-55356611D01*
X53299500Y-55356611D01*
X53326598Y-55527701D01*
X53380127Y-55692445D01*
X53458768Y-55846788D01*
X53560586Y-55986928D01*
X53683072Y-56109414D01*
X53823212Y-56211232D01*
X53977555Y-56289873D01*
X54142299Y-56343402D01*
X54313389Y-56370500D01*
X54313390Y-56370500D01*
X55286610Y-56370500D01*
X55286611Y-56370500D01*
X55457701Y-56343402D01*
X55622445Y-56289873D01*
X55776788Y-56211232D01*
X55916928Y-56109414D01*
X56039414Y-55986928D01*
X56141232Y-55846788D01*
X56219873Y-55692445D01*
X56273402Y-55527701D01*
X56300500Y-55356611D01*
X56300500Y-55183389D01*
X56273402Y-55012299D01*
X56219873Y-54847555D01*
X56141232Y-54693212D01*
X56039414Y-54553072D01*
X55916928Y-54430586D01*
X55776788Y-54328768D01*
X55622445Y-54250127D01*
X55457701Y-54196598D01*
X55457699Y-54196597D01*
X55457698Y-54196597D01*
X55326271Y-54175781D01*
X55286611Y-54169500D01*
X54313389Y-54169500D01*
X54273728Y-54175781D01*
X54142302Y-54196597D01*
X53977552Y-54250128D01*
X53823211Y-54328768D01*
X53743256Y-54386859D01*
X53683072Y-54430586D01*
X53683070Y-54430588D01*
X53683069Y-54430588D01*
X53560588Y-54553069D01*
X53560588Y-54553070D01*
X53560586Y-54553072D01*
X53516859Y-54613256D01*
X53458768Y-54693211D01*
X53380128Y-54847552D01*
X53326597Y-55012302D01*
X53299500Y-55183389D01*
X53299500Y-55356611D01*
X41300500Y-55356611D01*
X41300500Y-55183389D01*
X41273402Y-55012299D01*
X41219873Y-54847555D01*
X41141232Y-54693212D01*
X41039414Y-54553072D01*
X40916928Y-54430586D01*
X40776788Y-54328768D01*
X40622445Y-54250127D01*
X40457701Y-54196598D01*
X40457699Y-54196597D01*
X40457698Y-54196597D01*
X40326271Y-54175781D01*
X40286611Y-54169500D01*
X39313389Y-54169500D01*
X39273728Y-54175781D01*
X39142302Y-54196597D01*
X38977552Y-54250128D01*
X38823211Y-54328768D01*
X38743256Y-54386859D01*
X38683072Y-54430586D01*
X38683070Y-54430588D01*
X38683069Y-54430588D01*
X38560588Y-54553069D01*
X38560588Y-54553070D01*
X38560586Y-54553072D01*
X38516859Y-54613256D01*
X38458768Y-54693211D01*
X38380128Y-54847552D01*
X38326597Y-55012302D01*
X38299500Y-55183389D01*
X38299500Y-55356611D01*
X18500500Y-55356611D01*
X18500500Y-52816611D01*
X38299500Y-52816611D01*
X38326598Y-52987701D01*
X38380127Y-53152445D01*
X38458768Y-53306788D01*
X38560586Y-53446928D01*
X38683072Y-53569414D01*
X38823212Y-53671232D01*
X38977555Y-53749873D01*
X39142299Y-53803402D01*
X39313389Y-53830500D01*
X39313390Y-53830500D01*
X40286610Y-53830500D01*
X40286611Y-53830500D01*
X40457701Y-53803402D01*
X40622445Y-53749873D01*
X40776788Y-53671232D01*
X40916928Y-53569414D01*
X41039414Y-53446928D01*
X41141232Y-53306788D01*
X41219873Y-53152445D01*
X41273402Y-52987701D01*
X41300500Y-52816611D01*
X53299500Y-52816611D01*
X53326598Y-52987701D01*
X53380127Y-53152445D01*
X53458768Y-53306788D01*
X53560586Y-53446928D01*
X53683072Y-53569414D01*
X53823212Y-53671232D01*
X53977555Y-53749873D01*
X54142299Y-53803402D01*
X54313389Y-53830500D01*
X54313390Y-53830500D01*
X55286610Y-53830500D01*
X55286611Y-53830500D01*
X55457701Y-53803402D01*
X55622445Y-53749873D01*
X55776788Y-53671232D01*
X55916928Y-53569414D01*
X56039414Y-53446928D01*
X56141232Y-53306788D01*
X56219873Y-53152445D01*
X56273402Y-52987701D01*
X56300500Y-52816611D01*
X56300500Y-52643389D01*
X56273402Y-52472299D01*
X56219873Y-52307555D01*
X56141232Y-52153212D01*
X56039414Y-52013072D01*
X55916928Y-51890586D01*
X55776788Y-51788768D01*
X55622445Y-51710127D01*
X55457701Y-51656598D01*
X55457699Y-51656597D01*
X55457698Y-51656597D01*
X55326271Y-51635781D01*
X55286611Y-51629500D01*
X54313389Y-51629500D01*
X54273728Y-51635781D01*
X54142302Y-51656597D01*
X53977552Y-51710128D01*
X53823211Y-51788768D01*
X53743256Y-51846859D01*
X53683072Y-51890586D01*
X53683070Y-51890588D01*
X53683069Y-51890588D01*
X53560588Y-52013069D01*
X53560588Y-52013070D01*
X53560586Y-52013072D01*
X53516859Y-52073256D01*
X53458768Y-52153211D01*
X53380128Y-52307552D01*
X53326597Y-52472302D01*
X53299500Y-52643389D01*
X53299500Y-52816611D01*
X41300500Y-52816611D01*
X41300500Y-52643389D01*
X41273402Y-52472299D01*
X41219873Y-52307555D01*
X41141232Y-52153212D01*
X41039414Y-52013072D01*
X40916928Y-51890586D01*
X40776788Y-51788768D01*
X40622445Y-51710127D01*
X40457701Y-51656598D01*
X40457699Y-51656597D01*
X40457698Y-51656597D01*
X40326271Y-51635781D01*
X40286611Y-51629500D01*
X39313389Y-51629500D01*
X39273728Y-51635781D01*
X39142302Y-51656597D01*
X38977552Y-51710128D01*
X38823211Y-51788768D01*
X38743256Y-51846859D01*
X38683072Y-51890586D01*
X38683070Y-51890588D01*
X38683069Y-51890588D01*
X38560588Y-52013069D01*
X38560588Y-52013070D01*
X38560586Y-52013072D01*
X38516859Y-52073256D01*
X38458768Y-52153211D01*
X38380128Y-52307552D01*
X38326597Y-52472302D01*
X38299500Y-52643389D01*
X38299500Y-52816611D01*
X18500500Y-52816611D01*
X18500500Y-50276611D01*
X38299500Y-50276611D01*
X38326598Y-50447701D01*
X38380127Y-50612445D01*
X38458768Y-50766788D01*
X38560586Y-50906928D01*
X38683072Y-51029414D01*
X38823212Y-51131232D01*
X38977555Y-51209873D01*
X39142299Y-51263402D01*
X39313389Y-51290500D01*
X39313390Y-51290500D01*
X40286610Y-51290500D01*
X40286611Y-51290500D01*
X40457701Y-51263402D01*
X40622445Y-51209873D01*
X40776788Y-51131232D01*
X40916928Y-51029414D01*
X41039414Y-50906928D01*
X41141232Y-50766788D01*
X41219873Y-50612445D01*
X41273402Y-50447701D01*
X41300500Y-50276611D01*
X53299500Y-50276611D01*
X53326598Y-50447701D01*
X53380127Y-50612445D01*
X53458768Y-50766788D01*
X53560586Y-50906928D01*
X53683072Y-51029414D01*
X53823212Y-51131232D01*
X53977555Y-51209873D01*
X54142299Y-51263402D01*
X54313389Y-51290500D01*
X54313390Y-51290500D01*
X55286610Y-51290500D01*
X55286611Y-51290500D01*
X55457701Y-51263402D01*
X55622445Y-51209873D01*
X55776788Y-51131232D01*
X55916928Y-51029414D01*
X56039414Y-50906928D01*
X56141232Y-50766788D01*
X56219873Y-50612445D01*
X56273402Y-50447701D01*
X56300500Y-50276611D01*
X56300500Y-50103389D01*
X56273402Y-49932299D01*
X56219873Y-49767555D01*
X56141232Y-49613212D01*
X56039414Y-49473072D01*
X55916928Y-49350586D01*
X55776788Y-49248768D01*
X55622445Y-49170127D01*
X55457701Y-49116598D01*
X55457699Y-49116597D01*
X55457698Y-49116597D01*
X55326271Y-49095781D01*
X55286611Y-49089500D01*
X54313389Y-49089500D01*
X54273728Y-49095781D01*
X54142302Y-49116597D01*
X53977552Y-49170128D01*
X53823211Y-49248768D01*
X53743256Y-49306859D01*
X53683072Y-49350586D01*
X53683070Y-49350588D01*
X53683069Y-49350588D01*
X53560588Y-49473069D01*
X53560588Y-49473070D01*
X53560586Y-49473072D01*
X53540951Y-49500097D01*
X53458768Y-49613211D01*
X53380128Y-49767552D01*
X53326597Y-49932302D01*
X53299500Y-50103389D01*
X53299500Y-50276611D01*
X41300500Y-50276611D01*
X41300500Y-50103389D01*
X41273402Y-49932299D01*
X41219873Y-49767555D01*
X41141232Y-49613212D01*
X41039414Y-49473072D01*
X40916928Y-49350586D01*
X40776788Y-49248768D01*
X40622445Y-49170127D01*
X40457701Y-49116598D01*
X40457699Y-49116597D01*
X40457698Y-49116597D01*
X40326271Y-49095781D01*
X40286611Y-49089500D01*
X39313389Y-49089500D01*
X39273728Y-49095781D01*
X39142302Y-49116597D01*
X38977552Y-49170128D01*
X38823211Y-49248768D01*
X38743256Y-49306859D01*
X38683072Y-49350586D01*
X38683070Y-49350588D01*
X38683069Y-49350588D01*
X38560588Y-49473069D01*
X38560588Y-49473070D01*
X38560586Y-49473072D01*
X38540951Y-49500097D01*
X38458768Y-49613211D01*
X38380128Y-49767552D01*
X38326597Y-49932302D01*
X38299500Y-50103389D01*
X38299500Y-50276611D01*
X18500500Y-50276611D01*
X18500500Y-47736611D01*
X38299500Y-47736611D01*
X38326598Y-47907701D01*
X38380127Y-48072445D01*
X38458768Y-48226788D01*
X38560586Y-48366928D01*
X38683072Y-48489414D01*
X38823212Y-48591232D01*
X38977555Y-48669873D01*
X39142299Y-48723402D01*
X39313389Y-48750500D01*
X39313390Y-48750500D01*
X40286610Y-48750500D01*
X40286611Y-48750500D01*
X40457701Y-48723402D01*
X40622445Y-48669873D01*
X40776788Y-48591232D01*
X40916928Y-48489414D01*
X41039414Y-48366928D01*
X41141232Y-48226788D01*
X41219873Y-48072445D01*
X41273402Y-47907701D01*
X41300500Y-47736611D01*
X53299500Y-47736611D01*
X53326598Y-47907701D01*
X53380127Y-48072445D01*
X53458768Y-48226788D01*
X53560586Y-48366928D01*
X53683072Y-48489414D01*
X53823212Y-48591232D01*
X53977555Y-48669873D01*
X54142299Y-48723402D01*
X54313389Y-48750500D01*
X54313390Y-48750500D01*
X55286610Y-48750500D01*
X55286611Y-48750500D01*
X55457701Y-48723402D01*
X55622445Y-48669873D01*
X55776788Y-48591232D01*
X55916928Y-48489414D01*
X56039414Y-48366928D01*
X56141232Y-48226788D01*
X56219873Y-48072445D01*
X56273402Y-47907701D01*
X56300500Y-47736611D01*
X56300500Y-47563389D01*
X56273402Y-47392299D01*
X56219873Y-47227555D01*
X56141232Y-47073212D01*
X56039414Y-46933072D01*
X55916928Y-46810586D01*
X55776788Y-46708768D01*
X55622445Y-46630127D01*
X55457701Y-46576598D01*
X55457699Y-46576597D01*
X55457698Y-46576597D01*
X55326271Y-46555781D01*
X55286611Y-46549500D01*
X54313389Y-46549500D01*
X54273728Y-46555781D01*
X54142302Y-46576597D01*
X53977552Y-46630128D01*
X53823211Y-46708768D01*
X53743256Y-46766859D01*
X53683072Y-46810586D01*
X53683070Y-46810588D01*
X53683069Y-46810588D01*
X53560588Y-46933069D01*
X53560588Y-46933070D01*
X53560586Y-46933072D01*
X53516859Y-46993256D01*
X53458768Y-47073211D01*
X53380128Y-47227552D01*
X53326597Y-47392302D01*
X53299500Y-47563389D01*
X53299500Y-47736611D01*
X41300500Y-47736611D01*
X41300500Y-47563389D01*
X41273402Y-47392299D01*
X41219873Y-47227555D01*
X41141232Y-47073212D01*
X41039414Y-46933072D01*
X40916928Y-46810586D01*
X40776788Y-46708768D01*
X40622445Y-46630127D01*
X40457701Y-46576598D01*
X40457699Y-46576597D01*
X40457698Y-46576597D01*
X40326271Y-46555781D01*
X40286611Y-46549500D01*
X39313389Y-46549500D01*
X39273728Y-46555781D01*
X39142302Y-46576597D01*
X38977552Y-46630128D01*
X38823211Y-46708768D01*
X38743256Y-46766859D01*
X38683072Y-46810586D01*
X38683070Y-46810588D01*
X38683069Y-46810588D01*
X38560588Y-46933069D01*
X38560588Y-46933070D01*
X38560586Y-46933072D01*
X38516859Y-46993256D01*
X38458768Y-47073211D01*
X38380128Y-47227552D01*
X38326597Y-47392302D01*
X38299500Y-47563389D01*
X38299500Y-47736611D01*
X18500500Y-47736611D01*
X18500500Y-45196611D01*
X38299500Y-45196611D01*
X38326598Y-45367701D01*
X38380127Y-45532445D01*
X38458768Y-45686788D01*
X38560586Y-45826928D01*
X38683072Y-45949414D01*
X38823212Y-46051232D01*
X38977555Y-46129873D01*
X39142299Y-46183402D01*
X39313389Y-46210500D01*
X39313390Y-46210500D01*
X40286610Y-46210500D01*
X40286611Y-46210500D01*
X40457701Y-46183402D01*
X40622445Y-46129873D01*
X40776788Y-46051232D01*
X40916928Y-45949414D01*
X41039414Y-45826928D01*
X41141232Y-45686788D01*
X41219873Y-45532445D01*
X41273402Y-45367701D01*
X41300500Y-45196611D01*
X41300500Y-45023389D01*
X41273402Y-44852299D01*
X41219873Y-44687555D01*
X41141232Y-44533212D01*
X41039414Y-44393072D01*
X40916928Y-44270586D01*
X40776788Y-44168768D01*
X40622445Y-44090127D01*
X40457701Y-44036598D01*
X40457699Y-44036597D01*
X40457698Y-44036597D01*
X40326271Y-44015781D01*
X40286611Y-44009500D01*
X39313389Y-44009500D01*
X39273728Y-44015781D01*
X39142302Y-44036597D01*
X38977552Y-44090128D01*
X38823211Y-44168768D01*
X38743256Y-44226859D01*
X38683072Y-44270586D01*
X38683070Y-44270588D01*
X38683069Y-44270588D01*
X38560588Y-44393069D01*
X38560588Y-44393070D01*
X38560586Y-44393072D01*
X38522743Y-44445158D01*
X38458768Y-44533211D01*
X38380128Y-44687552D01*
X38326597Y-44852302D01*
X38299500Y-45023389D01*
X38299500Y-45196611D01*
X18500500Y-45196611D01*
X18500500Y-42656611D01*
X38299500Y-42656611D01*
X38326598Y-42827701D01*
X38380127Y-42992445D01*
X38458768Y-43146788D01*
X38560586Y-43286928D01*
X38683072Y-43409414D01*
X38823212Y-43511232D01*
X38977555Y-43589873D01*
X39142299Y-43643402D01*
X39313389Y-43670500D01*
X39313390Y-43670500D01*
X40286610Y-43670500D01*
X40286611Y-43670500D01*
X40457701Y-43643402D01*
X40622445Y-43589873D01*
X40776788Y-43511232D01*
X40916928Y-43409414D01*
X41039414Y-43286928D01*
X41141232Y-43146788D01*
X41219873Y-42992445D01*
X41273402Y-42827701D01*
X41300500Y-42656611D01*
X41300500Y-42483389D01*
X41273402Y-42312299D01*
X41219873Y-42147555D01*
X41141232Y-41993212D01*
X41039414Y-41853072D01*
X40916928Y-41730586D01*
X40776788Y-41628768D01*
X40622445Y-41550127D01*
X40457701Y-41496598D01*
X40457699Y-41496597D01*
X40457698Y-41496597D01*
X40299434Y-41471531D01*
X40286611Y-41469500D01*
X39313389Y-41469500D01*
X39300566Y-41471531D01*
X39142302Y-41496597D01*
X38977552Y-41550128D01*
X38823211Y-41628768D01*
X38743256Y-41686859D01*
X38683072Y-41730586D01*
X38683070Y-41730588D01*
X38683069Y-41730588D01*
X38560588Y-41853069D01*
X38560588Y-41853070D01*
X38560586Y-41853072D01*
X38516859Y-41913256D01*
X38458768Y-41993211D01*
X38380128Y-42147552D01*
X38326597Y-42312302D01*
X38315535Y-42382145D01*
X38299500Y-42483389D01*
X38299500Y-42656611D01*
X18500500Y-42656611D01*
X18500500Y-40116611D01*
X38299500Y-40116611D01*
X38326598Y-40287701D01*
X38380127Y-40452445D01*
X38458768Y-40606788D01*
X38560586Y-40746928D01*
X38683072Y-40869414D01*
X38823212Y-40971232D01*
X38977555Y-41049873D01*
X39142299Y-41103402D01*
X39313389Y-41130500D01*
X39313390Y-41130500D01*
X40286610Y-41130500D01*
X40286611Y-41130500D01*
X40457701Y-41103402D01*
X40622445Y-41049873D01*
X40776788Y-40971232D01*
X40916928Y-40869414D01*
X41039414Y-40746928D01*
X41141232Y-40606788D01*
X41219873Y-40452445D01*
X41273402Y-40287701D01*
X41300500Y-40116611D01*
X41300500Y-39943389D01*
X41273402Y-39772299D01*
X41219873Y-39607555D01*
X41141232Y-39453212D01*
X41039414Y-39313072D01*
X40916928Y-39190586D01*
X40776788Y-39088768D01*
X40622445Y-39010127D01*
X40457701Y-38956598D01*
X40457699Y-38956597D01*
X40457698Y-38956597D01*
X40299434Y-38931531D01*
X40286611Y-38929500D01*
X39313389Y-38929500D01*
X39300566Y-38931531D01*
X39142302Y-38956597D01*
X38977552Y-39010128D01*
X38823211Y-39088768D01*
X38743256Y-39146859D01*
X38683072Y-39190586D01*
X38683070Y-39190588D01*
X38683069Y-39190588D01*
X38560588Y-39313069D01*
X38560588Y-39313070D01*
X38560586Y-39313072D01*
X38516859Y-39373256D01*
X38458768Y-39453211D01*
X38380128Y-39607552D01*
X38326597Y-39772302D01*
X38299500Y-39943389D01*
X38299500Y-40116611D01*
X18500500Y-40116611D01*
X18500500Y-37576611D01*
X38299500Y-37576611D01*
X38326598Y-37747701D01*
X38380127Y-37912445D01*
X38458768Y-38066788D01*
X38560586Y-38206928D01*
X38683072Y-38329414D01*
X38823212Y-38431232D01*
X38977555Y-38509873D01*
X39142299Y-38563402D01*
X39313389Y-38590500D01*
X39313390Y-38590500D01*
X40286610Y-38590500D01*
X40286611Y-38590500D01*
X40457701Y-38563402D01*
X40622445Y-38509873D01*
X40776788Y-38431232D01*
X40916928Y-38329414D01*
X41039414Y-38206928D01*
X41141232Y-38066788D01*
X41219873Y-37912445D01*
X41273402Y-37747701D01*
X41300500Y-37576611D01*
X41300500Y-37403389D01*
X41273402Y-37232299D01*
X41219873Y-37067555D01*
X41141232Y-36913212D01*
X41039414Y-36773072D01*
X40916928Y-36650586D01*
X40776788Y-36548768D01*
X40622445Y-36470127D01*
X40457701Y-36416598D01*
X40457699Y-36416597D01*
X40457698Y-36416597D01*
X40299434Y-36391531D01*
X40286611Y-36389500D01*
X39313389Y-36389500D01*
X39300566Y-36391531D01*
X39142302Y-36416597D01*
X38977552Y-36470128D01*
X38823211Y-36548768D01*
X38743256Y-36606859D01*
X38683072Y-36650586D01*
X38683070Y-36650588D01*
X38683069Y-36650588D01*
X38560588Y-36773069D01*
X38560588Y-36773070D01*
X38560586Y-36773072D01*
X38516859Y-36833256D01*
X38458768Y-36913211D01*
X38380128Y-37067552D01*
X38326597Y-37232302D01*
X38299500Y-37403389D01*
X38299500Y-37576611D01*
X18500500Y-37576611D01*
X18500500Y-35036611D01*
X38299500Y-35036611D01*
X38326598Y-35207701D01*
X38380127Y-35372445D01*
X38458768Y-35526788D01*
X38560586Y-35666928D01*
X38683072Y-35789414D01*
X38823212Y-35891232D01*
X38977555Y-35969873D01*
X39142299Y-36023402D01*
X39313389Y-36050500D01*
X39313390Y-36050500D01*
X40286610Y-36050500D01*
X40286611Y-36050500D01*
X40457701Y-36023402D01*
X40622445Y-35969873D01*
X40776788Y-35891232D01*
X40916928Y-35789414D01*
X41039414Y-35666928D01*
X41141232Y-35526788D01*
X41219873Y-35372445D01*
X41273402Y-35207701D01*
X41300500Y-35036611D01*
X41300500Y-34863389D01*
X41273402Y-34692299D01*
X41219873Y-34527555D01*
X41141232Y-34373212D01*
X41039414Y-34233072D01*
X40916928Y-34110586D01*
X40776788Y-34008768D01*
X40622445Y-33930127D01*
X40457701Y-33876598D01*
X40457699Y-33876597D01*
X40457698Y-33876597D01*
X40299434Y-33851531D01*
X40286611Y-33849500D01*
X39313389Y-33849500D01*
X39300566Y-33851531D01*
X39142302Y-33876597D01*
X38977552Y-33930128D01*
X38823211Y-34008768D01*
X38743256Y-34066859D01*
X38683072Y-34110586D01*
X38683070Y-34110588D01*
X38683069Y-34110588D01*
X38560588Y-34233069D01*
X38560588Y-34233070D01*
X38560586Y-34233072D01*
X38516859Y-34293256D01*
X38458768Y-34373211D01*
X38380128Y-34527552D01*
X38326597Y-34692302D01*
X38299500Y-34863389D01*
X38299500Y-35036611D01*
X18500500Y-35036611D01*
X18500500Y-31503750D01*
X18500726Y-31496263D01*
X18513145Y-31290945D01*
X18518271Y-31206201D01*
X18520076Y-31191340D01*
X18529812Y-31138216D01*
X18571780Y-30909197D01*
X18575364Y-30894663D01*
X18576857Y-30889873D01*
X18660696Y-30620822D01*
X18665998Y-30606841D01*
X18783731Y-30345249D01*
X18790676Y-30332016D01*
X18939080Y-30086526D01*
X18947567Y-30074230D01*
X19124480Y-29848417D01*
X19134395Y-29837226D01*
X19337226Y-29634395D01*
X19348417Y-29624480D01*
X19574230Y-29447567D01*
X19586526Y-29439080D01*
X19832016Y-29290676D01*
X19845249Y-29283731D01*
X20106841Y-29165998D01*
X20120822Y-29160696D01*
X20394668Y-29075362D01*
X20409197Y-29071780D01*
X20691344Y-29020075D01*
X20706201Y-29018271D01*
X20996264Y-29000726D01*
X21003751Y-29000500D01*
X21065892Y-29000500D01*
X38428072Y-29000500D01*
X38495111Y-29020185D01*
G37*
%TD.AperFunction*%
%TA.AperFunction,Conductor*%
G36*
X41458022Y-65427523D02*
G01*
X41509073Y-65458308D01*
X44383181Y-68332416D01*
X44416666Y-68393739D01*
X44419500Y-68420097D01*
X44419500Y-73515748D01*
X44399815Y-73582787D01*
X44347011Y-73628542D01*
X44277853Y-73638486D01*
X44269365Y-73636861D01*
X44135139Y-73615602D01*
X44096611Y-73609500D01*
X43923389Y-73609500D01*
X43883728Y-73615781D01*
X43752302Y-73636597D01*
X43587557Y-73690126D01*
X43587546Y-73690131D01*
X43549778Y-73709374D01*
X43481109Y-73722269D01*
X43416369Y-73695991D01*
X43405805Y-73686569D01*
X38944344Y-69225108D01*
X38910859Y-69163785D01*
X38915843Y-69094093D01*
X38957715Y-69038160D01*
X39023179Y-69013743D01*
X39070344Y-69019496D01*
X39142415Y-69042914D01*
X39313429Y-69070000D01*
X40286571Y-69070000D01*
X40457585Y-69042913D01*
X40457588Y-69042913D01*
X40504211Y-69027764D01*
X39846447Y-68370000D01*
X39852661Y-68370000D01*
X39954394Y-68342741D01*
X40045606Y-68290080D01*
X40120080Y-68215606D01*
X40172741Y-68124394D01*
X40200000Y-68022661D01*
X40200000Y-68016447D01*
X40954594Y-68771041D01*
X41039032Y-68686602D01*
X41140804Y-68546524D01*
X41219408Y-68392257D01*
X41272914Y-68227584D01*
X41300000Y-68056571D01*
X41300000Y-67883428D01*
X41272914Y-67712415D01*
X41219408Y-67547742D01*
X41140804Y-67393475D01*
X41039032Y-67253397D01*
X40954594Y-67168959D01*
X40200000Y-67923553D01*
X40200000Y-67917339D01*
X40172741Y-67815606D01*
X40120080Y-67724394D01*
X40045606Y-67649920D01*
X39954394Y-67597259D01*
X39852661Y-67570000D01*
X39846448Y-67570000D01*
X40504211Y-66912235D01*
X40457582Y-66897085D01*
X40286571Y-66870000D01*
X39313429Y-66870000D01*
X39142423Y-66897084D01*
X39142411Y-66897087D01*
X39095787Y-66912235D01*
X39753553Y-67570000D01*
X39747339Y-67570000D01*
X39645606Y-67597259D01*
X39554394Y-67649920D01*
X39479920Y-67724394D01*
X39427259Y-67815606D01*
X39400000Y-67917339D01*
X39400000Y-67923553D01*
X38636819Y-67160372D01*
X38603334Y-67099049D01*
X38600500Y-67072691D01*
X38600500Y-66452786D01*
X38620185Y-66385747D01*
X38672989Y-66339992D01*
X38742147Y-66330048D01*
X38797385Y-66352467D01*
X38823212Y-66371232D01*
X38977555Y-66449873D01*
X39142299Y-66503402D01*
X39313389Y-66530500D01*
X39313390Y-66530500D01*
X40286610Y-66530500D01*
X40286611Y-66530500D01*
X40457701Y-66503402D01*
X40622445Y-66449873D01*
X40776788Y-66371232D01*
X40916928Y-66269414D01*
X41039414Y-66146928D01*
X41141232Y-66006788D01*
X41219873Y-65852445D01*
X41273402Y-65687701D01*
X41298919Y-65526589D01*
X41328848Y-65463457D01*
X41388159Y-65426525D01*
X41458022Y-65427523D01*
G37*
%TD.AperFunction*%
%TA.AperFunction,Conductor*%
G36*
X53495111Y-29020185D02*
G01*
X53540866Y-29072989D01*
X53550810Y-29142147D01*
X53528390Y-29197386D01*
X53458768Y-29293211D01*
X53380128Y-29447552D01*
X53326597Y-29612302D01*
X53299500Y-29783389D01*
X53299500Y-29956610D01*
X53320078Y-30086540D01*
X53326598Y-30127701D01*
X53380127Y-30292445D01*
X53458768Y-30446788D01*
X53560586Y-30586928D01*
X53683072Y-30709414D01*
X53823212Y-30811232D01*
X53977555Y-30889873D01*
X54142299Y-30943402D01*
X54313389Y-30970500D01*
X54999903Y-30970500D01*
X55066942Y-30990185D01*
X55087584Y-31006819D01*
X55178584Y-31097819D01*
X55212069Y-31159142D01*
X55207085Y-31228834D01*
X55165213Y-31284767D01*
X55099749Y-31309184D01*
X55090903Y-31309500D01*
X54313389Y-31309500D01*
X54273728Y-31315781D01*
X54142302Y-31336597D01*
X53977552Y-31390128D01*
X53823211Y-31468768D01*
X53743256Y-31526859D01*
X53683072Y-31570586D01*
X53683070Y-31570588D01*
X53683069Y-31570588D01*
X53560588Y-31693069D01*
X53560588Y-31693070D01*
X53560586Y-31693072D01*
X53516859Y-31753256D01*
X53458768Y-31833211D01*
X53380128Y-31987552D01*
X53326597Y-32152302D01*
X53299500Y-32323389D01*
X53299500Y-32496611D01*
X53326598Y-32667701D01*
X53380127Y-32832445D01*
X53458768Y-32986788D01*
X53560586Y-33126928D01*
X53683072Y-33249414D01*
X53823212Y-33351232D01*
X53977555Y-33429873D01*
X54142299Y-33483402D01*
X54313389Y-33510500D01*
X54313390Y-33510500D01*
X55286610Y-33510500D01*
X55286611Y-33510500D01*
X55457701Y-33483402D01*
X55537184Y-33457575D01*
X55607022Y-33455581D01*
X55666855Y-33491661D01*
X55697684Y-33554361D01*
X55699500Y-33575507D01*
X55699500Y-33784492D01*
X55679815Y-33851531D01*
X55627011Y-33897286D01*
X55557853Y-33907230D01*
X55537182Y-33902423D01*
X55457698Y-33876597D01*
X55299434Y-33851531D01*
X55286611Y-33849500D01*
X54313389Y-33849500D01*
X54300566Y-33851531D01*
X54142302Y-33876597D01*
X53977552Y-33930128D01*
X53823211Y-34008768D01*
X53743256Y-34066859D01*
X53683072Y-34110586D01*
X53683070Y-34110588D01*
X53683069Y-34110588D01*
X53560588Y-34233069D01*
X53560588Y-34233070D01*
X53560586Y-34233072D01*
X53516859Y-34293256D01*
X53458768Y-34373211D01*
X53380128Y-34527552D01*
X53326597Y-34692302D01*
X53299500Y-34863389D01*
X53299500Y-35036611D01*
X53326598Y-35207701D01*
X53380127Y-35372445D01*
X53458768Y-35526788D01*
X53560586Y-35666928D01*
X53683072Y-35789414D01*
X53823212Y-35891232D01*
X53977555Y-35969873D01*
X54142299Y-36023402D01*
X54313389Y-36050500D01*
X54313390Y-36050500D01*
X55286610Y-36050500D01*
X55286611Y-36050500D01*
X55457701Y-36023402D01*
X55537184Y-35997575D01*
X55607022Y-35995581D01*
X55666855Y-36031661D01*
X55697684Y-36094361D01*
X55699500Y-36115507D01*
X55699500Y-36324492D01*
X55679815Y-36391531D01*
X55627011Y-36437286D01*
X55557853Y-36447230D01*
X55537182Y-36442423D01*
X55457698Y-36416597D01*
X55299434Y-36391531D01*
X55286611Y-36389500D01*
X54313389Y-36389500D01*
X54300566Y-36391531D01*
X54142302Y-36416597D01*
X53977552Y-36470128D01*
X53823211Y-36548768D01*
X53743256Y-36606859D01*
X53683072Y-36650586D01*
X53683070Y-36650588D01*
X53683069Y-36650588D01*
X53560588Y-36773069D01*
X53560588Y-36773070D01*
X53560586Y-36773072D01*
X53516859Y-36833256D01*
X53458768Y-36913211D01*
X53380128Y-37067552D01*
X53326597Y-37232302D01*
X53299500Y-37403389D01*
X53299500Y-37576611D01*
X53326598Y-37747701D01*
X53380127Y-37912445D01*
X53458768Y-38066788D01*
X53560586Y-38206928D01*
X53683072Y-38329414D01*
X53823212Y-38431232D01*
X53977555Y-38509873D01*
X54142299Y-38563402D01*
X54313389Y-38590500D01*
X54313390Y-38590500D01*
X55286610Y-38590500D01*
X55286611Y-38590500D01*
X55457701Y-38563402D01*
X55537184Y-38537575D01*
X55607022Y-38535581D01*
X55666855Y-38571661D01*
X55697684Y-38634361D01*
X55699500Y-38655507D01*
X55699500Y-38864492D01*
X55679815Y-38931531D01*
X55627011Y-38977286D01*
X55557853Y-38987230D01*
X55537182Y-38982423D01*
X55457698Y-38956597D01*
X55299434Y-38931531D01*
X55286611Y-38929500D01*
X54313389Y-38929500D01*
X54300566Y-38931531D01*
X54142302Y-38956597D01*
X53977552Y-39010128D01*
X53823211Y-39088768D01*
X53743256Y-39146859D01*
X53683072Y-39190586D01*
X53683070Y-39190588D01*
X53683069Y-39190588D01*
X53560588Y-39313069D01*
X53560588Y-39313070D01*
X53560586Y-39313072D01*
X53516859Y-39373256D01*
X53458768Y-39453211D01*
X53380128Y-39607552D01*
X53326597Y-39772302D01*
X53299500Y-39943389D01*
X53299500Y-40116611D01*
X53326598Y-40287701D01*
X53380127Y-40452445D01*
X53458768Y-40606788D01*
X53560586Y-40746928D01*
X53683072Y-40869414D01*
X53823212Y-40971232D01*
X53977555Y-41049873D01*
X54142299Y-41103402D01*
X54313389Y-41130500D01*
X54313390Y-41130500D01*
X55286610Y-41130500D01*
X55286611Y-41130500D01*
X55457701Y-41103402D01*
X55537184Y-41077575D01*
X55607022Y-41075581D01*
X55666855Y-41111661D01*
X55697684Y-41174361D01*
X55699500Y-41195507D01*
X55699500Y-41404492D01*
X55679815Y-41471531D01*
X55627011Y-41517286D01*
X55557853Y-41527230D01*
X55537182Y-41522423D01*
X55457698Y-41496597D01*
X55299434Y-41471531D01*
X55286611Y-41469500D01*
X54313389Y-41469500D01*
X54300566Y-41471531D01*
X54142302Y-41496597D01*
X53977552Y-41550128D01*
X53823211Y-41628768D01*
X53743256Y-41686859D01*
X53683072Y-41730586D01*
X53683070Y-41730588D01*
X53683069Y-41730588D01*
X53560588Y-41853069D01*
X53560588Y-41853070D01*
X53560586Y-41853072D01*
X53516859Y-41913256D01*
X53458768Y-41993211D01*
X53380129Y-42147550D01*
X53331481Y-42297272D01*
X53292043Y-42354947D01*
X53227684Y-42382145D01*
X53158838Y-42370230D01*
X53125869Y-42346634D01*
X41233556Y-30454321D01*
X41200071Y-30392998D01*
X41205055Y-30323306D01*
X41210749Y-30310350D01*
X41219873Y-30292445D01*
X41273402Y-30127701D01*
X41300500Y-29956611D01*
X41300500Y-29783389D01*
X41273402Y-29612299D01*
X41219873Y-29447555D01*
X41141232Y-29293212D01*
X41071609Y-29197385D01*
X41048130Y-29131579D01*
X41063955Y-29063525D01*
X41114061Y-29014830D01*
X41171928Y-29000500D01*
X53428072Y-29000500D01*
X53495111Y-29020185D01*
G37*
%TD.AperFunction*%
%TD*%
M02*
