%TF.GenerationSoftware,KiCad,Pcbnew,8.0.0*%
%TF.CreationDate,2024-02-25T21:16:28-08:00*%
%TF.ProjectId,HuCard-TL866,48754361-7264-42d5-944c-3836362e6b69,rev?*%
%TF.SameCoordinates,Original*%
%TF.FileFunction,Copper,L1,Top*%
%TF.FilePolarity,Positive*%
%FSLAX46Y46*%
G04 Gerber Fmt 4.6, Leading zero omitted, Abs format (unit mm)*
G04 Created by KiCad (PCBNEW 8.0.0) date 2024-02-25 21:16:28*
%MOMM*%
%LPD*%
G01*
G04 APERTURE LIST*
%TA.AperFunction,ComponentPad*%
%ADD10O,2.700000X4.250000*%
%TD*%
%TA.AperFunction,ComponentPad*%
%ADD11O,1.200000X2.000000*%
%TD*%
%TA.AperFunction,ComponentPad*%
%ADD12O,2.000000X1.200000*%
%TD*%
%TA.AperFunction,ViaPad*%
%ADD13C,0.600000*%
%TD*%
%TA.AperFunction,Conductor*%
%ADD14C,0.200000*%
%TD*%
G04 APERTURE END LIST*
D10*
%TO.P,J2,0*%
%TO.N,N/C*%
X79600000Y-118750000D03*
X79600000Y-79750000D03*
X20700000Y-118750000D03*
X20700000Y-79750000D03*
D11*
%TO.P,J2,1,Pin_1*%
%TO.N,/VCC*%
X73220000Y-77650000D03*
%TO.P,J2,2,Pin_2*%
%TO.N,unconnected-(J2-Pin_2-Pad2)*%
X71950000Y-75110000D03*
%TO.P,J2,3,Pin_3*%
%TO.N,unconnected-(J2-Pin_3-Pad3)*%
X70680000Y-77650000D03*
%TO.P,J2,4,Pin_4*%
%TO.N,unconnected-(J2-Pin_4-Pad4)*%
X69410000Y-75110000D03*
%TO.P,J2,5,Pin_5*%
%TO.N,/WE*%
X68140000Y-77650000D03*
%TO.P,J2,6,Pin_6*%
%TO.N,/A18*%
X66870000Y-75110000D03*
%TO.P,J2,7,Pin_7*%
%TO.N,/A17*%
X65600000Y-77650000D03*
%TO.P,J2,8,Pin_8*%
%TO.N,/A14*%
X64330000Y-75110000D03*
%TO.P,J2,9,Pin_9*%
%TO.N,/A13*%
X63060000Y-77650000D03*
%TO.P,J2,10,Pin_10*%
%TO.N,/A8*%
X61790000Y-75110000D03*
%TO.P,J2,11,Pin_11*%
%TO.N,/A9*%
X60520000Y-77650000D03*
%TO.P,J2,12,Pin_12*%
%TO.N,/A11*%
X59250000Y-75110000D03*
%TO.P,J2,13,Pin_13*%
%TO.N,/OE*%
X57980000Y-77650000D03*
%TO.P,J2,14,Pin_14*%
%TO.N,/A10*%
X56710000Y-75110000D03*
%TO.P,J2,15,Pin_15*%
%TO.N,/CE*%
X55440000Y-77650000D03*
%TO.P,J2,16,Pin_16*%
%TO.N,/DQ7*%
X54170000Y-75110000D03*
%TO.P,J2,17,Pin_17*%
%TO.N,/DQ6*%
X52900000Y-77650000D03*
%TO.P,J2,18,Pin_18*%
%TO.N,/DQ5*%
X51630000Y-75110000D03*
%TO.P,J2,19,Pin_19*%
%TO.N,/DQ4*%
X50360000Y-77650000D03*
%TO.P,J2,20,Pin_20*%
%TO.N,/DQ3*%
X49090000Y-75110000D03*
%TO.P,J2,21,Pin_21*%
%TO.N,/GND*%
X47820000Y-77650000D03*
%TO.P,J2,22,Pin_22*%
%TO.N,/DQ2*%
X46550000Y-75110000D03*
%TO.P,J2,23,Pin_23*%
%TO.N,/DQ1*%
X45280000Y-77650000D03*
%TO.P,J2,24,Pin_24*%
%TO.N,/DQ0*%
X44010000Y-75110000D03*
%TO.P,J2,25,Pin_25*%
%TO.N,/A0*%
X42740000Y-77650000D03*
%TO.P,J2,26,Pin_26*%
%TO.N,/A1*%
X41470000Y-75110000D03*
%TO.P,J2,27,Pin_27*%
%TO.N,/A2*%
X40200000Y-77650000D03*
%TO.P,J2,28,Pin_28*%
%TO.N,/A3*%
X38930000Y-75110000D03*
%TO.P,J2,29,Pin_29*%
%TO.N,/A4*%
X37660000Y-77650000D03*
%TO.P,J2,30,Pin_30*%
%TO.N,/A5*%
X36390000Y-75110000D03*
%TO.P,J2,31,Pin_31*%
%TO.N,/A6*%
X35120000Y-77650000D03*
%TO.P,J2,32,Pin_32*%
%TO.N,/A7*%
X33850000Y-75110000D03*
%TO.P,J2,33,Pin_33*%
%TO.N,/A12*%
X32580000Y-77650000D03*
%TO.P,J2,34,Pin_34*%
%TO.N,/A15*%
X31310000Y-75110000D03*
%TO.P,J2,35,Pin_35*%
%TO.N,/A16*%
X30040000Y-77650000D03*
%TO.P,J2,36,Pin_36*%
%TO.N,unconnected-(J2-Pin_36-Pad36)*%
X28770000Y-75110000D03*
%TO.P,J2,37,Pin_37*%
%TO.N,unconnected-(J2-Pin_37-Pad37)*%
X27500000Y-77650000D03*
%TO.P,J2,38,Pin_38*%
%TO.N,/GND*%
X26230000Y-75110000D03*
%TD*%
D12*
%TO.P,J1,1,Pin_1*%
%TO.N,/A18*%
X39800000Y-29870000D03*
%TO.P,J1,2,Pin_2*%
%TO.N,/A16*%
X39800000Y-32410000D03*
%TO.P,J1,3,Pin_3*%
%TO.N,/A15*%
X39800000Y-34950000D03*
%TO.P,J1,4,Pin_4*%
%TO.N,/A12*%
X39800000Y-37490000D03*
%TO.P,J1,5,Pin_5*%
%TO.N,/A7*%
X39800000Y-40030000D03*
%TO.P,J1,6,Pin_6*%
%TO.N,/A6*%
X39800000Y-42570000D03*
%TO.P,J1,7,Pin_7*%
%TO.N,/A5*%
X39800000Y-45110000D03*
%TO.P,J1,8,Pin_8*%
%TO.N,/A4*%
X39800000Y-47650000D03*
%TO.P,J1,9,Pin_9*%
%TO.N,/A3*%
X39800000Y-50190000D03*
%TO.P,J1,10,Pin_10*%
%TO.N,/A2*%
X39800000Y-52730000D03*
%TO.P,J1,11,Pin_11*%
%TO.N,/A1*%
X39800000Y-55270000D03*
%TO.P,J1,12,Pin_12*%
%TO.N,/A0*%
X39800000Y-57810000D03*
%TO.P,J1,13,Pin_13*%
%TO.N,/DQ0*%
X39800000Y-60350000D03*
%TO.P,J1,14,Pin_14*%
%TO.N,/DQ1*%
X39800000Y-62890000D03*
%TO.P,J1,15,Pin_15*%
%TO.N,/DQ2*%
X39800000Y-65430000D03*
%TO.P,J1,16,Pin_16*%
%TO.N,/GND*%
X39800000Y-67970000D03*
%TO.P,J1,17,Pin_17*%
%TO.N,/DQ3*%
X54800000Y-67970000D03*
%TO.P,J1,18,Pin_18*%
%TO.N,/DQ4*%
X54800000Y-65430000D03*
%TO.P,J1,19,Pin_19*%
%TO.N,/DQ5*%
X54800000Y-62890000D03*
%TO.P,J1,20,Pin_20*%
%TO.N,/DQ6*%
X54800000Y-60350000D03*
%TO.P,J1,21,Pin_21*%
%TO.N,/DQ7*%
X54800000Y-57810000D03*
%TO.P,J1,22,Pin_22*%
%TO.N,/CE*%
X54800000Y-55270000D03*
%TO.P,J1,23,Pin_23*%
%TO.N,/A10*%
X54800000Y-52730000D03*
%TO.P,J1,24,Pin_24*%
%TO.N,/OE*%
X54800000Y-50190000D03*
%TO.P,J1,25,Pin_25*%
%TO.N,/A11*%
X54800000Y-47650000D03*
%TO.P,J1,26,Pin_26*%
%TO.N,/A9*%
X54800000Y-45110000D03*
%TO.P,J1,27,Pin_27*%
%TO.N,/A8*%
X54800000Y-42570000D03*
%TO.P,J1,28,Pin_28*%
%TO.N,/A13*%
X54800000Y-40030000D03*
%TO.P,J1,29,Pin_29*%
%TO.N,/A14*%
X54800000Y-37490000D03*
%TO.P,J1,30,Pin_30*%
%TO.N,/A17*%
X54800000Y-34950000D03*
%TO.P,J1,31,Pin_31*%
%TO.N,/WE*%
X54800000Y-32410000D03*
%TO.P,J1,32,Pin_32*%
%TO.N,/VCC*%
X54800000Y-29870000D03*
%TD*%
D13*
%TO.N,/GND*%
X77700000Y-68100000D03*
X45000000Y-57500000D03*
X49387807Y-33366241D03*
X22000000Y-52500000D03*
X27000000Y-44600000D03*
X73900000Y-55800000D03*
X45000000Y-41500000D03*
X49500000Y-48000000D03*
X49000000Y-63500000D03*
X27000000Y-57500000D03*
X21500000Y-65500000D03*
X77700000Y-46500000D03*
%TD*%
D14*
%TO.N,/A4*%
X37660000Y-73027056D02*
X37660000Y-77650000D01*
X36000000Y-51400000D02*
X39750000Y-47650000D01*
X37266472Y-72633528D02*
X37660000Y-73027056D01*
X36000000Y-71367056D02*
X36000000Y-51400000D01*
X37399999Y-72767055D02*
X37266472Y-72633528D01*
X37266472Y-72633528D02*
X36000000Y-71367056D01*
X39750000Y-47650000D02*
X39800000Y-47650000D01*
%TO.N,/DQ6*%
X57900000Y-63850000D02*
X57900000Y-69217208D01*
X52900000Y-74217208D02*
X52900000Y-77650000D01*
X57900000Y-69217208D02*
X52900000Y-74217208D01*
X54800000Y-60350000D02*
X54800000Y-60750000D01*
X54800000Y-60750000D02*
X57900000Y-63850000D01*
%TO.N,/A12*%
X32580000Y-41920000D02*
X37010000Y-37490000D01*
X32580000Y-77650000D02*
X32580000Y-41920000D01*
X37010000Y-37490000D02*
X39800000Y-37490000D01*
%TO.N,/A3*%
X38930000Y-73731370D02*
X38930000Y-75110000D01*
X38670000Y-73471370D02*
X38499315Y-73300685D01*
X38499315Y-73300685D02*
X36400000Y-71201370D01*
X36400000Y-53990000D02*
X39800000Y-50590000D01*
X36400000Y-71201370D02*
X36400000Y-53990000D01*
X38499315Y-73300685D02*
X38930000Y-73731370D01*
X39800000Y-50590000D02*
X39800000Y-50190000D01*
%TO.N,/A15*%
X36250000Y-35050000D02*
X39700000Y-35050000D01*
X31310000Y-39990000D02*
X36250000Y-35050000D01*
X31310000Y-75110000D02*
X31310000Y-39990000D01*
X39700000Y-35050000D02*
X39800000Y-34950000D01*
X31050000Y-74880000D02*
X31100000Y-74830000D01*
%TO.N,/OE*%
X54800000Y-50190000D02*
X54800000Y-50590000D01*
X59500000Y-71800000D02*
X57980000Y-73320000D01*
X59500000Y-55290000D02*
X59500000Y-71800000D01*
X57980000Y-73320000D02*
X57980000Y-77650000D01*
X54800000Y-50590000D02*
X59500000Y-55290000D01*
%TO.N,/A2*%
X36800000Y-71035685D02*
X36800000Y-56130000D01*
X39800000Y-53130000D02*
X39800000Y-52730000D01*
X39940000Y-74175686D02*
X36800000Y-71035685D01*
X40200000Y-74435686D02*
X40200000Y-77650000D01*
X39940000Y-74175686D02*
X40200000Y-74435686D01*
X36800000Y-56130000D02*
X39800000Y-53130000D01*
%TO.N,/DQ2*%
X42690000Y-65430000D02*
X39800000Y-65430000D01*
X46500000Y-69240000D02*
X42690000Y-65430000D01*
X46500000Y-75060000D02*
X46500000Y-69240000D01*
X46550000Y-75110000D02*
X46500000Y-75060000D01*
%TO.N,/DQ7*%
X54200000Y-73900000D02*
X58300000Y-69800000D01*
X54800000Y-58210000D02*
X54800000Y-57810000D01*
X54200000Y-73900000D02*
X54170000Y-73930000D01*
X58300000Y-61710000D02*
X54800000Y-58210000D01*
X54170000Y-73930000D02*
X54170000Y-75110000D01*
X58300000Y-69800000D02*
X58300000Y-61710000D01*
%TO.N,/DQ5*%
X54800000Y-62890000D02*
X54800000Y-63000000D01*
X52325000Y-73925000D02*
X51630000Y-74620000D01*
X54800000Y-63000000D02*
X56800000Y-65000000D01*
X56800000Y-65000000D02*
X56800000Y-69450000D01*
X56800000Y-69450000D02*
X52325000Y-73925000D01*
X52325000Y-73925000D02*
X51370000Y-74880000D01*
X51630000Y-74620000D02*
X51630000Y-75110000D01*
%TO.N,/A9*%
X60500000Y-77630000D02*
X60520000Y-77650000D01*
X60500000Y-50810000D02*
X60500000Y-77630000D01*
X54800000Y-45110000D02*
X60500000Y-50810000D01*
%TO.N,/A10*%
X54800000Y-53130000D02*
X59100000Y-57430000D01*
X54800000Y-52730000D02*
X54800000Y-53130000D01*
X59100000Y-57430000D02*
X59100000Y-70920000D01*
X56710000Y-73310000D02*
X56710000Y-75110000D01*
X59100000Y-70920000D02*
X56710000Y-73310000D01*
%TO.N,/A16*%
X30040000Y-77650000D02*
X30040000Y-39960000D01*
X29780000Y-77420000D02*
X29800000Y-77400000D01*
X39700000Y-32510000D02*
X39800000Y-32410000D01*
X30040000Y-39960000D02*
X37490000Y-32510000D01*
X37490000Y-32510000D02*
X39700000Y-32510000D01*
%TO.N,/A8*%
X61790000Y-75110000D02*
X61800000Y-75100000D01*
X61800000Y-49570000D02*
X54800000Y-42570000D01*
X61800000Y-75100000D02*
X61800000Y-49570000D01*
X61530000Y-74880000D02*
X61500000Y-74850000D01*
%TO.N,/A11*%
X59288502Y-73188502D02*
X59900000Y-72577004D01*
X59900000Y-72577004D02*
X59900000Y-53150000D01*
X59288502Y-73188502D02*
X59250000Y-73227004D01*
X54800000Y-48050000D02*
X54800000Y-47650000D01*
X59250000Y-73227004D02*
X59250000Y-75110000D01*
X59900000Y-53150000D02*
X54800000Y-48050000D01*
%TO.N,/A6*%
X35120000Y-47650000D02*
X39800000Y-42970000D01*
X35120000Y-77650000D02*
X35120000Y-47650000D01*
X39800000Y-42970000D02*
X39800000Y-42570000D01*
%TO.N,/A1*%
X41470000Y-75110000D02*
X41470000Y-74070000D01*
X37200000Y-69800000D02*
X37200000Y-57870000D01*
X41470000Y-74070000D02*
X41210000Y-73810000D01*
X37200000Y-57870000D02*
X39800000Y-55270000D01*
X41210000Y-73810000D02*
X37200000Y-69800000D01*
%TO.N,/A14*%
X64470000Y-74880000D02*
X64100000Y-74510000D01*
X64070000Y-74880000D02*
X64470000Y-74880000D01*
X64330000Y-75110000D02*
X64330000Y-47420000D01*
X64330000Y-47420000D02*
X54800000Y-37890000D01*
X54800000Y-37890000D02*
X54800000Y-37490000D01*
%TO.N,/A17*%
X54800000Y-34950000D02*
X54800000Y-35350000D01*
X65600000Y-46150000D02*
X65600000Y-77650000D01*
X54800000Y-35350000D02*
X65600000Y-46150000D01*
%TO.N,/CE*%
X54800000Y-55670000D02*
X58700000Y-59570000D01*
X55400000Y-73500000D02*
X55400000Y-77610000D01*
X54800000Y-55270000D02*
X54800000Y-55670000D01*
X58700000Y-70200000D02*
X55400000Y-73500000D01*
X58700000Y-59570000D02*
X58700000Y-70200000D01*
X55400000Y-77610000D02*
X55440000Y-77650000D01*
%TO.N,/A7*%
X33619999Y-74879999D02*
X33600000Y-74860000D01*
X37870000Y-40030000D02*
X39800000Y-40030000D01*
X33850000Y-44050000D02*
X37870000Y-40030000D01*
X33850000Y-75110000D02*
X33850000Y-44050000D01*
X33590000Y-74879999D02*
X33619999Y-74879999D01*
%TO.N,/A5*%
X35600000Y-73360000D02*
X36390000Y-74150000D01*
X35600000Y-49710000D02*
X35600000Y-73360000D01*
X39800000Y-45510000D02*
X35600000Y-49710000D01*
X36390000Y-74150000D02*
X36390000Y-75110000D01*
X39800000Y-45110000D02*
X39800000Y-45510000D01*
%TO.N,/DQ3*%
X54800000Y-68700000D02*
X49090000Y-74410000D01*
X54800000Y-67970000D02*
X54800000Y-68700000D01*
X49090000Y-74410000D02*
X49090000Y-75110000D01*
%TO.N,/A13*%
X63060000Y-77650000D02*
X63060000Y-48290000D01*
X63060000Y-48290000D02*
X54800000Y-40030000D01*
%TO.N,/DQ4*%
X56400000Y-68450000D02*
X50360000Y-74490000D01*
X54800000Y-65430000D02*
X56400000Y-67030000D01*
X56400000Y-67030000D02*
X56400000Y-68450000D01*
X50360000Y-74490000D02*
X50360000Y-77650000D01*
%TO.N,/WE*%
X54800000Y-32810000D02*
X54800000Y-32410000D01*
X68100000Y-46110000D02*
X54800000Y-32810000D01*
X68100000Y-77610000D02*
X68100000Y-46110000D01*
X68140000Y-77650000D02*
X68100000Y-77610000D01*
%TD*%
%TA.AperFunction,Conductor*%
%TO.N,/GND*%
G36*
X38495111Y-29020185D02*
G01*
X38540866Y-29072989D01*
X38550810Y-29142147D01*
X38528390Y-29197386D01*
X38458768Y-29293211D01*
X38380128Y-29447552D01*
X38326597Y-29612302D01*
X38299500Y-29783389D01*
X38299500Y-29956610D01*
X38320078Y-30086540D01*
X38326598Y-30127701D01*
X38380127Y-30292445D01*
X38458768Y-30446788D01*
X38560586Y-30586928D01*
X38683072Y-30709414D01*
X38823212Y-30811232D01*
X38977555Y-30889873D01*
X39142299Y-30943402D01*
X39313389Y-30970500D01*
X39313390Y-30970500D01*
X40286610Y-30970500D01*
X40286611Y-30970500D01*
X40457701Y-30943402D01*
X40622445Y-30889873D01*
X40776788Y-30811232D01*
X40916928Y-30709414D01*
X41039414Y-30586928D01*
X41141232Y-30446788D01*
X41219873Y-30292445D01*
X41273402Y-30127701D01*
X41300500Y-29956611D01*
X41300500Y-29783389D01*
X41273402Y-29612299D01*
X41219873Y-29447555D01*
X41141232Y-29293212D01*
X41071609Y-29197385D01*
X41048130Y-29131579D01*
X41063955Y-29063525D01*
X41114061Y-29014830D01*
X41171928Y-29000500D01*
X53428072Y-29000500D01*
X53495111Y-29020185D01*
X53540866Y-29072989D01*
X53550810Y-29142147D01*
X53528390Y-29197386D01*
X53458768Y-29293211D01*
X53380128Y-29447552D01*
X53326597Y-29612302D01*
X53299500Y-29783389D01*
X53299500Y-29956610D01*
X53320078Y-30086540D01*
X53326598Y-30127701D01*
X53380127Y-30292445D01*
X53458768Y-30446788D01*
X53560586Y-30586928D01*
X53683072Y-30709414D01*
X53823212Y-30811232D01*
X53977555Y-30889873D01*
X54142299Y-30943402D01*
X54313389Y-30970500D01*
X54313390Y-30970500D01*
X55286610Y-30970500D01*
X55286611Y-30970500D01*
X55457701Y-30943402D01*
X55622445Y-30889873D01*
X55776788Y-30811232D01*
X55916928Y-30709414D01*
X56039414Y-30586928D01*
X56141232Y-30446788D01*
X56219873Y-30292445D01*
X56273402Y-30127701D01*
X56300500Y-29956611D01*
X56300500Y-29783389D01*
X56273402Y-29612299D01*
X56219873Y-29447555D01*
X56141232Y-29293212D01*
X56071609Y-29197385D01*
X56048130Y-29131579D01*
X56063955Y-29063525D01*
X56114061Y-29014830D01*
X56171928Y-29000500D01*
X79934108Y-29000500D01*
X79996249Y-29000500D01*
X80003736Y-29000726D01*
X80293796Y-29018271D01*
X80308657Y-29020075D01*
X80366010Y-29030586D01*
X80590798Y-29071780D01*
X80605335Y-29075363D01*
X80879172Y-29160695D01*
X80893163Y-29166000D01*
X81154743Y-29283727D01*
X81167989Y-29290680D01*
X81413465Y-29439075D01*
X81425776Y-29447573D01*
X81636034Y-29612299D01*
X81651573Y-29624473D01*
X81662781Y-29634403D01*
X81865596Y-29837218D01*
X81875526Y-29848426D01*
X81995481Y-30001538D01*
X82052422Y-30074217D01*
X82060928Y-30086540D01*
X82209316Y-30332004D01*
X82216275Y-30345263D01*
X82333997Y-30606831D01*
X82339306Y-30620832D01*
X82424635Y-30894663D01*
X82428219Y-30909201D01*
X82479923Y-31191340D01*
X82481728Y-31206205D01*
X82499274Y-31496263D01*
X82499500Y-31503750D01*
X82499500Y-119996249D01*
X82499274Y-120003736D01*
X82481728Y-120293794D01*
X82479923Y-120308659D01*
X82428219Y-120590798D01*
X82424635Y-120605336D01*
X82339306Y-120879167D01*
X82333997Y-120893168D01*
X82216275Y-121154736D01*
X82209316Y-121167995D01*
X82060928Y-121413459D01*
X82052422Y-121425782D01*
X81875526Y-121651573D01*
X81865596Y-121662781D01*
X81662781Y-121865596D01*
X81651573Y-121875526D01*
X81425782Y-122052422D01*
X81413459Y-122060928D01*
X81167995Y-122209316D01*
X81154736Y-122216275D01*
X80893168Y-122333997D01*
X80879167Y-122339306D01*
X80605336Y-122424635D01*
X80590798Y-122428219D01*
X80308659Y-122479923D01*
X80293794Y-122481728D01*
X80003736Y-122499274D01*
X79996249Y-122499500D01*
X21003751Y-122499500D01*
X20996264Y-122499274D01*
X20706205Y-122481728D01*
X20691340Y-122479923D01*
X20409201Y-122428219D01*
X20394663Y-122424635D01*
X20120832Y-122339306D01*
X20106831Y-122333997D01*
X19845263Y-122216275D01*
X19832004Y-122209316D01*
X19586540Y-122060928D01*
X19574217Y-122052422D01*
X19348426Y-121875526D01*
X19337218Y-121865596D01*
X19134403Y-121662781D01*
X19124473Y-121651573D01*
X18947573Y-121425776D01*
X18939075Y-121413465D01*
X18790680Y-121167989D01*
X18783727Y-121154743D01*
X18666000Y-120893163D01*
X18660693Y-120879167D01*
X18575364Y-120605336D01*
X18571780Y-120590798D01*
X18520076Y-120308659D01*
X18518271Y-120293794D01*
X18500726Y-120003736D01*
X18500500Y-119996249D01*
X18500500Y-119646288D01*
X18849500Y-119646288D01*
X18881161Y-119886785D01*
X18943947Y-120121104D01*
X19015478Y-120293794D01*
X19036776Y-120345212D01*
X19158064Y-120555289D01*
X19158066Y-120555292D01*
X19158067Y-120555293D01*
X19305733Y-120747736D01*
X19305739Y-120747743D01*
X19477256Y-120919260D01*
X19477262Y-120919265D01*
X19669711Y-121066936D01*
X19879788Y-121188224D01*
X20103900Y-121281054D01*
X20338211Y-121343838D01*
X20518586Y-121367584D01*
X20578711Y-121375500D01*
X20578712Y-121375500D01*
X20821289Y-121375500D01*
X20869388Y-121369167D01*
X21061789Y-121343838D01*
X21296100Y-121281054D01*
X21520212Y-121188224D01*
X21730289Y-121066936D01*
X21922738Y-120919265D01*
X22094265Y-120747738D01*
X22241936Y-120555289D01*
X22363224Y-120345212D01*
X22456054Y-120121100D01*
X22518838Y-119886789D01*
X22550500Y-119646288D01*
X77749500Y-119646288D01*
X77781161Y-119886785D01*
X77843947Y-120121104D01*
X77915478Y-120293794D01*
X77936776Y-120345212D01*
X78058064Y-120555289D01*
X78058066Y-120555292D01*
X78058067Y-120555293D01*
X78205733Y-120747736D01*
X78205739Y-120747743D01*
X78377256Y-120919260D01*
X78377262Y-120919265D01*
X78569711Y-121066936D01*
X78779788Y-121188224D01*
X79003900Y-121281054D01*
X79238211Y-121343838D01*
X79418586Y-121367584D01*
X79478711Y-121375500D01*
X79478712Y-121375500D01*
X79721289Y-121375500D01*
X79769388Y-121369167D01*
X79961789Y-121343838D01*
X80196100Y-121281054D01*
X80420212Y-121188224D01*
X80630289Y-121066936D01*
X80822738Y-120919265D01*
X80994265Y-120747738D01*
X81141936Y-120555289D01*
X81263224Y-120345212D01*
X81356054Y-120121100D01*
X81418838Y-119886789D01*
X81450500Y-119646288D01*
X81450500Y-117853712D01*
X81418838Y-117613211D01*
X81356054Y-117378900D01*
X81263224Y-117154788D01*
X81141936Y-116944711D01*
X80994265Y-116752262D01*
X80994260Y-116752256D01*
X80822743Y-116580739D01*
X80822736Y-116580733D01*
X80630293Y-116433067D01*
X80630292Y-116433066D01*
X80630289Y-116433064D01*
X80420212Y-116311776D01*
X80420205Y-116311773D01*
X80196104Y-116218947D01*
X79961785Y-116156161D01*
X79721289Y-116124500D01*
X79721288Y-116124500D01*
X79478712Y-116124500D01*
X79478711Y-116124500D01*
X79238214Y-116156161D01*
X79003895Y-116218947D01*
X78779794Y-116311773D01*
X78779785Y-116311777D01*
X78569706Y-116433067D01*
X78377263Y-116580733D01*
X78377256Y-116580739D01*
X78205739Y-116752256D01*
X78205733Y-116752263D01*
X78058067Y-116944706D01*
X77936777Y-117154785D01*
X77936773Y-117154794D01*
X77843947Y-117378895D01*
X77781161Y-117613214D01*
X77749500Y-117853711D01*
X77749500Y-119646288D01*
X22550500Y-119646288D01*
X22550500Y-117853712D01*
X22518838Y-117613211D01*
X22456054Y-117378900D01*
X22363224Y-117154788D01*
X22241936Y-116944711D01*
X22094265Y-116752262D01*
X22094260Y-116752256D01*
X21922743Y-116580739D01*
X21922736Y-116580733D01*
X21730293Y-116433067D01*
X21730292Y-116433066D01*
X21730289Y-116433064D01*
X21520212Y-116311776D01*
X21520205Y-116311773D01*
X21296104Y-116218947D01*
X21061785Y-116156161D01*
X20821289Y-116124500D01*
X20821288Y-116124500D01*
X20578712Y-116124500D01*
X20578711Y-116124500D01*
X20338214Y-116156161D01*
X20103895Y-116218947D01*
X19879794Y-116311773D01*
X19879785Y-116311777D01*
X19669706Y-116433067D01*
X19477263Y-116580733D01*
X19477256Y-116580739D01*
X19305739Y-116752256D01*
X19305733Y-116752263D01*
X19158067Y-116944706D01*
X19036777Y-117154785D01*
X19036773Y-117154794D01*
X18943947Y-117378895D01*
X18881161Y-117613214D01*
X18849500Y-117853711D01*
X18849500Y-119646288D01*
X18500500Y-119646288D01*
X18500500Y-80646288D01*
X18849500Y-80646288D01*
X18881161Y-80886785D01*
X18943947Y-81121104D01*
X19036773Y-81345205D01*
X19036776Y-81345212D01*
X19158064Y-81555289D01*
X19158066Y-81555292D01*
X19158067Y-81555293D01*
X19305733Y-81747736D01*
X19305739Y-81747743D01*
X19477256Y-81919260D01*
X19477262Y-81919265D01*
X19669711Y-82066936D01*
X19879788Y-82188224D01*
X20103900Y-82281054D01*
X20338211Y-82343838D01*
X20518586Y-82367584D01*
X20578711Y-82375500D01*
X20578712Y-82375500D01*
X20821289Y-82375500D01*
X20869388Y-82369167D01*
X21061789Y-82343838D01*
X21296100Y-82281054D01*
X21520212Y-82188224D01*
X21730289Y-82066936D01*
X21922738Y-81919265D01*
X22094265Y-81747738D01*
X22241936Y-81555289D01*
X22363224Y-81345212D01*
X22456054Y-81121100D01*
X22518838Y-80886789D01*
X22550500Y-80646288D01*
X77749500Y-80646288D01*
X77781161Y-80886785D01*
X77843947Y-81121104D01*
X77936773Y-81345205D01*
X77936776Y-81345212D01*
X78058064Y-81555289D01*
X78058066Y-81555292D01*
X78058067Y-81555293D01*
X78205733Y-81747736D01*
X78205739Y-81747743D01*
X78377256Y-81919260D01*
X78377262Y-81919265D01*
X78569711Y-82066936D01*
X78779788Y-82188224D01*
X79003900Y-82281054D01*
X79238211Y-82343838D01*
X79418586Y-82367584D01*
X79478711Y-82375500D01*
X79478712Y-82375500D01*
X79721289Y-82375500D01*
X79769388Y-82369167D01*
X79961789Y-82343838D01*
X80196100Y-82281054D01*
X80420212Y-82188224D01*
X80630289Y-82066936D01*
X80822738Y-81919265D01*
X80994265Y-81747738D01*
X81141936Y-81555289D01*
X81263224Y-81345212D01*
X81356054Y-81121100D01*
X81418838Y-80886789D01*
X81450500Y-80646288D01*
X81450500Y-78853712D01*
X81418838Y-78613211D01*
X81356054Y-78378900D01*
X81263224Y-78154788D01*
X81141936Y-77944711D01*
X80994265Y-77752262D01*
X80994260Y-77752256D01*
X80822743Y-77580739D01*
X80822736Y-77580733D01*
X80630293Y-77433067D01*
X80630292Y-77433066D01*
X80630289Y-77433064D01*
X80420212Y-77311776D01*
X80420205Y-77311773D01*
X80196104Y-77218947D01*
X79961785Y-77156161D01*
X79721289Y-77124500D01*
X79721288Y-77124500D01*
X79478712Y-77124500D01*
X79478711Y-77124500D01*
X79238214Y-77156161D01*
X79003895Y-77218947D01*
X78779794Y-77311773D01*
X78779785Y-77311777D01*
X78569706Y-77433067D01*
X78377263Y-77580733D01*
X78377256Y-77580739D01*
X78205739Y-77752256D01*
X78205733Y-77752263D01*
X78058067Y-77944706D01*
X77936777Y-78154785D01*
X77936773Y-78154794D01*
X77843947Y-78378895D01*
X77781161Y-78613214D01*
X77749500Y-78853711D01*
X77749500Y-80646288D01*
X22550500Y-80646288D01*
X22550500Y-78853712D01*
X22518838Y-78613211D01*
X22456054Y-78378900D01*
X22363224Y-78154788D01*
X22241936Y-77944711D01*
X22094265Y-77752262D01*
X22094260Y-77752256D01*
X21922743Y-77580739D01*
X21922736Y-77580733D01*
X21730293Y-77433067D01*
X21730292Y-77433066D01*
X21730289Y-77433064D01*
X21520212Y-77311776D01*
X21520205Y-77311773D01*
X21296104Y-77218947D01*
X21061785Y-77156161D01*
X20821289Y-77124500D01*
X20821288Y-77124500D01*
X20578712Y-77124500D01*
X20578711Y-77124500D01*
X20338214Y-77156161D01*
X20103895Y-77218947D01*
X19879794Y-77311773D01*
X19879785Y-77311777D01*
X19669706Y-77433067D01*
X19477263Y-77580733D01*
X19477256Y-77580739D01*
X19305739Y-77752256D01*
X19305733Y-77752263D01*
X19158067Y-77944706D01*
X19036777Y-78154785D01*
X19036773Y-78154794D01*
X18943947Y-78378895D01*
X18881161Y-78613214D01*
X18849500Y-78853711D01*
X18849500Y-80646288D01*
X18500500Y-80646288D01*
X18500500Y-75596571D01*
X25130000Y-75596571D01*
X25157085Y-75767582D01*
X25172235Y-75814211D01*
X25830000Y-75156446D01*
X25830000Y-75162661D01*
X25857259Y-75264394D01*
X25909920Y-75355606D01*
X25984394Y-75430080D01*
X26075606Y-75482741D01*
X26177339Y-75510000D01*
X26183553Y-75510000D01*
X25428959Y-76264594D01*
X25513397Y-76349032D01*
X25653475Y-76450804D01*
X25807742Y-76529408D01*
X25972415Y-76582914D01*
X26143429Y-76610000D01*
X26316570Y-76610000D01*
X26374696Y-76600793D01*
X26443989Y-76609747D01*
X26497442Y-76654743D01*
X26518082Y-76721494D01*
X26504581Y-76779559D01*
X26480128Y-76827551D01*
X26426597Y-76992302D01*
X26405659Y-77124500D01*
X26399500Y-77163389D01*
X26399500Y-78136611D01*
X26402379Y-78154788D01*
X26426579Y-78307585D01*
X26426598Y-78307701D01*
X26480127Y-78472445D01*
X26558768Y-78626788D01*
X26660586Y-78766928D01*
X26783072Y-78889414D01*
X26923212Y-78991232D01*
X27077555Y-79069873D01*
X27242299Y-79123402D01*
X27413389Y-79150500D01*
X27413390Y-79150500D01*
X27586610Y-79150500D01*
X27586611Y-79150500D01*
X27757701Y-79123402D01*
X27922445Y-79069873D01*
X28076788Y-78991232D01*
X28216928Y-78889414D01*
X28339414Y-78766928D01*
X28441232Y-78626788D01*
X28519873Y-78472445D01*
X28573402Y-78307701D01*
X28600500Y-78136611D01*
X28600500Y-77163389D01*
X28573402Y-76992299D01*
X28519873Y-76827555D01*
X28519870Y-76827549D01*
X28495700Y-76780111D01*
X28482804Y-76711442D01*
X28509081Y-76646702D01*
X28566187Y-76606445D01*
X28625581Y-76601344D01*
X28683389Y-76610500D01*
X28683390Y-76610500D01*
X28856609Y-76610500D01*
X28856611Y-76610500D01*
X28914417Y-76601344D01*
X28983709Y-76610298D01*
X29037161Y-76655294D01*
X29057801Y-76722045D01*
X29044300Y-76780110D01*
X29020128Y-76827551D01*
X28966597Y-76992302D01*
X28945659Y-77124500D01*
X28939500Y-77163389D01*
X28939500Y-78136611D01*
X28942379Y-78154788D01*
X28966579Y-78307585D01*
X28966598Y-78307701D01*
X29020127Y-78472445D01*
X29098768Y-78626788D01*
X29200586Y-78766928D01*
X29323072Y-78889414D01*
X29463212Y-78991232D01*
X29617555Y-79069873D01*
X29782299Y-79123402D01*
X29953389Y-79150500D01*
X29953390Y-79150500D01*
X30126610Y-79150500D01*
X30126611Y-79150500D01*
X30297701Y-79123402D01*
X30462445Y-79069873D01*
X30616788Y-78991232D01*
X30756928Y-78889414D01*
X30879414Y-78766928D01*
X30981232Y-78626788D01*
X31059873Y-78472445D01*
X31113402Y-78307701D01*
X31140500Y-78136611D01*
X31140500Y-77163389D01*
X31113402Y-76992299D01*
X31059873Y-76827555D01*
X31059870Y-76827549D01*
X31035700Y-76780111D01*
X31022804Y-76711442D01*
X31049081Y-76646702D01*
X31106187Y-76606445D01*
X31165581Y-76601344D01*
X31223389Y-76610500D01*
X31223390Y-76610500D01*
X31396609Y-76610500D01*
X31396611Y-76610500D01*
X31454417Y-76601344D01*
X31523709Y-76610298D01*
X31577161Y-76655294D01*
X31597801Y-76722045D01*
X31584300Y-76780110D01*
X31560128Y-76827551D01*
X31506597Y-76992302D01*
X31485659Y-77124500D01*
X31479500Y-77163389D01*
X31479500Y-78136611D01*
X31482379Y-78154788D01*
X31506579Y-78307585D01*
X31506598Y-78307701D01*
X31560127Y-78472445D01*
X31638768Y-78626788D01*
X31740586Y-78766928D01*
X31863072Y-78889414D01*
X32003212Y-78991232D01*
X32157555Y-79069873D01*
X32322299Y-79123402D01*
X32493389Y-79150500D01*
X32493390Y-79150500D01*
X32666610Y-79150500D01*
X32666611Y-79150500D01*
X32837701Y-79123402D01*
X33002445Y-79069873D01*
X33156788Y-78991232D01*
X33296928Y-78889414D01*
X33419414Y-78766928D01*
X33521232Y-78626788D01*
X33599873Y-78472445D01*
X33653402Y-78307701D01*
X33680500Y-78136611D01*
X33680500Y-77163389D01*
X33653402Y-76992299D01*
X33599873Y-76827555D01*
X33599870Y-76827549D01*
X33575700Y-76780111D01*
X33562804Y-76711442D01*
X33589081Y-76646702D01*
X33646187Y-76606445D01*
X33705581Y-76601344D01*
X33763389Y-76610500D01*
X33763390Y-76610500D01*
X33936609Y-76610500D01*
X33936611Y-76610500D01*
X33994417Y-76601344D01*
X34063709Y-76610298D01*
X34117161Y-76655294D01*
X34137801Y-76722045D01*
X34124300Y-76780110D01*
X34100128Y-76827551D01*
X34046597Y-76992302D01*
X34025659Y-77124500D01*
X34019500Y-77163389D01*
X34019500Y-78136611D01*
X34022379Y-78154788D01*
X34046579Y-78307585D01*
X34046598Y-78307701D01*
X34100127Y-78472445D01*
X34178768Y-78626788D01*
X34280586Y-78766928D01*
X34403072Y-78889414D01*
X34543212Y-78991232D01*
X34697555Y-79069873D01*
X34862299Y-79123402D01*
X35033389Y-79150500D01*
X35033390Y-79150500D01*
X35206610Y-79150500D01*
X35206611Y-79150500D01*
X35377701Y-79123402D01*
X35542445Y-79069873D01*
X35696788Y-78991232D01*
X35836928Y-78889414D01*
X35959414Y-78766928D01*
X36061232Y-78626788D01*
X36139873Y-78472445D01*
X36193402Y-78307701D01*
X36220500Y-78136611D01*
X36220500Y-77163389D01*
X36193402Y-76992299D01*
X36139873Y-76827555D01*
X36139870Y-76827549D01*
X36115700Y-76780111D01*
X36102804Y-76711442D01*
X36129081Y-76646702D01*
X36186187Y-76606445D01*
X36245581Y-76601344D01*
X36303389Y-76610500D01*
X36303390Y-76610500D01*
X36476609Y-76610500D01*
X36476611Y-76610500D01*
X36534417Y-76601344D01*
X36603709Y-76610298D01*
X36657161Y-76655294D01*
X36677801Y-76722045D01*
X36664300Y-76780110D01*
X36640128Y-76827551D01*
X36586597Y-76992302D01*
X36565659Y-77124500D01*
X36559500Y-77163389D01*
X36559500Y-78136611D01*
X36562379Y-78154788D01*
X36586579Y-78307585D01*
X36586598Y-78307701D01*
X36640127Y-78472445D01*
X36718768Y-78626788D01*
X36820586Y-78766928D01*
X36943072Y-78889414D01*
X37083212Y-78991232D01*
X37237555Y-79069873D01*
X37402299Y-79123402D01*
X37573389Y-79150500D01*
X37573390Y-79150500D01*
X37746610Y-79150500D01*
X37746611Y-79150500D01*
X37917701Y-79123402D01*
X38082445Y-79069873D01*
X38236788Y-78991232D01*
X38376928Y-78889414D01*
X38499414Y-78766928D01*
X38601232Y-78626788D01*
X38679873Y-78472445D01*
X38733402Y-78307701D01*
X38760500Y-78136611D01*
X38760500Y-77163389D01*
X38733402Y-76992299D01*
X38679873Y-76827555D01*
X38679870Y-76827549D01*
X38655700Y-76780111D01*
X38642804Y-76711442D01*
X38669081Y-76646702D01*
X38726187Y-76606445D01*
X38785581Y-76601344D01*
X38843389Y-76610500D01*
X38843390Y-76610500D01*
X39016609Y-76610500D01*
X39016611Y-76610500D01*
X39074417Y-76601344D01*
X39143709Y-76610298D01*
X39197161Y-76655294D01*
X39217801Y-76722045D01*
X39204300Y-76780110D01*
X39180128Y-76827551D01*
X39126597Y-76992302D01*
X39105659Y-77124500D01*
X39099500Y-77163389D01*
X39099500Y-78136611D01*
X39102379Y-78154788D01*
X39126579Y-78307585D01*
X39126598Y-78307701D01*
X39180127Y-78472445D01*
X39258768Y-78626788D01*
X39360586Y-78766928D01*
X39483072Y-78889414D01*
X39623212Y-78991232D01*
X39777555Y-79069873D01*
X39942299Y-79123402D01*
X40113389Y-79150500D01*
X40113390Y-79150500D01*
X40286610Y-79150500D01*
X40286611Y-79150500D01*
X40457701Y-79123402D01*
X40622445Y-79069873D01*
X40776788Y-78991232D01*
X40916928Y-78889414D01*
X41039414Y-78766928D01*
X41141232Y-78626788D01*
X41219873Y-78472445D01*
X41273402Y-78307701D01*
X41300500Y-78136611D01*
X41300500Y-77163389D01*
X41273402Y-76992299D01*
X41219873Y-76827555D01*
X41219870Y-76827549D01*
X41195700Y-76780111D01*
X41182804Y-76711442D01*
X41209081Y-76646702D01*
X41266187Y-76606445D01*
X41325581Y-76601344D01*
X41383389Y-76610500D01*
X41383390Y-76610500D01*
X41556609Y-76610500D01*
X41556611Y-76610500D01*
X41614417Y-76601344D01*
X41683709Y-76610298D01*
X41737161Y-76655294D01*
X41757801Y-76722045D01*
X41744300Y-76780110D01*
X41720128Y-76827551D01*
X41666597Y-76992302D01*
X41645659Y-77124500D01*
X41639500Y-77163389D01*
X41639500Y-78136611D01*
X41642379Y-78154788D01*
X41666579Y-78307585D01*
X41666598Y-78307701D01*
X41720127Y-78472445D01*
X41798768Y-78626788D01*
X41900586Y-78766928D01*
X42023072Y-78889414D01*
X42163212Y-78991232D01*
X42317555Y-79069873D01*
X42482299Y-79123402D01*
X42653389Y-79150500D01*
X42653390Y-79150500D01*
X42826610Y-79150500D01*
X42826611Y-79150500D01*
X42997701Y-79123402D01*
X43162445Y-79069873D01*
X43316788Y-78991232D01*
X43456928Y-78889414D01*
X43579414Y-78766928D01*
X43681232Y-78626788D01*
X43759873Y-78472445D01*
X43813402Y-78307701D01*
X43840500Y-78136611D01*
X43840500Y-77163389D01*
X43813402Y-76992299D01*
X43759873Y-76827555D01*
X43759870Y-76827549D01*
X43735700Y-76780111D01*
X43722804Y-76711442D01*
X43749081Y-76646702D01*
X43806187Y-76606445D01*
X43865581Y-76601344D01*
X43923389Y-76610500D01*
X43923390Y-76610500D01*
X44096609Y-76610500D01*
X44096611Y-76610500D01*
X44154417Y-76601344D01*
X44223709Y-76610298D01*
X44277161Y-76655294D01*
X44297801Y-76722045D01*
X44284300Y-76780110D01*
X44260128Y-76827551D01*
X44206597Y-76992302D01*
X44185659Y-77124500D01*
X44179500Y-77163389D01*
X44179500Y-78136611D01*
X44182379Y-78154788D01*
X44206579Y-78307585D01*
X44206598Y-78307701D01*
X44260127Y-78472445D01*
X44338768Y-78626788D01*
X44440586Y-78766928D01*
X44563072Y-78889414D01*
X44703212Y-78991232D01*
X44857555Y-79069873D01*
X45022299Y-79123402D01*
X45193389Y-79150500D01*
X45193390Y-79150500D01*
X45366610Y-79150500D01*
X45366611Y-79150500D01*
X45537701Y-79123402D01*
X45702445Y-79069873D01*
X45856788Y-78991232D01*
X45996928Y-78889414D01*
X46119414Y-78766928D01*
X46221232Y-78626788D01*
X46299873Y-78472445D01*
X46353402Y-78307701D01*
X46380500Y-78136611D01*
X46380500Y-77163389D01*
X46353402Y-76992299D01*
X46299873Y-76827555D01*
X46299870Y-76827549D01*
X46275700Y-76780111D01*
X46262804Y-76711442D01*
X46289081Y-76646702D01*
X46346187Y-76606445D01*
X46405581Y-76601344D01*
X46463389Y-76610500D01*
X46463390Y-76610500D01*
X46636609Y-76610500D01*
X46636611Y-76610500D01*
X46695029Y-76601247D01*
X46764319Y-76610201D01*
X46817772Y-76655197D01*
X46838412Y-76721948D01*
X46824910Y-76780014D01*
X46800592Y-76827739D01*
X46747085Y-76992415D01*
X46720000Y-77163428D01*
X46720000Y-78136571D01*
X46747085Y-78307582D01*
X46762235Y-78354211D01*
X47420000Y-77696446D01*
X47420000Y-77702661D01*
X47447259Y-77804394D01*
X47499920Y-77895606D01*
X47574394Y-77970080D01*
X47665606Y-78022741D01*
X47767339Y-78050000D01*
X47773553Y-78050000D01*
X47018959Y-78804594D01*
X47103397Y-78889032D01*
X47243475Y-78990804D01*
X47397742Y-79069408D01*
X47562415Y-79122914D01*
X47733429Y-79150000D01*
X47906571Y-79150000D01*
X48077584Y-79122914D01*
X48242257Y-79069408D01*
X48396524Y-78990804D01*
X48536602Y-78889032D01*
X48621041Y-78804594D01*
X47866447Y-78050000D01*
X47872661Y-78050000D01*
X47974394Y-78022741D01*
X48065606Y-77970080D01*
X48140080Y-77895606D01*
X48192741Y-77804394D01*
X48220000Y-77702661D01*
X48220000Y-77696447D01*
X48877764Y-78354211D01*
X48892913Y-78307588D01*
X48892913Y-78307585D01*
X48920000Y-78136571D01*
X48920000Y-77163428D01*
X48892914Y-76992415D01*
X48839407Y-76827740D01*
X48815090Y-76780016D01*
X48802193Y-76711347D01*
X48828469Y-76646606D01*
X48885575Y-76606348D01*
X48944969Y-76601247D01*
X49003389Y-76610500D01*
X49003391Y-76610500D01*
X49176609Y-76610500D01*
X49176611Y-76610500D01*
X49234417Y-76601344D01*
X49303709Y-76610298D01*
X49357161Y-76655294D01*
X49377801Y-76722045D01*
X49364300Y-76780110D01*
X49340128Y-76827551D01*
X49286597Y-76992302D01*
X49265659Y-77124500D01*
X49259500Y-77163389D01*
X49259500Y-78136611D01*
X49262379Y-78154788D01*
X49286579Y-78307585D01*
X49286598Y-78307701D01*
X49340127Y-78472445D01*
X49418768Y-78626788D01*
X49520586Y-78766928D01*
X49643072Y-78889414D01*
X49783212Y-78991232D01*
X49937555Y-79069873D01*
X50102299Y-79123402D01*
X50273389Y-79150500D01*
X50273390Y-79150500D01*
X50446610Y-79150500D01*
X50446611Y-79150500D01*
X50617701Y-79123402D01*
X50782445Y-79069873D01*
X50936788Y-78991232D01*
X51076928Y-78889414D01*
X51199414Y-78766928D01*
X51301232Y-78626788D01*
X51379873Y-78472445D01*
X51433402Y-78307701D01*
X51460500Y-78136611D01*
X51460500Y-77163389D01*
X51433402Y-76992299D01*
X51379873Y-76827555D01*
X51379870Y-76827549D01*
X51355700Y-76780111D01*
X51342804Y-76711442D01*
X51369081Y-76646702D01*
X51426187Y-76606445D01*
X51485581Y-76601344D01*
X51543389Y-76610500D01*
X51543390Y-76610500D01*
X51716609Y-76610500D01*
X51716611Y-76610500D01*
X51774417Y-76601344D01*
X51843709Y-76610298D01*
X51897161Y-76655294D01*
X51917801Y-76722045D01*
X51904300Y-76780110D01*
X51880128Y-76827551D01*
X51826597Y-76992302D01*
X51805659Y-77124500D01*
X51799500Y-77163389D01*
X51799500Y-78136611D01*
X51802379Y-78154788D01*
X51826579Y-78307585D01*
X51826598Y-78307701D01*
X51880127Y-78472445D01*
X51958768Y-78626788D01*
X52060586Y-78766928D01*
X52183072Y-78889414D01*
X52323212Y-78991232D01*
X52477555Y-79069873D01*
X52642299Y-79123402D01*
X52813389Y-79150500D01*
X52813390Y-79150500D01*
X52986610Y-79150500D01*
X52986611Y-79150500D01*
X53157701Y-79123402D01*
X53322445Y-79069873D01*
X53476788Y-78991232D01*
X53616928Y-78889414D01*
X53739414Y-78766928D01*
X53841232Y-78626788D01*
X53919873Y-78472445D01*
X53973402Y-78307701D01*
X54000500Y-78136611D01*
X54000500Y-77163389D01*
X53973402Y-76992299D01*
X53919873Y-76827555D01*
X53919870Y-76827549D01*
X53895700Y-76780111D01*
X53882804Y-76711442D01*
X53909081Y-76646702D01*
X53966187Y-76606445D01*
X54025581Y-76601344D01*
X54083389Y-76610500D01*
X54083390Y-76610500D01*
X54256609Y-76610500D01*
X54256611Y-76610500D01*
X54314417Y-76601344D01*
X54383709Y-76610298D01*
X54437161Y-76655294D01*
X54457801Y-76722045D01*
X54444300Y-76780110D01*
X54420128Y-76827551D01*
X54366597Y-76992302D01*
X54345659Y-77124500D01*
X54339500Y-77163389D01*
X54339500Y-78136611D01*
X54342379Y-78154788D01*
X54366579Y-78307585D01*
X54366598Y-78307701D01*
X54420127Y-78472445D01*
X54498768Y-78626788D01*
X54600586Y-78766928D01*
X54723072Y-78889414D01*
X54863212Y-78991232D01*
X55017555Y-79069873D01*
X55182299Y-79123402D01*
X55353389Y-79150500D01*
X55353390Y-79150500D01*
X55526610Y-79150500D01*
X55526611Y-79150500D01*
X55697701Y-79123402D01*
X55862445Y-79069873D01*
X56016788Y-78991232D01*
X56156928Y-78889414D01*
X56279414Y-78766928D01*
X56381232Y-78626788D01*
X56459873Y-78472445D01*
X56513402Y-78307701D01*
X56540500Y-78136611D01*
X56540500Y-77163389D01*
X56513402Y-76992299D01*
X56459873Y-76827555D01*
X56459870Y-76827549D01*
X56435700Y-76780111D01*
X56422804Y-76711442D01*
X56449081Y-76646702D01*
X56506187Y-76606445D01*
X56565581Y-76601344D01*
X56623389Y-76610500D01*
X56623390Y-76610500D01*
X56796609Y-76610500D01*
X56796611Y-76610500D01*
X56854417Y-76601344D01*
X56923709Y-76610298D01*
X56977161Y-76655294D01*
X56997801Y-76722045D01*
X56984300Y-76780110D01*
X56960128Y-76827551D01*
X56906597Y-76992302D01*
X56885659Y-77124500D01*
X56879500Y-77163389D01*
X56879500Y-78136611D01*
X56882379Y-78154788D01*
X56906579Y-78307585D01*
X56906598Y-78307701D01*
X56960127Y-78472445D01*
X57038768Y-78626788D01*
X57140586Y-78766928D01*
X57263072Y-78889414D01*
X57403212Y-78991232D01*
X57557555Y-79069873D01*
X57722299Y-79123402D01*
X57893389Y-79150500D01*
X57893390Y-79150500D01*
X58066610Y-79150500D01*
X58066611Y-79150500D01*
X58237701Y-79123402D01*
X58402445Y-79069873D01*
X58556788Y-78991232D01*
X58696928Y-78889414D01*
X58819414Y-78766928D01*
X58921232Y-78626788D01*
X58999873Y-78472445D01*
X59053402Y-78307701D01*
X59080500Y-78136611D01*
X59080500Y-77163389D01*
X59053402Y-76992299D01*
X58999873Y-76827555D01*
X58999870Y-76827549D01*
X58975700Y-76780111D01*
X58962804Y-76711442D01*
X58989081Y-76646702D01*
X59046187Y-76606445D01*
X59105581Y-76601344D01*
X59163389Y-76610500D01*
X59163390Y-76610500D01*
X59336609Y-76610500D01*
X59336611Y-76610500D01*
X59394417Y-76601344D01*
X59463709Y-76610298D01*
X59517161Y-76655294D01*
X59537801Y-76722045D01*
X59524300Y-76780110D01*
X59500128Y-76827551D01*
X59446597Y-76992302D01*
X59425659Y-77124500D01*
X59419500Y-77163389D01*
X59419500Y-78136611D01*
X59422379Y-78154788D01*
X59446579Y-78307585D01*
X59446598Y-78307701D01*
X59500127Y-78472445D01*
X59578768Y-78626788D01*
X59680586Y-78766928D01*
X59803072Y-78889414D01*
X59943212Y-78991232D01*
X60097555Y-79069873D01*
X60262299Y-79123402D01*
X60433389Y-79150500D01*
X60433390Y-79150500D01*
X60606610Y-79150500D01*
X60606611Y-79150500D01*
X60777701Y-79123402D01*
X60942445Y-79069873D01*
X61096788Y-78991232D01*
X61236928Y-78889414D01*
X61359414Y-78766928D01*
X61461232Y-78626788D01*
X61539873Y-78472445D01*
X61593402Y-78307701D01*
X61620500Y-78136611D01*
X61620500Y-77163389D01*
X61593402Y-76992299D01*
X61539873Y-76827555D01*
X61539870Y-76827549D01*
X61515700Y-76780111D01*
X61502804Y-76711442D01*
X61529081Y-76646702D01*
X61586187Y-76606445D01*
X61645581Y-76601344D01*
X61703389Y-76610500D01*
X61703390Y-76610500D01*
X61876609Y-76610500D01*
X61876611Y-76610500D01*
X61934417Y-76601344D01*
X62003709Y-76610298D01*
X62057161Y-76655294D01*
X62077801Y-76722045D01*
X62064300Y-76780110D01*
X62040128Y-76827551D01*
X61986597Y-76992302D01*
X61965659Y-77124500D01*
X61959500Y-77163389D01*
X61959500Y-78136611D01*
X61962379Y-78154788D01*
X61986579Y-78307585D01*
X61986598Y-78307701D01*
X62040127Y-78472445D01*
X62118768Y-78626788D01*
X62220586Y-78766928D01*
X62343072Y-78889414D01*
X62483212Y-78991232D01*
X62637555Y-79069873D01*
X62802299Y-79123402D01*
X62973389Y-79150500D01*
X62973390Y-79150500D01*
X63146610Y-79150500D01*
X63146611Y-79150500D01*
X63317701Y-79123402D01*
X63482445Y-79069873D01*
X63636788Y-78991232D01*
X63776928Y-78889414D01*
X63899414Y-78766928D01*
X64001232Y-78626788D01*
X64079873Y-78472445D01*
X64133402Y-78307701D01*
X64160500Y-78136611D01*
X64160500Y-77163389D01*
X64133402Y-76992299D01*
X64079873Y-76827555D01*
X64079870Y-76827549D01*
X64055700Y-76780111D01*
X64042804Y-76711442D01*
X64069081Y-76646702D01*
X64126187Y-76606445D01*
X64185581Y-76601344D01*
X64243389Y-76610500D01*
X64243390Y-76610500D01*
X64416609Y-76610500D01*
X64416611Y-76610500D01*
X64474417Y-76601344D01*
X64543709Y-76610298D01*
X64597161Y-76655294D01*
X64617801Y-76722045D01*
X64604300Y-76780110D01*
X64580128Y-76827551D01*
X64526597Y-76992302D01*
X64505659Y-77124500D01*
X64499500Y-77163389D01*
X64499500Y-78136611D01*
X64502379Y-78154788D01*
X64526579Y-78307585D01*
X64526598Y-78307701D01*
X64580127Y-78472445D01*
X64658768Y-78626788D01*
X64760586Y-78766928D01*
X64883072Y-78889414D01*
X65023212Y-78991232D01*
X65177555Y-79069873D01*
X65342299Y-79123402D01*
X65513389Y-79150500D01*
X65513390Y-79150500D01*
X65686610Y-79150500D01*
X65686611Y-79150500D01*
X65857701Y-79123402D01*
X66022445Y-79069873D01*
X66176788Y-78991232D01*
X66316928Y-78889414D01*
X66439414Y-78766928D01*
X66541232Y-78626788D01*
X66619873Y-78472445D01*
X66673402Y-78307701D01*
X66700500Y-78136611D01*
X66700500Y-77163389D01*
X66673402Y-76992299D01*
X66619873Y-76827555D01*
X66619870Y-76827549D01*
X66595700Y-76780111D01*
X66582804Y-76711442D01*
X66609081Y-76646702D01*
X66666187Y-76606445D01*
X66725581Y-76601344D01*
X66783389Y-76610500D01*
X66783390Y-76610500D01*
X66956609Y-76610500D01*
X66956611Y-76610500D01*
X67014417Y-76601344D01*
X67083709Y-76610298D01*
X67137161Y-76655294D01*
X67157801Y-76722045D01*
X67144300Y-76780110D01*
X67120128Y-76827551D01*
X67066597Y-76992302D01*
X67045659Y-77124500D01*
X67039500Y-77163389D01*
X67039500Y-78136611D01*
X67042379Y-78154788D01*
X67066579Y-78307585D01*
X67066598Y-78307701D01*
X67120127Y-78472445D01*
X67198768Y-78626788D01*
X67300586Y-78766928D01*
X67423072Y-78889414D01*
X67563212Y-78991232D01*
X67717555Y-79069873D01*
X67882299Y-79123402D01*
X68053389Y-79150500D01*
X68053390Y-79150500D01*
X68226610Y-79150500D01*
X68226611Y-79150500D01*
X68397701Y-79123402D01*
X68562445Y-79069873D01*
X68716788Y-78991232D01*
X68856928Y-78889414D01*
X68979414Y-78766928D01*
X69081232Y-78626788D01*
X69159873Y-78472445D01*
X69213402Y-78307701D01*
X69240500Y-78136611D01*
X69240500Y-77163389D01*
X69213402Y-76992299D01*
X69159873Y-76827555D01*
X69159870Y-76827549D01*
X69135700Y-76780111D01*
X69122804Y-76711442D01*
X69149081Y-76646702D01*
X69206187Y-76606445D01*
X69265581Y-76601344D01*
X69323389Y-76610500D01*
X69323390Y-76610500D01*
X69496609Y-76610500D01*
X69496611Y-76610500D01*
X69554417Y-76601344D01*
X69623709Y-76610298D01*
X69677161Y-76655294D01*
X69697801Y-76722045D01*
X69684300Y-76780110D01*
X69660128Y-76827551D01*
X69606597Y-76992302D01*
X69585659Y-77124500D01*
X69579500Y-77163389D01*
X69579500Y-78136611D01*
X69582379Y-78154788D01*
X69606579Y-78307585D01*
X69606598Y-78307701D01*
X69660127Y-78472445D01*
X69738768Y-78626788D01*
X69840586Y-78766928D01*
X69963072Y-78889414D01*
X70103212Y-78991232D01*
X70257555Y-79069873D01*
X70422299Y-79123402D01*
X70593389Y-79150500D01*
X70593390Y-79150500D01*
X70766610Y-79150500D01*
X70766611Y-79150500D01*
X70937701Y-79123402D01*
X71102445Y-79069873D01*
X71256788Y-78991232D01*
X71396928Y-78889414D01*
X71519414Y-78766928D01*
X71621232Y-78626788D01*
X71699873Y-78472445D01*
X71753402Y-78307701D01*
X71780500Y-78136611D01*
X71780500Y-77163389D01*
X71753402Y-76992299D01*
X71699873Y-76827555D01*
X71699870Y-76827549D01*
X71675700Y-76780111D01*
X71662804Y-76711442D01*
X71689081Y-76646702D01*
X71746187Y-76606445D01*
X71805581Y-76601344D01*
X71863389Y-76610500D01*
X71863390Y-76610500D01*
X72036609Y-76610500D01*
X72036611Y-76610500D01*
X72094417Y-76601344D01*
X72163709Y-76610298D01*
X72217161Y-76655294D01*
X72237801Y-76722045D01*
X72224300Y-76780110D01*
X72200128Y-76827551D01*
X72146597Y-76992302D01*
X72125659Y-77124500D01*
X72119500Y-77163389D01*
X72119500Y-78136611D01*
X72122379Y-78154788D01*
X72146579Y-78307585D01*
X72146598Y-78307701D01*
X72200127Y-78472445D01*
X72278768Y-78626788D01*
X72380586Y-78766928D01*
X72503072Y-78889414D01*
X72643212Y-78991232D01*
X72797555Y-79069873D01*
X72962299Y-79123402D01*
X73133389Y-79150500D01*
X73133390Y-79150500D01*
X73306610Y-79150500D01*
X73306611Y-79150500D01*
X73477701Y-79123402D01*
X73642445Y-79069873D01*
X73796788Y-78991232D01*
X73936928Y-78889414D01*
X74059414Y-78766928D01*
X74161232Y-78626788D01*
X74239873Y-78472445D01*
X74293402Y-78307701D01*
X74320500Y-78136611D01*
X74320500Y-77163389D01*
X74293402Y-76992299D01*
X74239873Y-76827555D01*
X74161232Y-76673212D01*
X74059414Y-76533072D01*
X73936928Y-76410586D01*
X73796788Y-76308768D01*
X73642445Y-76230127D01*
X73477701Y-76176598D01*
X73477699Y-76176597D01*
X73477698Y-76176597D01*
X73332207Y-76153554D01*
X73306611Y-76149500D01*
X73133389Y-76149500D01*
X73075581Y-76158655D01*
X73006288Y-76149700D01*
X72952837Y-76104703D01*
X72932198Y-76037951D01*
X72945700Y-75979887D01*
X72969873Y-75932445D01*
X73023402Y-75767701D01*
X73050500Y-75596611D01*
X73050500Y-74623389D01*
X73023402Y-74452299D01*
X72969873Y-74287555D01*
X72891232Y-74133212D01*
X72789414Y-73993072D01*
X72666928Y-73870586D01*
X72526788Y-73768768D01*
X72445596Y-73727399D01*
X72372447Y-73690128D01*
X72372446Y-73690127D01*
X72372445Y-73690127D01*
X72207701Y-73636598D01*
X72207699Y-73636597D01*
X72207698Y-73636597D01*
X72062857Y-73613657D01*
X72036611Y-73609500D01*
X71863389Y-73609500D01*
X71837143Y-73613657D01*
X71692302Y-73636597D01*
X71527552Y-73690128D01*
X71373211Y-73768768D01*
X71339500Y-73793261D01*
X71233072Y-73870586D01*
X71233070Y-73870588D01*
X71233069Y-73870588D01*
X71110588Y-73993069D01*
X71110588Y-73993070D01*
X71110586Y-73993072D01*
X71066859Y-74053256D01*
X71008768Y-74133211D01*
X70930128Y-74287552D01*
X70876597Y-74452302D01*
X70849500Y-74623389D01*
X70849500Y-75596610D01*
X70876597Y-75767697D01*
X70930129Y-75932450D01*
X70954299Y-75979888D01*
X70967195Y-76048558D01*
X70940918Y-76113298D01*
X70883811Y-76153554D01*
X70824418Y-76158655D01*
X70766611Y-76149500D01*
X70593389Y-76149500D01*
X70535581Y-76158655D01*
X70466288Y-76149700D01*
X70412837Y-76104703D01*
X70392198Y-76037951D01*
X70405700Y-75979887D01*
X70429873Y-75932445D01*
X70483402Y-75767701D01*
X70510500Y-75596611D01*
X70510500Y-74623389D01*
X70483402Y-74452299D01*
X70429873Y-74287555D01*
X70351232Y-74133212D01*
X70249414Y-73993072D01*
X70126928Y-73870586D01*
X69986788Y-73768768D01*
X69905596Y-73727399D01*
X69832447Y-73690128D01*
X69832446Y-73690127D01*
X69832445Y-73690127D01*
X69667701Y-73636598D01*
X69667699Y-73636597D01*
X69667698Y-73636597D01*
X69522857Y-73613657D01*
X69496611Y-73609500D01*
X69323389Y-73609500D01*
X69297143Y-73613657D01*
X69152302Y-73636597D01*
X69152299Y-73636598D01*
X69016581Y-73680696D01*
X68987549Y-73690129D01*
X68880794Y-73744523D01*
X68812125Y-73757419D01*
X68747385Y-73731142D01*
X68707128Y-73674036D01*
X68700500Y-73634038D01*
X68700500Y-46030945D01*
X68700500Y-46030943D01*
X68659577Y-45878216D01*
X68642986Y-45849479D01*
X68580524Y-45741290D01*
X68580521Y-45741286D01*
X68580520Y-45741284D01*
X68468716Y-45629480D01*
X68468715Y-45629479D01*
X68464385Y-45625149D01*
X68464374Y-45625139D01*
X56083476Y-33244241D01*
X56049991Y-33182918D01*
X56054975Y-33113226D01*
X56070836Y-33083679D01*
X56141232Y-32986788D01*
X56219873Y-32832445D01*
X56273402Y-32667701D01*
X56300500Y-32496611D01*
X56300500Y-32323389D01*
X56273402Y-32152299D01*
X56219873Y-31987555D01*
X56141232Y-31833212D01*
X56039414Y-31693072D01*
X55916928Y-31570586D01*
X55776788Y-31468768D01*
X55622445Y-31390127D01*
X55457701Y-31336598D01*
X55457699Y-31336597D01*
X55457698Y-31336597D01*
X55326271Y-31315781D01*
X55286611Y-31309500D01*
X54313389Y-31309500D01*
X54273728Y-31315781D01*
X54142302Y-31336597D01*
X53977552Y-31390128D01*
X53823211Y-31468768D01*
X53743256Y-31526859D01*
X53683072Y-31570586D01*
X53683070Y-31570588D01*
X53683069Y-31570588D01*
X53560588Y-31693069D01*
X53560588Y-31693070D01*
X53560586Y-31693072D01*
X53516859Y-31753256D01*
X53458768Y-31833211D01*
X53380128Y-31987552D01*
X53326597Y-32152302D01*
X53299500Y-32323389D01*
X53299500Y-32496611D01*
X53326598Y-32667701D01*
X53380127Y-32832445D01*
X53458768Y-32986788D01*
X53560586Y-33126928D01*
X53683072Y-33249414D01*
X53823212Y-33351232D01*
X53977555Y-33429873D01*
X54142299Y-33483402D01*
X54313389Y-33510500D01*
X54599903Y-33510500D01*
X54666942Y-33530185D01*
X54687584Y-33546819D01*
X54778584Y-33637819D01*
X54812069Y-33699142D01*
X54807085Y-33768834D01*
X54765213Y-33824767D01*
X54699749Y-33849184D01*
X54690903Y-33849500D01*
X54313389Y-33849500D01*
X54273728Y-33855781D01*
X54142302Y-33876597D01*
X53977552Y-33930128D01*
X53823211Y-34008768D01*
X53743256Y-34066859D01*
X53683072Y-34110586D01*
X53683070Y-34110588D01*
X53683069Y-34110588D01*
X53560588Y-34233069D01*
X53560588Y-34233070D01*
X53560586Y-34233072D01*
X53552431Y-34244297D01*
X53458768Y-34373211D01*
X53380128Y-34527552D01*
X53326597Y-34692302D01*
X53299500Y-34863389D01*
X53299500Y-35036610D01*
X53316334Y-35142900D01*
X53326598Y-35207701D01*
X53380127Y-35372445D01*
X53458768Y-35526788D01*
X53560586Y-35666928D01*
X53683072Y-35789414D01*
X53823212Y-35891232D01*
X53977555Y-35969873D01*
X54142299Y-36023402D01*
X54313389Y-36050500D01*
X54599903Y-36050500D01*
X54666942Y-36070185D01*
X54687584Y-36086819D01*
X54778584Y-36177819D01*
X54812069Y-36239142D01*
X54807085Y-36308834D01*
X54765213Y-36364767D01*
X54699749Y-36389184D01*
X54690903Y-36389500D01*
X54313389Y-36389500D01*
X54273728Y-36395781D01*
X54142302Y-36416597D01*
X53977552Y-36470128D01*
X53823211Y-36548768D01*
X53743256Y-36606859D01*
X53683072Y-36650586D01*
X53683070Y-36650588D01*
X53683069Y-36650588D01*
X53560588Y-36773069D01*
X53560588Y-36773070D01*
X53560586Y-36773072D01*
X53516859Y-36833256D01*
X53458768Y-36913211D01*
X53380128Y-37067552D01*
X53326597Y-37232302D01*
X53299500Y-37403389D01*
X53299500Y-37576610D01*
X53316334Y-37682900D01*
X53326598Y-37747701D01*
X53380127Y-37912445D01*
X53458768Y-38066788D01*
X53560586Y-38206928D01*
X53683072Y-38329414D01*
X53823212Y-38431232D01*
X53977555Y-38509873D01*
X54142299Y-38563402D01*
X54313389Y-38590500D01*
X54599903Y-38590500D01*
X54666942Y-38610185D01*
X54687584Y-38626819D01*
X54778584Y-38717819D01*
X54812069Y-38779142D01*
X54807085Y-38848834D01*
X54765213Y-38904767D01*
X54699749Y-38929184D01*
X54690903Y-38929500D01*
X54313389Y-38929500D01*
X54273728Y-38935781D01*
X54142302Y-38956597D01*
X53977552Y-39010128D01*
X53823211Y-39088768D01*
X53743256Y-39146859D01*
X53683072Y-39190586D01*
X53683070Y-39190588D01*
X53683069Y-39190588D01*
X53560588Y-39313069D01*
X53560588Y-39313070D01*
X53560586Y-39313072D01*
X53516859Y-39373256D01*
X53458768Y-39453211D01*
X53380128Y-39607552D01*
X53326597Y-39772302D01*
X53309390Y-39880943D01*
X53299500Y-39943389D01*
X53299500Y-40116611D01*
X53307677Y-40168239D01*
X53318842Y-40238735D01*
X53326598Y-40287701D01*
X53380127Y-40452445D01*
X53458768Y-40606788D01*
X53560586Y-40746928D01*
X53683072Y-40869414D01*
X53823212Y-40971232D01*
X53977555Y-41049873D01*
X54142299Y-41103402D01*
X54313389Y-41130500D01*
X54999903Y-41130500D01*
X55066942Y-41150185D01*
X55087584Y-41166819D01*
X55178584Y-41257819D01*
X55212069Y-41319142D01*
X55207085Y-41388834D01*
X55165213Y-41444767D01*
X55099749Y-41469184D01*
X55090903Y-41469500D01*
X54313389Y-41469500D01*
X54273728Y-41475781D01*
X54142302Y-41496597D01*
X53977552Y-41550128D01*
X53823211Y-41628768D01*
X53743256Y-41686859D01*
X53683072Y-41730586D01*
X53683070Y-41730588D01*
X53683069Y-41730588D01*
X53560588Y-41853069D01*
X53560588Y-41853070D01*
X53560586Y-41853072D01*
X53516859Y-41913256D01*
X53458768Y-41993211D01*
X53380128Y-42147552D01*
X53326597Y-42312302D01*
X53299500Y-42483389D01*
X53299500Y-42656611D01*
X53326598Y-42827701D01*
X53380127Y-42992445D01*
X53458768Y-43146788D01*
X53560586Y-43286928D01*
X53683072Y-43409414D01*
X53823212Y-43511232D01*
X53977555Y-43589873D01*
X54142299Y-43643402D01*
X54313389Y-43670500D01*
X54999903Y-43670500D01*
X55066942Y-43690185D01*
X55087584Y-43706819D01*
X55178584Y-43797819D01*
X55212069Y-43859142D01*
X55207085Y-43928834D01*
X55165213Y-43984767D01*
X55099749Y-44009184D01*
X55090903Y-44009500D01*
X54313389Y-44009500D01*
X54273728Y-44015781D01*
X54142302Y-44036597D01*
X53977552Y-44090128D01*
X53823211Y-44168768D01*
X53743256Y-44226859D01*
X53683072Y-44270586D01*
X53683070Y-44270588D01*
X53683069Y-44270588D01*
X53560588Y-44393069D01*
X53560588Y-44393070D01*
X53560586Y-44393072D01*
X53516859Y-44453256D01*
X53458768Y-44533211D01*
X53380128Y-44687552D01*
X53326597Y-44852302D01*
X53299500Y-45023389D01*
X53299500Y-45196610D01*
X53316334Y-45302900D01*
X53326598Y-45367701D01*
X53380127Y-45532445D01*
X53458768Y-45686788D01*
X53560586Y-45826928D01*
X53683072Y-45949414D01*
X53823212Y-46051232D01*
X53977555Y-46129873D01*
X54142299Y-46183402D01*
X54313389Y-46210500D01*
X54999903Y-46210500D01*
X55066942Y-46230185D01*
X55087584Y-46246819D01*
X55178584Y-46337819D01*
X55212069Y-46399142D01*
X55207085Y-46468834D01*
X55165213Y-46524767D01*
X55099749Y-46549184D01*
X55090903Y-46549500D01*
X54313389Y-46549500D01*
X54273728Y-46555781D01*
X54142302Y-46576597D01*
X53977552Y-46630128D01*
X53823211Y-46708768D01*
X53743256Y-46766859D01*
X53683072Y-46810586D01*
X53683070Y-46810588D01*
X53683069Y-46810588D01*
X53560588Y-46933069D01*
X53560588Y-46933070D01*
X53560586Y-46933072D01*
X53554898Y-46940901D01*
X53458768Y-47073211D01*
X53380128Y-47227552D01*
X53326597Y-47392302D01*
X53299500Y-47563389D01*
X53299500Y-47736610D01*
X53325153Y-47898582D01*
X53326598Y-47907701D01*
X53380127Y-48072445D01*
X53458768Y-48226788D01*
X53560586Y-48366928D01*
X53683072Y-48489414D01*
X53823212Y-48591232D01*
X53977555Y-48669873D01*
X54142299Y-48723402D01*
X54313389Y-48750500D01*
X54599903Y-48750500D01*
X54666942Y-48770185D01*
X54687584Y-48786819D01*
X54778584Y-48877819D01*
X54812069Y-48939142D01*
X54807085Y-49008834D01*
X54765213Y-49064767D01*
X54699749Y-49089184D01*
X54690903Y-49089500D01*
X54313389Y-49089500D01*
X54273728Y-49095781D01*
X54142302Y-49116597D01*
X53977552Y-49170128D01*
X53823211Y-49248768D01*
X53769083Y-49288095D01*
X53683072Y-49350586D01*
X53683070Y-49350588D01*
X53683069Y-49350588D01*
X53560588Y-49473069D01*
X53560588Y-49473070D01*
X53560586Y-49473072D01*
X53547602Y-49490943D01*
X53458768Y-49613211D01*
X53380128Y-49767552D01*
X53326597Y-49932302D01*
X53299500Y-50103389D01*
X53299500Y-50276610D01*
X53326455Y-50446803D01*
X53326598Y-50447701D01*
X53380127Y-50612445D01*
X53458768Y-50766788D01*
X53560586Y-50906928D01*
X53683072Y-51029414D01*
X53823212Y-51131232D01*
X53977555Y-51209873D01*
X54142299Y-51263402D01*
X54313389Y-51290500D01*
X54599903Y-51290500D01*
X54666942Y-51310185D01*
X54687584Y-51326819D01*
X54778584Y-51417819D01*
X54812069Y-51479142D01*
X54807085Y-51548834D01*
X54765213Y-51604767D01*
X54699749Y-51629184D01*
X54690903Y-51629500D01*
X54313389Y-51629500D01*
X54290931Y-51633057D01*
X54142302Y-51656597D01*
X53977552Y-51710128D01*
X53823211Y-51788768D01*
X53743256Y-51846859D01*
X53683072Y-51890586D01*
X53683070Y-51890588D01*
X53683069Y-51890588D01*
X53560588Y-52013069D01*
X53560588Y-52013070D01*
X53560586Y-52013072D01*
X53516859Y-52073256D01*
X53458768Y-52153211D01*
X53380128Y-52307552D01*
X53326597Y-52472302D01*
X53299500Y-52643389D01*
X53299500Y-52816610D01*
X53316334Y-52922900D01*
X53326598Y-52987701D01*
X53380127Y-53152445D01*
X53458768Y-53306788D01*
X53560586Y-53446928D01*
X53683072Y-53569414D01*
X53823212Y-53671232D01*
X53977555Y-53749873D01*
X54142299Y-53803402D01*
X54313389Y-53830500D01*
X54599903Y-53830500D01*
X54666942Y-53850185D01*
X54687584Y-53866819D01*
X54778584Y-53957819D01*
X54812069Y-54019142D01*
X54807085Y-54088834D01*
X54765213Y-54144767D01*
X54699749Y-54169184D01*
X54690903Y-54169500D01*
X54313389Y-54169500D01*
X54273728Y-54175781D01*
X54142302Y-54196597D01*
X53977552Y-54250128D01*
X53823211Y-54328768D01*
X53743256Y-54386859D01*
X53683072Y-54430586D01*
X53683070Y-54430588D01*
X53683069Y-54430588D01*
X53560588Y-54553069D01*
X53560588Y-54553070D01*
X53560586Y-54553072D01*
X53516859Y-54613256D01*
X53458768Y-54693211D01*
X53380128Y-54847552D01*
X53326597Y-55012302D01*
X53299500Y-55183389D01*
X53299500Y-55356610D01*
X53316334Y-55462900D01*
X53326598Y-55527701D01*
X53380127Y-55692445D01*
X53458768Y-55846788D01*
X53560586Y-55986928D01*
X53683072Y-56109414D01*
X53823212Y-56211232D01*
X53977555Y-56289873D01*
X54142299Y-56343402D01*
X54313389Y-56370500D01*
X54599903Y-56370500D01*
X54666942Y-56390185D01*
X54687584Y-56406819D01*
X54778584Y-56497819D01*
X54812069Y-56559142D01*
X54807085Y-56628834D01*
X54765213Y-56684767D01*
X54699749Y-56709184D01*
X54690903Y-56709500D01*
X54313389Y-56709500D01*
X54273728Y-56715781D01*
X54142302Y-56736597D01*
X53977552Y-56790128D01*
X53823211Y-56868768D01*
X53743256Y-56926859D01*
X53683072Y-56970586D01*
X53683070Y-56970588D01*
X53683069Y-56970588D01*
X53560588Y-57093069D01*
X53560588Y-57093070D01*
X53560586Y-57093072D01*
X53516859Y-57153256D01*
X53458768Y-57233211D01*
X53380128Y-57387552D01*
X53326597Y-57552302D01*
X53299500Y-57723389D01*
X53299500Y-57896610D01*
X53316334Y-58002900D01*
X53326598Y-58067701D01*
X53380127Y-58232445D01*
X53458768Y-58386788D01*
X53560586Y-58526928D01*
X53683072Y-58649414D01*
X53823212Y-58751232D01*
X53977555Y-58829873D01*
X54142299Y-58883402D01*
X54313389Y-58910500D01*
X54599903Y-58910500D01*
X54666942Y-58930185D01*
X54687584Y-58946819D01*
X54778584Y-59037819D01*
X54812069Y-59099142D01*
X54807085Y-59168834D01*
X54765213Y-59224767D01*
X54699749Y-59249184D01*
X54690903Y-59249500D01*
X54313389Y-59249500D01*
X54273728Y-59255781D01*
X54142302Y-59276597D01*
X53977552Y-59330128D01*
X53823211Y-59408768D01*
X53743256Y-59466859D01*
X53683072Y-59510586D01*
X53683070Y-59510588D01*
X53683069Y-59510588D01*
X53560588Y-59633069D01*
X53560588Y-59633070D01*
X53560586Y-59633072D01*
X53516859Y-59693256D01*
X53458768Y-59773211D01*
X53380128Y-59927552D01*
X53326597Y-60092302D01*
X53299500Y-60263389D01*
X53299500Y-60436610D01*
X53316334Y-60542900D01*
X53326598Y-60607701D01*
X53380127Y-60772445D01*
X53458768Y-60926788D01*
X53560586Y-61066928D01*
X53683072Y-61189414D01*
X53823212Y-61291232D01*
X53977555Y-61369873D01*
X54142299Y-61423402D01*
X54313389Y-61450500D01*
X54599903Y-61450500D01*
X54666942Y-61470185D01*
X54687584Y-61486819D01*
X54778584Y-61577819D01*
X54812069Y-61639142D01*
X54807085Y-61708834D01*
X54765213Y-61764767D01*
X54699749Y-61789184D01*
X54690903Y-61789500D01*
X54313389Y-61789500D01*
X54273728Y-61795781D01*
X54142302Y-61816597D01*
X53977552Y-61870128D01*
X53823211Y-61948768D01*
X53743256Y-62006859D01*
X53683072Y-62050586D01*
X53683070Y-62050588D01*
X53683069Y-62050588D01*
X53560588Y-62173069D01*
X53560588Y-62173070D01*
X53560586Y-62173072D01*
X53516859Y-62233256D01*
X53458768Y-62313211D01*
X53380128Y-62467552D01*
X53380127Y-62467554D01*
X53380127Y-62467555D01*
X53353362Y-62549927D01*
X53326597Y-62632302D01*
X53299500Y-62803389D01*
X53299500Y-62976610D01*
X53316334Y-63082900D01*
X53326598Y-63147701D01*
X53380127Y-63312445D01*
X53458768Y-63466788D01*
X53560586Y-63606928D01*
X53683072Y-63729414D01*
X53823212Y-63831232D01*
X53977555Y-63909873D01*
X54142299Y-63963402D01*
X54313389Y-63990500D01*
X54889903Y-63990500D01*
X54956942Y-64010185D01*
X54977584Y-64026819D01*
X55068584Y-64117819D01*
X55102069Y-64179142D01*
X55097085Y-64248834D01*
X55055213Y-64304767D01*
X54989749Y-64329184D01*
X54980903Y-64329500D01*
X54313389Y-64329500D01*
X54273728Y-64335781D01*
X54142302Y-64356597D01*
X53977552Y-64410128D01*
X53823211Y-64488768D01*
X53743256Y-64546859D01*
X53683072Y-64590586D01*
X53683070Y-64590588D01*
X53683069Y-64590588D01*
X53560588Y-64713069D01*
X53560588Y-64713070D01*
X53560586Y-64713072D01*
X53516859Y-64773256D01*
X53458768Y-64853211D01*
X53380128Y-65007552D01*
X53326597Y-65172302D01*
X53299500Y-65343389D01*
X53299500Y-65516611D01*
X53326598Y-65687701D01*
X53380127Y-65852445D01*
X53458768Y-66006788D01*
X53560586Y-66146928D01*
X53683072Y-66269414D01*
X53823212Y-66371232D01*
X53977555Y-66449873D01*
X54142299Y-66503402D01*
X54313389Y-66530500D01*
X54999903Y-66530500D01*
X55066942Y-66550185D01*
X55087584Y-66566819D01*
X55178584Y-66657819D01*
X55212069Y-66719142D01*
X55207085Y-66788834D01*
X55165213Y-66844767D01*
X55099749Y-66869184D01*
X55090903Y-66869500D01*
X54313389Y-66869500D01*
X54273728Y-66875781D01*
X54142302Y-66896597D01*
X53977552Y-66950128D01*
X53823211Y-67028768D01*
X53743256Y-67086859D01*
X53683072Y-67130586D01*
X53683070Y-67130588D01*
X53683069Y-67130588D01*
X53560588Y-67253069D01*
X53560588Y-67253070D01*
X53560586Y-67253072D01*
X53560350Y-67253397D01*
X53458768Y-67393211D01*
X53380128Y-67547552D01*
X53326597Y-67712302D01*
X53324682Y-67724394D01*
X53299500Y-67883389D01*
X53299500Y-68056611D01*
X53326598Y-68227701D01*
X53380127Y-68392445D01*
X53458768Y-68546788D01*
X53560586Y-68686928D01*
X53560588Y-68686930D01*
X53674530Y-68800872D01*
X53708015Y-68862195D01*
X53703031Y-68931887D01*
X53674530Y-68976234D01*
X49076847Y-73573917D01*
X49015524Y-73607402D01*
X49008162Y-73608491D01*
X49008201Y-73608738D01*
X49003390Y-73609500D01*
X49003389Y-73609500D01*
X48977143Y-73613657D01*
X48832302Y-73636597D01*
X48667552Y-73690128D01*
X48513211Y-73768768D01*
X48479500Y-73793261D01*
X48373072Y-73870586D01*
X48373070Y-73870588D01*
X48373069Y-73870588D01*
X48250588Y-73993069D01*
X48250588Y-73993070D01*
X48250586Y-73993072D01*
X48206859Y-74053256D01*
X48148768Y-74133211D01*
X48070128Y-74287552D01*
X48016597Y-74452302D01*
X47989500Y-74623389D01*
X47989500Y-75596610D01*
X48016597Y-75767697D01*
X48070129Y-75932450D01*
X48094580Y-75980439D01*
X48107476Y-76049108D01*
X48081199Y-76113849D01*
X48024092Y-76154105D01*
X47964698Y-76159206D01*
X47906572Y-76150000D01*
X47733428Y-76150000D01*
X47675301Y-76159206D01*
X47606008Y-76150251D01*
X47552556Y-76105255D01*
X47531917Y-76038503D01*
X47545420Y-75980437D01*
X47569871Y-75932449D01*
X47569872Y-75932447D01*
X47569873Y-75932445D01*
X47623402Y-75767701D01*
X47650500Y-75596611D01*
X47650500Y-74623389D01*
X47623402Y-74452299D01*
X47569873Y-74287555D01*
X47491232Y-74133212D01*
X47389414Y-73993072D01*
X47266928Y-73870586D01*
X47151614Y-73786805D01*
X47108949Y-73731476D01*
X47100500Y-73686488D01*
X47100500Y-69329060D01*
X47100501Y-69329047D01*
X47100501Y-69160944D01*
X47064815Y-69027764D01*
X47059577Y-69008216D01*
X47059573Y-69008209D01*
X46980524Y-68871290D01*
X46980518Y-68871282D01*
X43177590Y-65068355D01*
X43177588Y-65068352D01*
X43058717Y-64949481D01*
X43058716Y-64949480D01*
X42971904Y-64899360D01*
X42971904Y-64899359D01*
X42971900Y-64899358D01*
X42921785Y-64870423D01*
X42769057Y-64829499D01*
X42610943Y-64829499D01*
X42603347Y-64829499D01*
X42603331Y-64829500D01*
X41187185Y-64829500D01*
X41120146Y-64809815D01*
X41086867Y-64778386D01*
X41039414Y-64713072D01*
X40916928Y-64590586D01*
X40776788Y-64488768D01*
X40690134Y-64444616D01*
X40622447Y-64410128D01*
X40622446Y-64410127D01*
X40622445Y-64410127D01*
X40457701Y-64356598D01*
X40457699Y-64356597D01*
X40457698Y-64356597D01*
X40326271Y-64335781D01*
X40286611Y-64329500D01*
X39313389Y-64329500D01*
X39273728Y-64335781D01*
X39142302Y-64356597D01*
X38977552Y-64410128D01*
X38823211Y-64488768D01*
X38743256Y-64546859D01*
X38683072Y-64590586D01*
X38683070Y-64590588D01*
X38683069Y-64590588D01*
X38560588Y-64713069D01*
X38560588Y-64713070D01*
X38560586Y-64713072D01*
X38516859Y-64773256D01*
X38458768Y-64853211D01*
X38380128Y-65007552D01*
X38326597Y-65172302D01*
X38299500Y-65343389D01*
X38299500Y-65516611D01*
X38326598Y-65687701D01*
X38380127Y-65852445D01*
X38458768Y-66006788D01*
X38560586Y-66146928D01*
X38683072Y-66269414D01*
X38823212Y-66371232D01*
X38977555Y-66449873D01*
X39142299Y-66503402D01*
X39313389Y-66530500D01*
X39313390Y-66530500D01*
X40286610Y-66530500D01*
X40286611Y-66530500D01*
X40457701Y-66503402D01*
X40622445Y-66449873D01*
X40776788Y-66371232D01*
X40916928Y-66269414D01*
X41039414Y-66146928D01*
X41086868Y-66081613D01*
X41142197Y-66038949D01*
X41187185Y-66030500D01*
X42389903Y-66030500D01*
X42456942Y-66050185D01*
X42477584Y-66066819D01*
X45863181Y-69452416D01*
X45896666Y-69513739D01*
X45899500Y-69540097D01*
X45899500Y-73759142D01*
X45879815Y-73826181D01*
X45848387Y-73859459D01*
X45833072Y-73870585D01*
X45710588Y-73993069D01*
X45710588Y-73993070D01*
X45710586Y-73993072D01*
X45666859Y-74053256D01*
X45608768Y-74133211D01*
X45530128Y-74287552D01*
X45476597Y-74452302D01*
X45449500Y-74623389D01*
X45449500Y-75596610D01*
X45476597Y-75767697D01*
X45530129Y-75932450D01*
X45554299Y-75979888D01*
X45567195Y-76048558D01*
X45540918Y-76113298D01*
X45483811Y-76153554D01*
X45424418Y-76158655D01*
X45366611Y-76149500D01*
X45193389Y-76149500D01*
X45135581Y-76158655D01*
X45066288Y-76149700D01*
X45012837Y-76104703D01*
X44992198Y-76037951D01*
X45005700Y-75979887D01*
X45029873Y-75932445D01*
X45083402Y-75767701D01*
X45110500Y-75596611D01*
X45110500Y-74623389D01*
X45083402Y-74452299D01*
X45029873Y-74287555D01*
X44951232Y-74133212D01*
X44849414Y-73993072D01*
X44726928Y-73870586D01*
X44586788Y-73768768D01*
X44505596Y-73727399D01*
X44432447Y-73690128D01*
X44432446Y-73690127D01*
X44432445Y-73690127D01*
X44267701Y-73636598D01*
X44267699Y-73636597D01*
X44267698Y-73636597D01*
X44122857Y-73613657D01*
X44096611Y-73609500D01*
X43923389Y-73609500D01*
X43897143Y-73613657D01*
X43752302Y-73636597D01*
X43587552Y-73690128D01*
X43433211Y-73768768D01*
X43399500Y-73793261D01*
X43293072Y-73870586D01*
X43293070Y-73870588D01*
X43293069Y-73870588D01*
X43170588Y-73993069D01*
X43170588Y-73993070D01*
X43170586Y-73993072D01*
X43126859Y-74053256D01*
X43068768Y-74133211D01*
X42990128Y-74287552D01*
X42936597Y-74452302D01*
X42909500Y-74623389D01*
X42909500Y-75596610D01*
X42936597Y-75767697D01*
X42990129Y-75932450D01*
X43014299Y-75979888D01*
X43027195Y-76048558D01*
X43000918Y-76113298D01*
X42943811Y-76153554D01*
X42884418Y-76158655D01*
X42826611Y-76149500D01*
X42653389Y-76149500D01*
X42595581Y-76158655D01*
X42526288Y-76149700D01*
X42472837Y-76104703D01*
X42452198Y-76037951D01*
X42465700Y-75979887D01*
X42489873Y-75932445D01*
X42543402Y-75767701D01*
X42570500Y-75596611D01*
X42570500Y-74623389D01*
X42543402Y-74452299D01*
X42489873Y-74287555D01*
X42411232Y-74133212D01*
X42309414Y-73993072D01*
X42186928Y-73870586D01*
X42046788Y-73768768D01*
X41998322Y-73744073D01*
X41957882Y-73705878D01*
X41955467Y-73707732D01*
X41950522Y-73701287D01*
X41950520Y-73701284D01*
X41578716Y-73329481D01*
X37836819Y-69587584D01*
X37803334Y-69526261D01*
X37800500Y-69499903D01*
X37800500Y-68056571D01*
X38300000Y-68056571D01*
X38327085Y-68227584D01*
X38380591Y-68392257D01*
X38459195Y-68546524D01*
X38560967Y-68686602D01*
X38645406Y-68771041D01*
X39400000Y-68016447D01*
X39400000Y-68022661D01*
X39427259Y-68124394D01*
X39479920Y-68215606D01*
X39554394Y-68290080D01*
X39645606Y-68342741D01*
X39747339Y-68370000D01*
X39753553Y-68370000D01*
X39095788Y-69027763D01*
X39095788Y-69027764D01*
X39142414Y-69042913D01*
X39313429Y-69070000D01*
X40286571Y-69070000D01*
X40457585Y-69042913D01*
X40457588Y-69042913D01*
X40504211Y-69027764D01*
X39846447Y-68370000D01*
X39852661Y-68370000D01*
X39954394Y-68342741D01*
X40045606Y-68290080D01*
X40120080Y-68215606D01*
X40172741Y-68124394D01*
X40200000Y-68022661D01*
X40200000Y-68016447D01*
X40954594Y-68771041D01*
X41039032Y-68686602D01*
X41140804Y-68546524D01*
X41219408Y-68392257D01*
X41272914Y-68227584D01*
X41300000Y-68056571D01*
X41300000Y-67883428D01*
X41272914Y-67712415D01*
X41219408Y-67547742D01*
X41140804Y-67393475D01*
X41039032Y-67253397D01*
X40954594Y-67168959D01*
X40200000Y-67923553D01*
X40200000Y-67917339D01*
X40172741Y-67815606D01*
X40120080Y-67724394D01*
X40045606Y-67649920D01*
X39954394Y-67597259D01*
X39852661Y-67570000D01*
X39846448Y-67570000D01*
X40504211Y-66912235D01*
X40457582Y-66897085D01*
X40286571Y-66870000D01*
X39313429Y-66870000D01*
X39142423Y-66897084D01*
X39142411Y-66897087D01*
X39095787Y-66912235D01*
X39753553Y-67570000D01*
X39747339Y-67570000D01*
X39645606Y-67597259D01*
X39554394Y-67649920D01*
X39479920Y-67724394D01*
X39427259Y-67815606D01*
X39400000Y-67917339D01*
X39400000Y-67923553D01*
X38645406Y-67168959D01*
X38560967Y-67253397D01*
X38459195Y-67393475D01*
X38380591Y-67547742D01*
X38327085Y-67712415D01*
X38300000Y-67883428D01*
X38300000Y-68056571D01*
X37800500Y-68056571D01*
X37800500Y-62976610D01*
X38299500Y-62976610D01*
X38316334Y-63082900D01*
X38326598Y-63147701D01*
X38380127Y-63312445D01*
X38458768Y-63466788D01*
X38560586Y-63606928D01*
X38683072Y-63729414D01*
X38823212Y-63831232D01*
X38977555Y-63909873D01*
X39142299Y-63963402D01*
X39313389Y-63990500D01*
X39313390Y-63990500D01*
X40286610Y-63990500D01*
X40286611Y-63990500D01*
X40457701Y-63963402D01*
X40622445Y-63909873D01*
X40776788Y-63831232D01*
X40916928Y-63729414D01*
X41039414Y-63606928D01*
X41141232Y-63466788D01*
X41219873Y-63312445D01*
X41273402Y-63147701D01*
X41300500Y-62976611D01*
X41300500Y-62803389D01*
X41273402Y-62632299D01*
X41219873Y-62467555D01*
X41141232Y-62313212D01*
X41039414Y-62173072D01*
X40916928Y-62050586D01*
X40776788Y-61948768D01*
X40622445Y-61870127D01*
X40457701Y-61816598D01*
X40457699Y-61816597D01*
X40457698Y-61816597D01*
X40326271Y-61795781D01*
X40286611Y-61789500D01*
X39313389Y-61789500D01*
X39273728Y-61795781D01*
X39142302Y-61816597D01*
X38977552Y-61870128D01*
X38823211Y-61948768D01*
X38743256Y-62006859D01*
X38683072Y-62050586D01*
X38683070Y-62050588D01*
X38683069Y-62050588D01*
X38560588Y-62173069D01*
X38560588Y-62173070D01*
X38560586Y-62173072D01*
X38516859Y-62233256D01*
X38458768Y-62313211D01*
X38380128Y-62467552D01*
X38380127Y-62467554D01*
X38380127Y-62467555D01*
X38353362Y-62549927D01*
X38326597Y-62632302D01*
X38299500Y-62803389D01*
X38299500Y-62976610D01*
X37800500Y-62976610D01*
X37800500Y-60436610D01*
X38299500Y-60436610D01*
X38316334Y-60542900D01*
X38326598Y-60607701D01*
X38380127Y-60772445D01*
X38458768Y-60926788D01*
X38560586Y-61066928D01*
X38683072Y-61189414D01*
X38823212Y-61291232D01*
X38977555Y-61369873D01*
X39142299Y-61423402D01*
X39313389Y-61450500D01*
X39313390Y-61450500D01*
X40286610Y-61450500D01*
X40286611Y-61450500D01*
X40457701Y-61423402D01*
X40622445Y-61369873D01*
X40776788Y-61291232D01*
X40916928Y-61189414D01*
X41039414Y-61066928D01*
X41141232Y-60926788D01*
X41219873Y-60772445D01*
X41273402Y-60607701D01*
X41300500Y-60436611D01*
X41300500Y-60263389D01*
X41273402Y-60092299D01*
X41219873Y-59927555D01*
X41141232Y-59773212D01*
X41039414Y-59633072D01*
X40916928Y-59510586D01*
X40776788Y-59408768D01*
X40622445Y-59330127D01*
X40457701Y-59276598D01*
X40457699Y-59276597D01*
X40457698Y-59276597D01*
X40326271Y-59255781D01*
X40286611Y-59249500D01*
X39313389Y-59249500D01*
X39273728Y-59255781D01*
X39142302Y-59276597D01*
X38977552Y-59330128D01*
X38823211Y-59408768D01*
X38743256Y-59466859D01*
X38683072Y-59510586D01*
X38683070Y-59510588D01*
X38683069Y-59510588D01*
X38560588Y-59633069D01*
X38560588Y-59633070D01*
X38560586Y-59633072D01*
X38516859Y-59693256D01*
X38458768Y-59773211D01*
X38380128Y-59927552D01*
X38326597Y-60092302D01*
X38299500Y-60263389D01*
X38299500Y-60436610D01*
X37800500Y-60436610D01*
X37800500Y-58170096D01*
X37820185Y-58103057D01*
X37836815Y-58082419D01*
X38089562Y-57829672D01*
X38150882Y-57796189D01*
X38220573Y-57801173D01*
X38276507Y-57843044D01*
X38299713Y-57897957D01*
X38316334Y-58002900D01*
X38326598Y-58067701D01*
X38380127Y-58232445D01*
X38458768Y-58386788D01*
X38560586Y-58526928D01*
X38683072Y-58649414D01*
X38823212Y-58751232D01*
X38977555Y-58829873D01*
X39142299Y-58883402D01*
X39313389Y-58910500D01*
X39313390Y-58910500D01*
X40286610Y-58910500D01*
X40286611Y-58910500D01*
X40457701Y-58883402D01*
X40622445Y-58829873D01*
X40776788Y-58751232D01*
X40916928Y-58649414D01*
X41039414Y-58526928D01*
X41141232Y-58386788D01*
X41219873Y-58232445D01*
X41273402Y-58067701D01*
X41300500Y-57896611D01*
X41300500Y-57723389D01*
X41273402Y-57552299D01*
X41219873Y-57387555D01*
X41141232Y-57233212D01*
X41039414Y-57093072D01*
X40916928Y-56970586D01*
X40776788Y-56868768D01*
X40622445Y-56790127D01*
X40457701Y-56736598D01*
X40457699Y-56736597D01*
X40457698Y-56736597D01*
X40326271Y-56715781D01*
X40286611Y-56709500D01*
X39509097Y-56709500D01*
X39442058Y-56689815D01*
X39396303Y-56637011D01*
X39386359Y-56567853D01*
X39415384Y-56504297D01*
X39421416Y-56497819D01*
X39512416Y-56406819D01*
X39573739Y-56373334D01*
X39600097Y-56370500D01*
X40286610Y-56370500D01*
X40286611Y-56370500D01*
X40457701Y-56343402D01*
X40622445Y-56289873D01*
X40776788Y-56211232D01*
X40916928Y-56109414D01*
X41039414Y-55986928D01*
X41141232Y-55846788D01*
X41219873Y-55692445D01*
X41273402Y-55527701D01*
X41300500Y-55356611D01*
X41300500Y-55183389D01*
X41273402Y-55012299D01*
X41219873Y-54847555D01*
X41141232Y-54693212D01*
X41039414Y-54553072D01*
X40916928Y-54430586D01*
X40776788Y-54328768D01*
X40622445Y-54250127D01*
X40457701Y-54196598D01*
X40457699Y-54196597D01*
X40457698Y-54196597D01*
X40326271Y-54175781D01*
X40286611Y-54169500D01*
X40286610Y-54169500D01*
X39909098Y-54169500D01*
X39842059Y-54149815D01*
X39796304Y-54097011D01*
X39786360Y-54027853D01*
X39815385Y-53964297D01*
X39821417Y-53957819D01*
X39912417Y-53866819D01*
X39973740Y-53833334D01*
X40000098Y-53830500D01*
X40286610Y-53830500D01*
X40286611Y-53830500D01*
X40457701Y-53803402D01*
X40622445Y-53749873D01*
X40776788Y-53671232D01*
X40916928Y-53569414D01*
X41039414Y-53446928D01*
X41141232Y-53306788D01*
X41219873Y-53152445D01*
X41273402Y-52987701D01*
X41300500Y-52816611D01*
X41300500Y-52643389D01*
X41273402Y-52472299D01*
X41219873Y-52307555D01*
X41141232Y-52153212D01*
X41039414Y-52013072D01*
X40916928Y-51890586D01*
X40776788Y-51788768D01*
X40622445Y-51710127D01*
X40457701Y-51656598D01*
X40457699Y-51656597D01*
X40457698Y-51656597D01*
X40309069Y-51633057D01*
X40286611Y-51629500D01*
X40286610Y-51629500D01*
X39909097Y-51629500D01*
X39842058Y-51609815D01*
X39796303Y-51557011D01*
X39786359Y-51487853D01*
X39815384Y-51424297D01*
X39821416Y-51417819D01*
X39912416Y-51326819D01*
X39973739Y-51293334D01*
X40000097Y-51290500D01*
X40286610Y-51290500D01*
X40286611Y-51290500D01*
X40457701Y-51263402D01*
X40622445Y-51209873D01*
X40776788Y-51131232D01*
X40916928Y-51029414D01*
X41039414Y-50906928D01*
X41141232Y-50766788D01*
X41219873Y-50612445D01*
X41273402Y-50447701D01*
X41300500Y-50276611D01*
X41300500Y-50103389D01*
X41273402Y-49932299D01*
X41219873Y-49767555D01*
X41141232Y-49613212D01*
X41039414Y-49473072D01*
X40916928Y-49350586D01*
X40776788Y-49248768D01*
X40622445Y-49170127D01*
X40457701Y-49116598D01*
X40457699Y-49116597D01*
X40457698Y-49116597D01*
X40326271Y-49095781D01*
X40286611Y-49089500D01*
X39459097Y-49089500D01*
X39392058Y-49069815D01*
X39346303Y-49017011D01*
X39336359Y-48947853D01*
X39365384Y-48884297D01*
X39371416Y-48877819D01*
X39462416Y-48786819D01*
X39523739Y-48753334D01*
X39550097Y-48750500D01*
X40286610Y-48750500D01*
X40286611Y-48750500D01*
X40457701Y-48723402D01*
X40622445Y-48669873D01*
X40776788Y-48591232D01*
X40916928Y-48489414D01*
X41039414Y-48366928D01*
X41141232Y-48226788D01*
X41219873Y-48072445D01*
X41273402Y-47907701D01*
X41300500Y-47736611D01*
X41300500Y-47563389D01*
X41273402Y-47392299D01*
X41219873Y-47227555D01*
X41141232Y-47073212D01*
X41039414Y-46933072D01*
X40916928Y-46810586D01*
X40776788Y-46708768D01*
X40622445Y-46630127D01*
X40457701Y-46576598D01*
X40457699Y-46576597D01*
X40457698Y-46576597D01*
X40326271Y-46555781D01*
X40286611Y-46549500D01*
X40286610Y-46549500D01*
X39909097Y-46549500D01*
X39842058Y-46529815D01*
X39796303Y-46477011D01*
X39786359Y-46407853D01*
X39815384Y-46344297D01*
X39821416Y-46337819D01*
X39912416Y-46246819D01*
X39973739Y-46213334D01*
X40000097Y-46210500D01*
X40286610Y-46210500D01*
X40286611Y-46210500D01*
X40457701Y-46183402D01*
X40622445Y-46129873D01*
X40776788Y-46051232D01*
X40916928Y-45949414D01*
X41039414Y-45826928D01*
X41141232Y-45686788D01*
X41219873Y-45532445D01*
X41273402Y-45367701D01*
X41300500Y-45196611D01*
X41300500Y-45023389D01*
X41273402Y-44852299D01*
X41219873Y-44687555D01*
X41141232Y-44533212D01*
X41039414Y-44393072D01*
X40916928Y-44270586D01*
X40776788Y-44168768D01*
X40622445Y-44090127D01*
X40457701Y-44036598D01*
X40457699Y-44036597D01*
X40457698Y-44036597D01*
X40326271Y-44015781D01*
X40286611Y-44009500D01*
X40286610Y-44009500D01*
X39909097Y-44009500D01*
X39842058Y-43989815D01*
X39796303Y-43937011D01*
X39786359Y-43867853D01*
X39815384Y-43804297D01*
X39821416Y-43797819D01*
X39912416Y-43706819D01*
X39973739Y-43673334D01*
X40000097Y-43670500D01*
X40286610Y-43670500D01*
X40286611Y-43670500D01*
X40457701Y-43643402D01*
X40622445Y-43589873D01*
X40776788Y-43511232D01*
X40916928Y-43409414D01*
X41039414Y-43286928D01*
X41141232Y-43146788D01*
X41219873Y-42992445D01*
X41273402Y-42827701D01*
X41300500Y-42656611D01*
X41300500Y-42483389D01*
X41273402Y-42312299D01*
X41219873Y-42147555D01*
X41141232Y-41993212D01*
X41039414Y-41853072D01*
X40916928Y-41730586D01*
X40776788Y-41628768D01*
X40622445Y-41550127D01*
X40457701Y-41496598D01*
X40457699Y-41496597D01*
X40457698Y-41496597D01*
X40326271Y-41475781D01*
X40286611Y-41469500D01*
X39313389Y-41469500D01*
X39273728Y-41475781D01*
X39142302Y-41496597D01*
X38977552Y-41550128D01*
X38823211Y-41628768D01*
X38743256Y-41686859D01*
X38683072Y-41730586D01*
X38683070Y-41730588D01*
X38683069Y-41730588D01*
X38560588Y-41853069D01*
X38560588Y-41853070D01*
X38560586Y-41853072D01*
X38516859Y-41913256D01*
X38458768Y-41993211D01*
X38380128Y-42147552D01*
X38326597Y-42312302D01*
X38299500Y-42483389D01*
X38299500Y-42656611D01*
X38326598Y-42827701D01*
X38380127Y-42992445D01*
X38458768Y-43146788D01*
X38529160Y-43243674D01*
X38552640Y-43309479D01*
X38536815Y-43377533D01*
X38516523Y-43404240D01*
X34751286Y-47169478D01*
X34662181Y-47258583D01*
X34600858Y-47292068D01*
X34531166Y-47287084D01*
X34475233Y-47245212D01*
X34450816Y-47179748D01*
X34450500Y-47170902D01*
X34450500Y-44350097D01*
X34470185Y-44283058D01*
X34486819Y-44262416D01*
X38082417Y-40666819D01*
X38143740Y-40633334D01*
X38170098Y-40630500D01*
X38412815Y-40630500D01*
X38479854Y-40650185D01*
X38513131Y-40681612D01*
X38560586Y-40746928D01*
X38683072Y-40869414D01*
X38823212Y-40971232D01*
X38977555Y-41049873D01*
X39142299Y-41103402D01*
X39313389Y-41130500D01*
X39313390Y-41130500D01*
X40286610Y-41130500D01*
X40286611Y-41130500D01*
X40457701Y-41103402D01*
X40622445Y-41049873D01*
X40776788Y-40971232D01*
X40916928Y-40869414D01*
X41039414Y-40746928D01*
X41141232Y-40606788D01*
X41219873Y-40452445D01*
X41273402Y-40287701D01*
X41300500Y-40116611D01*
X41300500Y-39943389D01*
X41273402Y-39772299D01*
X41219873Y-39607555D01*
X41141232Y-39453212D01*
X41039414Y-39313072D01*
X40916928Y-39190586D01*
X40776788Y-39088768D01*
X40622445Y-39010127D01*
X40457701Y-38956598D01*
X40457699Y-38956597D01*
X40457698Y-38956597D01*
X40326271Y-38935781D01*
X40286611Y-38929500D01*
X39313389Y-38929500D01*
X39273728Y-38935781D01*
X39142302Y-38956597D01*
X38977552Y-39010128D01*
X38823211Y-39088768D01*
X38743256Y-39146859D01*
X38683072Y-39190586D01*
X38683070Y-39190588D01*
X38683069Y-39190588D01*
X38560588Y-39313069D01*
X38560588Y-39313070D01*
X38560586Y-39313072D01*
X38513133Y-39378386D01*
X38457803Y-39421051D01*
X38412815Y-39429500D01*
X37956670Y-39429500D01*
X37956654Y-39429499D01*
X37949058Y-39429499D01*
X37790943Y-39429499D01*
X37714579Y-39449961D01*
X37638214Y-39470423D01*
X37638209Y-39470426D01*
X37501290Y-39549475D01*
X37501282Y-39549481D01*
X33392181Y-43658583D01*
X33330858Y-43692068D01*
X33261166Y-43687084D01*
X33205233Y-43645212D01*
X33180816Y-43579748D01*
X33180500Y-43570902D01*
X33180500Y-42220097D01*
X33200185Y-42153058D01*
X33216819Y-42132416D01*
X37222416Y-38126819D01*
X37283739Y-38093334D01*
X37310097Y-38090500D01*
X38412815Y-38090500D01*
X38479854Y-38110185D01*
X38513131Y-38141612D01*
X38560586Y-38206928D01*
X38683072Y-38329414D01*
X38823212Y-38431232D01*
X38977555Y-38509873D01*
X39142299Y-38563402D01*
X39313389Y-38590500D01*
X39313390Y-38590500D01*
X40286610Y-38590500D01*
X40286611Y-38590500D01*
X40457701Y-38563402D01*
X40622445Y-38509873D01*
X40776788Y-38431232D01*
X40916928Y-38329414D01*
X41039414Y-38206928D01*
X41141232Y-38066788D01*
X41219873Y-37912445D01*
X41273402Y-37747701D01*
X41300500Y-37576611D01*
X41300500Y-37403389D01*
X41273402Y-37232299D01*
X41219873Y-37067555D01*
X41141232Y-36913212D01*
X41039414Y-36773072D01*
X40916928Y-36650586D01*
X40776788Y-36548768D01*
X40622445Y-36470127D01*
X40457701Y-36416598D01*
X40457699Y-36416597D01*
X40457698Y-36416597D01*
X40326271Y-36395781D01*
X40286611Y-36389500D01*
X39313389Y-36389500D01*
X39273728Y-36395781D01*
X39142302Y-36416597D01*
X38977552Y-36470128D01*
X38823211Y-36548768D01*
X38743256Y-36606859D01*
X38683072Y-36650586D01*
X38683070Y-36650588D01*
X38683069Y-36650588D01*
X38560588Y-36773069D01*
X38560588Y-36773070D01*
X38560586Y-36773072D01*
X38513133Y-36838386D01*
X38457803Y-36881051D01*
X38412815Y-36889500D01*
X37089057Y-36889500D01*
X36930943Y-36889500D01*
X36778215Y-36930423D01*
X36778214Y-36930423D01*
X36778212Y-36930424D01*
X36778209Y-36930425D01*
X36728096Y-36959359D01*
X36728095Y-36959360D01*
X36684689Y-36984420D01*
X36641285Y-37009479D01*
X36641282Y-37009481D01*
X32122181Y-41528583D01*
X32060858Y-41562068D01*
X31991166Y-41557084D01*
X31935233Y-41515212D01*
X31910816Y-41449748D01*
X31910500Y-41440902D01*
X31910500Y-40290097D01*
X31930185Y-40223058D01*
X31946819Y-40202416D01*
X36462416Y-35686819D01*
X36523739Y-35653334D01*
X36550097Y-35650500D01*
X38492795Y-35650500D01*
X38559834Y-35670185D01*
X38580476Y-35686818D01*
X38683072Y-35789414D01*
X38823212Y-35891232D01*
X38977555Y-35969873D01*
X39142299Y-36023402D01*
X39313389Y-36050500D01*
X39313390Y-36050500D01*
X40286610Y-36050500D01*
X40286611Y-36050500D01*
X40457701Y-36023402D01*
X40622445Y-35969873D01*
X40776788Y-35891232D01*
X40916928Y-35789414D01*
X41039414Y-35666928D01*
X41141232Y-35526788D01*
X41219873Y-35372445D01*
X41273402Y-35207701D01*
X41300500Y-35036611D01*
X41300500Y-34863389D01*
X41273402Y-34692299D01*
X41219873Y-34527555D01*
X41141232Y-34373212D01*
X41039414Y-34233072D01*
X40916928Y-34110586D01*
X40776788Y-34008768D01*
X40622445Y-33930127D01*
X40457701Y-33876598D01*
X40457699Y-33876597D01*
X40457698Y-33876597D01*
X40326271Y-33855781D01*
X40286611Y-33849500D01*
X39313389Y-33849500D01*
X39273728Y-33855781D01*
X39142302Y-33876597D01*
X38977552Y-33930128D01*
X38823211Y-34008768D01*
X38743256Y-34066859D01*
X38683072Y-34110586D01*
X38683070Y-34110588D01*
X38683069Y-34110588D01*
X38560588Y-34233069D01*
X38560588Y-34233070D01*
X38560586Y-34233072D01*
X38552431Y-34244297D01*
X38458770Y-34373207D01*
X38458765Y-34373216D01*
X38454393Y-34381798D01*
X38406418Y-34432592D01*
X38343910Y-34449500D01*
X36699097Y-34449500D01*
X36632058Y-34429815D01*
X36586303Y-34377011D01*
X36576359Y-34307853D01*
X36605384Y-34244297D01*
X36611416Y-34237819D01*
X37702416Y-33146819D01*
X37763739Y-33113334D01*
X37790097Y-33110500D01*
X38492795Y-33110500D01*
X38559834Y-33130185D01*
X38580476Y-33146818D01*
X38683072Y-33249414D01*
X38823212Y-33351232D01*
X38977555Y-33429873D01*
X39142299Y-33483402D01*
X39313389Y-33510500D01*
X39313390Y-33510500D01*
X40286610Y-33510500D01*
X40286611Y-33510500D01*
X40457701Y-33483402D01*
X40622445Y-33429873D01*
X40776788Y-33351232D01*
X40916928Y-33249414D01*
X41039414Y-33126928D01*
X41141232Y-32986788D01*
X41219873Y-32832445D01*
X41273402Y-32667701D01*
X41300500Y-32496611D01*
X41300500Y-32323389D01*
X41273402Y-32152299D01*
X41219873Y-31987555D01*
X41141232Y-31833212D01*
X41039414Y-31693072D01*
X40916928Y-31570586D01*
X40776788Y-31468768D01*
X40622445Y-31390127D01*
X40457701Y-31336598D01*
X40457699Y-31336597D01*
X40457698Y-31336597D01*
X40326271Y-31315781D01*
X40286611Y-31309500D01*
X39313389Y-31309500D01*
X39273728Y-31315781D01*
X39142302Y-31336597D01*
X38977552Y-31390128D01*
X38823211Y-31468768D01*
X38743256Y-31526859D01*
X38683072Y-31570586D01*
X38683070Y-31570588D01*
X38683069Y-31570588D01*
X38560588Y-31693069D01*
X38560588Y-31693070D01*
X38560586Y-31693072D01*
X38535040Y-31728232D01*
X38458770Y-31833207D01*
X38458765Y-31833216D01*
X38454393Y-31841798D01*
X38406418Y-31892592D01*
X38343910Y-31909500D01*
X37576669Y-31909500D01*
X37576653Y-31909499D01*
X37569057Y-31909499D01*
X37410943Y-31909499D01*
X37303587Y-31938265D01*
X37258210Y-31950424D01*
X37258209Y-31950425D01*
X37208096Y-31979359D01*
X37208095Y-31979360D01*
X37193906Y-31987552D01*
X37121285Y-32029479D01*
X37121282Y-32029481D01*
X29559481Y-39591282D01*
X29559477Y-39591287D01*
X29550086Y-39607555D01*
X29542160Y-39621284D01*
X29480423Y-39728215D01*
X29439499Y-39880943D01*
X29439499Y-39880945D01*
X29439499Y-40049046D01*
X29439500Y-40049059D01*
X29439500Y-73613657D01*
X29419815Y-73680696D01*
X29367011Y-73726451D01*
X29297853Y-73736395D01*
X29259206Y-73724142D01*
X29192450Y-73690129D01*
X29192447Y-73690128D01*
X29192445Y-73690127D01*
X29027701Y-73636598D01*
X29027699Y-73636597D01*
X29027698Y-73636597D01*
X28882857Y-73613657D01*
X28856611Y-73609500D01*
X28683389Y-73609500D01*
X28657143Y-73613657D01*
X28512302Y-73636597D01*
X28347552Y-73690128D01*
X28193211Y-73768768D01*
X28159500Y-73793261D01*
X28053072Y-73870586D01*
X28053070Y-73870588D01*
X28053069Y-73870588D01*
X27930588Y-73993069D01*
X27930588Y-73993070D01*
X27930586Y-73993072D01*
X27886859Y-74053256D01*
X27828768Y-74133211D01*
X27750128Y-74287552D01*
X27696597Y-74452302D01*
X27669500Y-74623389D01*
X27669500Y-75596610D01*
X27696597Y-75767697D01*
X27750129Y-75932450D01*
X27774299Y-75979888D01*
X27787195Y-76048558D01*
X27760918Y-76113298D01*
X27703811Y-76153554D01*
X27644418Y-76158655D01*
X27586611Y-76149500D01*
X27413389Y-76149500D01*
X27354969Y-76158752D01*
X27285678Y-76149797D01*
X27232226Y-76104800D01*
X27211587Y-76038049D01*
X27225090Y-75979983D01*
X27249407Y-75932259D01*
X27302914Y-75767584D01*
X27330000Y-75596571D01*
X27330000Y-74623428D01*
X27302913Y-74452414D01*
X27287763Y-74405788D01*
X26630000Y-75063552D01*
X26630000Y-75057339D01*
X26602741Y-74955606D01*
X26550080Y-74864394D01*
X26475606Y-74789920D01*
X26384394Y-74737259D01*
X26282661Y-74710000D01*
X26276447Y-74710000D01*
X27031041Y-73955406D01*
X26946602Y-73870967D01*
X26806524Y-73769195D01*
X26652257Y-73690591D01*
X26487584Y-73637085D01*
X26316571Y-73610000D01*
X26143429Y-73610000D01*
X25972415Y-73637085D01*
X25807742Y-73690591D01*
X25653475Y-73769195D01*
X25513397Y-73870967D01*
X25428959Y-73955406D01*
X26183553Y-74710000D01*
X26177339Y-74710000D01*
X26075606Y-74737259D01*
X25984394Y-74789920D01*
X25909920Y-74864394D01*
X25857259Y-74955606D01*
X25830000Y-75057339D01*
X25830000Y-75063552D01*
X25172235Y-74405787D01*
X25157087Y-74452411D01*
X25157084Y-74452423D01*
X25130000Y-74623428D01*
X25130000Y-75596571D01*
X18500500Y-75596571D01*
X18500500Y-31503750D01*
X18500726Y-31496263D01*
X18518271Y-31206205D01*
X18520076Y-31191340D01*
X18565513Y-30943402D01*
X18571780Y-30909197D01*
X18575364Y-30894663D01*
X18576857Y-30889873D01*
X18660696Y-30620822D01*
X18665998Y-30606841D01*
X18783731Y-30345249D01*
X18790676Y-30332016D01*
X18939080Y-30086526D01*
X18947567Y-30074230D01*
X19124480Y-29848417D01*
X19134395Y-29837226D01*
X19337226Y-29634395D01*
X19348417Y-29624480D01*
X19574230Y-29447567D01*
X19586526Y-29439080D01*
X19832016Y-29290676D01*
X19845249Y-29283731D01*
X20106841Y-29165998D01*
X20120822Y-29160696D01*
X20394668Y-29075362D01*
X20409197Y-29071780D01*
X20691344Y-29020075D01*
X20706201Y-29018271D01*
X20996264Y-29000726D01*
X21003751Y-29000500D01*
X21065892Y-29000500D01*
X38428072Y-29000500D01*
X38495111Y-29020185D01*
G37*
%TD.AperFunction*%
%TD*%
M02*
