%TF.GenerationSoftware,KiCad,Pcbnew,8.0.0*%
%TF.CreationDate,2024-02-25T21:16:28-08:00*%
%TF.ProjectId,HuCard-TL866,48754361-7264-42d5-944c-3836362e6b69,rev?*%
%TF.SameCoordinates,Original*%
%TF.FileFunction,Legend,Top*%
%TF.FilePolarity,Positive*%
%FSLAX46Y46*%
G04 Gerber Fmt 4.6, Leading zero omitted, Abs format (unit mm)*
G04 Created by KiCad (PCBNEW 8.0.0) date 2024-02-25 21:16:28*
%MOMM*%
%LPD*%
G01*
G04 APERTURE LIST*
%ADD10C,0.150000*%
%ADD11C,0.120000*%
G04 APERTURE END LIST*
D10*
X50433333Y-85345180D02*
X50433333Y-84630895D01*
X50433333Y-84630895D02*
X50480952Y-84488038D01*
X50480952Y-84488038D02*
X50576190Y-84392800D01*
X50576190Y-84392800D02*
X50719047Y-84345180D01*
X50719047Y-84345180D02*
X50814285Y-84345180D01*
X50004761Y-85249942D02*
X49957142Y-85297561D01*
X49957142Y-85297561D02*
X49861904Y-85345180D01*
X49861904Y-85345180D02*
X49623809Y-85345180D01*
X49623809Y-85345180D02*
X49528571Y-85297561D01*
X49528571Y-85297561D02*
X49480952Y-85249942D01*
X49480952Y-85249942D02*
X49433333Y-85154704D01*
X49433333Y-85154704D02*
X49433333Y-85059466D01*
X49433333Y-85059466D02*
X49480952Y-84916609D01*
X49480952Y-84916609D02*
X50052380Y-84345180D01*
X50052380Y-84345180D02*
X49433333Y-84345180D01*
X46966666Y-53154819D02*
X46966666Y-53869104D01*
X46966666Y-53869104D02*
X46919047Y-54011961D01*
X46919047Y-54011961D02*
X46823809Y-54107200D01*
X46823809Y-54107200D02*
X46680952Y-54154819D01*
X46680952Y-54154819D02*
X46585714Y-54154819D01*
X47966666Y-54154819D02*
X47395238Y-54154819D01*
X47680952Y-54154819D02*
X47680952Y-53154819D01*
X47680952Y-53154819D02*
X47585714Y-53297676D01*
X47585714Y-53297676D02*
X47490476Y-53392914D01*
X47490476Y-53392914D02*
X47395238Y-53440533D01*
D11*
%TO.C,J2*%
X52100000Y-87900000D02*
X51100000Y-87900000D01*
X51100000Y-90650000D01*
X49100000Y-90650000D01*
X49100000Y-87900000D01*
X48100000Y-87900000D01*
X50100000Y-86400000D01*
X52100000Y-87900000D01*
%TO.C,J1*%
X48800000Y-31000000D02*
X48050000Y-31000000D01*
X48050000Y-32750000D01*
X46550000Y-32750000D01*
X46550000Y-31000000D01*
X45800000Y-31000000D01*
X47300000Y-29250000D01*
X48800000Y-31000000D01*
%TD*%
M02*
