M48
;FILE_FORMAT=2:3
INCH
T01C0.013
%
T01
X01351Y00345
X01032Y01939
X01326Y01939
X01301Y00345
X01057Y01914
X01301Y01914
X01251Y00345
X01251Y01889
X01082Y01889
X01151Y00345
X01101Y00345
X01182Y01864
X01107Y01864
X01051Y00345
X01207Y01839
X01082Y01839
X01001Y00345
X01182Y01814
X01057Y01814
X00951Y00345
X01026Y01789
X01276Y01832
X00801Y00345
X00401Y00345
X00420Y02312
X00501Y02420
X00682Y02420
X01720Y02270
X00201Y00357
X01751Y02251
X01301Y02489
X00682Y02276
X00389Y02355
X01251Y02289
X01170Y02407
X01089Y02214
X01120Y02189
X00826Y02045
X00889Y02045
X00826Y01995
X00889Y01995
X00764Y02232
X00720Y02232
X00632Y02051
X00589Y02051
X01495Y02045
X01557Y02045
X01495Y01995
X01557Y01995
X01201Y00357
X02051Y00357
X01401Y00345
X01007Y01964
X01351Y01964
X01451Y00345
X01376Y01989
X00989Y01989
X01501Y00345
X00970Y02014
X01401Y02014
X01551Y00345
X00951Y02039
X01426Y02039
X01651Y00345
X01751Y00345
X01301Y02139
X01889Y02351
X00651Y00345
X00664Y01926
X01282Y02170
X01864Y02376
X00701Y00345
X00707Y01951
X00851Y00345
X01239Y02370
X01289Y02207
X00707Y02039
X00451Y00345
X00451Y02325
X01314Y02457
X01951Y00345
X00501Y00345
X00482Y02312
X01326Y02414
X01901Y00345
X01851Y00345
X01307Y02370
X01795Y02332
X00551Y00345
X00514Y02325
X01314Y02332
X01757Y02332
X00601Y00345
X00545Y02312
X01801Y00345
X01314Y02232
X01839Y02407
X00751Y00345
X00726Y01982
X01251Y02232
X01701Y00345
X01601Y00345
X00901Y00345
X00670Y02039
X01189Y02314
M30
